%TF.GenerationSoftware,KiCad,Pcbnew,9.0.0*%
%TF.CreationDate,2025-03-14T22:19:27-04:00*%
%TF.ProjectId,pi0006,70693030-3036-42e6-9b69-6361645f7063,rev?*%
%TF.SameCoordinates,Original*%
%TF.FileFunction,Copper,L4,Bot*%
%TF.FilePolarity,Positive*%
%FSLAX46Y46*%
G04 Gerber Fmt 4.6, Leading zero omitted, Abs format (unit mm)*
G04 Created by KiCad (PCBNEW 9.0.0) date 2025-03-14 22:19:27*
%MOMM*%
%LPD*%
G01*
G04 APERTURE LIST*
G04 Aperture macros list*
%AMRoundRect*
0 Rectangle with rounded corners*
0 $1 Rounding radius*
0 $2 $3 $4 $5 $6 $7 $8 $9 X,Y pos of 4 corners*
0 Add a 4 corners polygon primitive as box body*
4,1,4,$2,$3,$4,$5,$6,$7,$8,$9,$2,$3,0*
0 Add four circle primitives for the rounded corners*
1,1,$1+$1,$2,$3*
1,1,$1+$1,$4,$5*
1,1,$1+$1,$6,$7*
1,1,$1+$1,$8,$9*
0 Add four rect primitives between the rounded corners*
20,1,$1+$1,$2,$3,$4,$5,0*
20,1,$1+$1,$4,$5,$6,$7,0*
20,1,$1+$1,$6,$7,$8,$9,0*
20,1,$1+$1,$8,$9,$2,$3,0*%
G04 Aperture macros list end*
%TA.AperFunction,NonConductor*%
%ADD10C,3.450000*%
%TD*%
%TA.AperFunction,ComponentPad*%
%ADD11R,1.700000X1.700000*%
%TD*%
%TA.AperFunction,ComponentPad*%
%ADD12O,1.700000X1.700000*%
%TD*%
%TA.AperFunction,ComponentPad*%
%ADD13C,0.700000*%
%TD*%
%TA.AperFunction,ComponentPad*%
%ADD14O,1.200000X2.000000*%
%TD*%
%TA.AperFunction,ComponentPad*%
%ADD15O,1.200000X1.800000*%
%TD*%
%TA.AperFunction,SMDPad,CuDef*%
%ADD16R,0.800000X1.600000*%
%TD*%
%TA.AperFunction,SMDPad,CuDef*%
%ADD17R,2.100000X3.000000*%
%TD*%
%TA.AperFunction,SMDPad,CuDef*%
%ADD18RoundRect,0.140000X-0.140000X-0.170000X0.140000X-0.170000X0.140000X0.170000X-0.140000X0.170000X0*%
%TD*%
%TA.AperFunction,SMDPad,CuDef*%
%ADD19R,1.600000X0.800000*%
%TD*%
%TA.AperFunction,SMDPad,CuDef*%
%ADD20R,3.000000X2.100000*%
%TD*%
%TA.AperFunction,SMDPad,CuDef*%
%ADD21RoundRect,0.135000X0.135000X0.185000X-0.135000X0.185000X-0.135000X-0.185000X0.135000X-0.185000X0*%
%TD*%
%TA.AperFunction,SMDPad,CuDef*%
%ADD22R,0.350000X1.050000*%
%TD*%
%TA.AperFunction,SMDPad,CuDef*%
%ADD23R,1.050000X0.350000*%
%TD*%
%TA.AperFunction,SMDPad,CuDef*%
%ADD24R,2.200000X2.200000*%
%TD*%
%TA.AperFunction,SMDPad,CuDef*%
%ADD25RoundRect,0.135000X-0.135000X-0.185000X0.135000X-0.185000X0.135000X0.185000X-0.135000X0.185000X0*%
%TD*%
%TA.AperFunction,ViaPad*%
%ADD26C,0.400000*%
%TD*%
%TA.AperFunction,Conductor*%
%ADD27C,0.150000*%
%TD*%
G04 APERTURE END LIST*
D10*
X199325000Y-77300000D02*
G75*
G02*
X195875000Y-77300000I-1725000J0D01*
G01*
X195875000Y-77300000D02*
G75*
G02*
X199325000Y-77300000I1725000J0D01*
G01*
D11*
%TO.P,U11,1*%
%TO.N,gnd*%
X189125000Y-79200000D03*
D12*
%TO.P,U11,2*%
%TO.N,transceiver-a*%
X189125000Y-81740000D03*
%TO.P,U11,3*%
%TO.N,transceiver-b*%
X189125000Y-84280000D03*
%TO.P,U11,4*%
%TO.N,vcc*%
X189125000Y-86820000D03*
%TD*%
D11*
%TO.P,U12,1*%
%TO.N,gnd*%
X206125000Y-79200000D03*
D12*
%TO.P,U12,2*%
%TO.N,transceiver-a*%
X206125000Y-81740000D03*
%TO.P,U12,3*%
%TO.N,transceiver-b*%
X206125000Y-84280000D03*
%TO.P,U12,4*%
%TO.N,vcc*%
X206125000Y-86820000D03*
%TD*%
D13*
%TO.P,U2,*%
%TO.N,*%
X194735000Y-122602500D03*
X200515000Y-122602500D03*
D14*
%TO.P,U2,1*%
%TO.N,micro_controller.typeC.typeC-ep*%
X193305000Y-122062500D03*
%TO.P,U2,2*%
X201945000Y-122062500D03*
D15*
%TO.P,U2,3*%
X193305000Y-126252500D03*
%TO.P,U2,4*%
X201945000Y-126252500D03*
%TD*%
D16*
%TO.P,U18,1*%
%TO.N,gnd*%
X193225000Y-92621620D03*
%TO.P,U18,2*%
%TO.N,micro_controller-vcc-1*%
X194475000Y-92621620D03*
%TO.P,U18,3*%
%TO.N,micro_controller-io-7*%
X195725000Y-92621620D03*
%TO.P,U18,4*%
%TO.N,micro_controller-io-8*%
X196975000Y-92621620D03*
%TO.P,U18,5*%
%TO.N,micro_controller-io-9*%
X198225000Y-92621620D03*
%TO.P,U18,6*%
%TO.N,micro_controller-io-6*%
X199475000Y-92621620D03*
%TO.P,U18,7*%
%TO.N,micro_controller-io-4*%
X200725000Y-92621620D03*
%TO.P,U18,8*%
%TO.N,micro_controller-io-5*%
X201975000Y-92621620D03*
D17*
%TO.P,U18,9*%
%TO.N,button_connector.inst-mp1*%
X204525000Y-89721620D03*
%TO.P,U18,10*%
%TO.N,button_connector.inst-mp2*%
X190675000Y-89721620D03*
%TD*%
D18*
%TO.P,C21,1*%
%TO.N,vint*%
X203475000Y-114089750D03*
%TO.P,C21,2*%
%TO.N,gnd*%
X204435000Y-114089750D03*
%TD*%
D19*
%TO.P,U17,1*%
%TO.N,gnd*%
X190100000Y-97625000D03*
%TO.P,U17,2*%
%TO.N,micro_controller-vcc-1*%
X190100000Y-98875000D03*
%TO.P,U17,3*%
%TO.N,mosi*%
X190100000Y-100125000D03*
%TO.P,U17,4*%
%TO.N,miso*%
X190100000Y-101375000D03*
%TO.P,U17,5*%
%TO.N,micro_controller-sck*%
X190100000Y-102625000D03*
%TO.P,U17,6*%
%TO.N,micro_controller-cs*%
X190100000Y-103875000D03*
D20*
%TO.P,U17,MP1*%
%TO.N,encoder_connector.inst-mp1*%
X193000000Y-95075000D03*
%TO.P,U17,MP2*%
%TO.N,encoder_connector.inst-mp2*%
X193000000Y-106425000D03*
%TD*%
D21*
%TO.P,R11,1*%
%TO.N,bisen*%
X201065000Y-120449750D03*
%TO.P,R11,2*%
%TO.N,gnd*%
X200045000Y-120449750D03*
%TD*%
D16*
%TO.P,U15,1*%
%TO.N,motor_driver-a*%
X192875000Y-119550000D03*
%TO.P,U15,2*%
%TO.N,motor_driver-b*%
X194125000Y-119550000D03*
D17*
%TO.P,U15,MP1*%
%TO.N,haptic_connector.inst-mp1*%
X190325000Y-116650000D03*
%TO.P,U15,MP2*%
%TO.N,haptic_connector.inst-mp2*%
X196675000Y-116650000D03*
%TD*%
D22*
%TO.P,U14,1*%
%TO.N,aisen*%
X203225000Y-119100000D03*
%TO.P,U14,2*%
%TO.N,motor_driver-b*%
X202575000Y-119100000D03*
%TO.P,U14,3*%
%TO.N,motor_driver.driver-b*%
X201925000Y-119100000D03*
%TO.P,U14,4*%
%TO.N,bisen*%
X201275000Y-119100000D03*
D23*
%TO.P,U14,5*%
%TO.N,motor_driver.driver-a*%
X200400000Y-118225000D03*
%TO.P,U14,6*%
%TO.N,motor_driver.driver-io-2*%
X200400000Y-117575000D03*
%TO.P,U14,7*%
%TO.N,motor_driver.driver-io*%
X200400000Y-116925000D03*
%TO.P,U14,8*%
%TO.N,motor_driver.driver-io-1*%
X200400000Y-116275000D03*
D22*
%TO.P,U14,9*%
%TO.N,vcp*%
X201275000Y-115400000D03*
%TO.P,U14,10*%
%TO.N,micro_controller-vcc-1*%
X201925000Y-115400000D03*
%TO.P,U14,11*%
%TO.N,gnd*%
X202575000Y-115400000D03*
%TO.P,U14,12*%
%TO.N,vint*%
X203225000Y-115400000D03*
D23*
%TO.P,U14,13*%
%TO.N,micro_controller-io-3*%
X204100000Y-116275000D03*
%TO.P,U14,14*%
%TO.N,micro_controller-io-2*%
X204100000Y-116925000D03*
%TO.P,U14,15*%
%TO.N,micro_controller-vcc-1*%
X204100000Y-117575000D03*
%TO.P,U14,16*%
%TO.N,motor_driver-a*%
X204100000Y-118225000D03*
D24*
%TO.P,U14,17*%
%TO.N,gnd*%
X202250000Y-117250000D03*
%TD*%
D18*
%TO.P,C20,1*%
%TO.N,vcp*%
X200065000Y-114099750D03*
%TO.P,C20,2*%
%TO.N,micro_controller-vcc-1*%
X201025000Y-114099750D03*
%TD*%
D25*
%TO.P,R10,1*%
%TO.N,aisen*%
X203445000Y-120429750D03*
%TO.P,R10,2*%
%TO.N,gnd*%
X204465000Y-120429750D03*
%TD*%
D19*
%TO.P,U16,1*%
%TO.N,gnd*%
X205150000Y-109000000D03*
%TO.P,U16,2*%
%TO.N,vcc-1*%
X205150000Y-107750000D03*
%TO.P,U16,3*%
%TO.N,level_shifter-io*%
X205150000Y-106500000D03*
D20*
%TO.P,U16,MP1*%
%TO.N,servo_connector.inst-mp1*%
X202250000Y-111550000D03*
%TO.P,U16,MP2*%
%TO.N,servo_connector.inst-mp2*%
X202250000Y-103950000D03*
%TD*%
D26*
%TO.N,micro_controller-vcc*%
X192081200Y-93215100D03*
X204679700Y-104275100D03*
%TO.N,micro_controller-vcc-1*%
X192576400Y-83067300D03*
X192917500Y-104009100D03*
X201285500Y-113414400D03*
X190934700Y-84755000D03*
X206437100Y-117575000D03*
X192951700Y-89053200D03*
X187914200Y-110937400D03*
%TO.N,micro_controller.typeC-vcc*%
X205651300Y-105675500D03*
X199284200Y-123020100D03*
%TO.N,USBD_P*%
X198775800Y-122437800D03*
X197539900Y-103303100D03*
%TO.N,micro_controller.typeC-gnd*%
X199759500Y-119532700D03*
X195598700Y-120089200D03*
%TO.N,cc1*%
X196631700Y-122579800D03*
X192227000Y-124423500D03*
%TO.N,io0*%
X197411400Y-101635000D03*
X196687100Y-99572200D03*
%TO.N,io2*%
X193085600Y-99066600D03*
X192999800Y-101417000D03*
%TO.N,micro_controller.rp2040.micro.ic-vcc*%
X196392000Y-104942600D03*
X197665900Y-107883100D03*
X199582500Y-112744300D03*
%TO.N,micro_controller.rp2040.micro.ic-io*%
X190243600Y-113564900D03*
X198732200Y-120023300D03*
X197500000Y-112249000D03*
%TO.N,level_shifter-io*%
X195437100Y-83521400D03*
%TO.N,gnd*%
X194406000Y-89477100D03*
X189287000Y-92326100D03*
X192588700Y-103013100D03*
X206299400Y-114089500D03*
X206049100Y-120429500D03*
X194365000Y-117649000D03*
X205246000Y-82789000D03*
X195000000Y-81000000D03*
X195688500Y-102848000D03*
%TO.N,vcc-1*%
X198285001Y-81275101D03*
X203661500Y-106044900D03*
%TO.N,micro_controller-io*%
X191347200Y-87572500D03*
X193184700Y-108121200D03*
%TO.N,miso*%
X197567800Y-114082400D03*
%TO.N,micro_controller-sck*%
X189264800Y-105633100D03*
X200460600Y-112830400D03*
%TO.N,micro_controller-cs*%
X198234600Y-112222300D03*
%TO.N,micro_controller-io-2*%
X206194400Y-118204800D03*
X189539600Y-108600000D03*
%TO.N,micro_controller-io-3*%
X191395700Y-109161200D03*
X204427500Y-115299700D03*
%TO.N,micro_controller-io-4*%
X200358800Y-108761200D03*
%TO.N,micro_controller-io-5*%
X200546900Y-108200000D03*
%TO.N,micro_controller-io-6*%
X193429700Y-108877500D03*
%TO.N,micro_controller-io-7*%
X191279000Y-111620200D03*
%TO.N,micro_controller-io-8*%
X193916600Y-111599300D03*
%TO.N,micro_controller.rp2040-cs*%
X202744700Y-106862900D03*
X196735800Y-98293000D03*
%TO.N,mosi*%
X199997600Y-111630400D03*
%TO.N,micro_controller-io-9*%
X193996100Y-112200000D03*
%TD*%
D27*
%TO.N,micro_controller-vcc-1*%
X201024500Y-113676500D02*
X201024500Y-113675400D01*
X191636900Y-85457200D02*
X192473600Y-86293900D01*
X201024500Y-113675400D02*
X201285500Y-113414400D01*
X201925000Y-114607000D02*
X201925000Y-115400000D01*
X201024500Y-114099500D02*
X201417500Y-114099500D01*
X189187500Y-98875000D02*
X190100000Y-98875000D01*
X204737500Y-117575000D02*
X206437100Y-117575000D01*
X188047900Y-97735400D02*
X189187500Y-98875000D01*
X191788900Y-99651400D02*
X191788900Y-102880500D01*
X191788900Y-102880500D02*
X192917500Y-104009100D01*
X192473600Y-86293900D02*
X192507800Y-86328100D01*
X190934700Y-84755000D02*
X191636900Y-85457200D01*
X192951700Y-86772000D02*
X192507800Y-86328100D01*
X191012500Y-98875000D02*
X191788900Y-99651400D01*
X190100000Y-98875000D02*
X191012500Y-98875000D01*
X188047900Y-86373900D02*
X188047900Y-97735400D01*
X204100000Y-117575000D02*
X204737500Y-117575000D01*
X188964600Y-85457200D02*
X188047900Y-86373900D01*
X191636900Y-85457200D02*
X188964600Y-85457200D01*
X192473600Y-89708100D02*
X192473600Y-86293900D01*
X201417500Y-114099500D02*
X201925000Y-114607000D01*
X194475000Y-92622000D02*
X194475000Y-91709500D01*
X201024500Y-114099500D02*
X201024500Y-113676500D01*
X192576400Y-83067300D02*
X192576400Y-86259500D01*
X192951700Y-89053200D02*
X192951700Y-86772000D01*
X192576400Y-86259500D02*
X192507800Y-86328100D01*
X194475000Y-91709500D02*
X192473600Y-89708100D01*
%TO.N,micro_controller.rp2040.micro.ic-io*%
X196184100Y-113564900D02*
X197500000Y-112249000D01*
X190243600Y-113564900D02*
X196184100Y-113564900D01*
%TO.N,level_shifter-io*%
X205150000Y-93234300D02*
X195437100Y-83521400D01*
X205150000Y-105987500D02*
X205150000Y-93234300D01*
X205150000Y-106500000D02*
X205150000Y-105987500D01*
%TO.N,motor_driver-a*%
X202287500Y-127380100D02*
X206476200Y-123191400D01*
X192875000Y-119550000D02*
X192875000Y-120462500D01*
X206476200Y-123191400D02*
X206476200Y-119963700D01*
X196625400Y-127380100D02*
X202287500Y-127380100D01*
X192175800Y-122930500D02*
X196625400Y-127380100D01*
X192175800Y-121161700D02*
X192175800Y-122930500D01*
X204737500Y-118225000D02*
X204100000Y-118225000D01*
X206476200Y-119963700D02*
X204737500Y-118225000D01*
X192875000Y-120462500D02*
X192175800Y-121161700D01*
%TO.N,motor_driver-b*%
X202130400Y-123447200D02*
X193119600Y-123447200D01*
X202772100Y-122805500D02*
X202130400Y-123447200D01*
X193119600Y-123447200D02*
X192477900Y-122805500D01*
X192477900Y-121320500D02*
X193074000Y-120724400D01*
X193074000Y-120724400D02*
X193863100Y-120724400D01*
X202575000Y-119100000D02*
X202575000Y-119737500D01*
X193863100Y-120724400D02*
X194125000Y-120462500D01*
X192477900Y-122805500D02*
X192477900Y-121320500D01*
X194125000Y-120462500D02*
X194125000Y-119550000D01*
X202575000Y-119737500D02*
X202772100Y-119934600D01*
X202772100Y-119934600D02*
X202772100Y-122805500D01*
%TO.N,aisen*%
X203444500Y-119996500D02*
X203444500Y-120429500D01*
X203225000Y-119100000D02*
X203225000Y-119737500D01*
X203444500Y-119957000D02*
X203444500Y-119996500D01*
X203225000Y-119737500D02*
X203444500Y-119957000D01*
%TO.N,bisen*%
X201275000Y-119100000D02*
X201275000Y-119737500D01*
X201275000Y-119737500D02*
X201065500Y-119947000D01*
X201065500Y-119947000D02*
X201065500Y-120017500D01*
X201065500Y-120017500D02*
X201065500Y-120450500D01*
%TO.N,vcp*%
X200064500Y-114522500D02*
X200942000Y-115400000D01*
X200942000Y-115400000D02*
X201275000Y-115400000D01*
X200064500Y-114099500D02*
X200064500Y-114522500D01*
%TO.N,vint*%
X203474500Y-114512500D02*
X203225000Y-114762000D01*
X203225000Y-114762500D02*
X203225000Y-115400000D01*
X203474500Y-114089500D02*
X203474500Y-114512500D01*
X203225000Y-114762000D02*
X203225000Y-114762500D01*
%TO.N,gnd*%
X190100000Y-97625000D02*
X190100000Y-97112500D01*
X205047900Y-82590900D02*
X205047900Y-81239600D01*
X197166500Y-120450500D02*
X194365000Y-117649000D01*
X206125000Y-80162500D02*
X206125000Y-79200000D01*
X189287000Y-92326100D02*
X189903600Y-91709500D01*
X191800000Y-91709500D02*
X191611400Y-91709500D01*
X205150000Y-112951000D02*
X204860200Y-113240800D01*
X205246000Y-82789000D02*
X205047900Y-82590900D01*
X200045500Y-120450500D02*
X199662500Y-120450500D01*
X190100000Y-97112500D02*
X190100000Y-93220900D01*
X202575000Y-114762500D02*
X202575000Y-114158900D01*
X193225000Y-92622000D02*
X192712500Y-92622000D01*
X204434500Y-113666500D02*
X204860200Y-113240800D01*
X204434500Y-114089500D02*
X204827500Y-114089500D01*
X205047900Y-81239600D02*
X206125000Y-80162500D01*
X199662500Y-120450500D02*
X197166500Y-120450500D01*
X203493100Y-113240800D02*
X204860200Y-113240800D01*
X202575000Y-114158900D02*
X203493100Y-113240800D01*
X202575000Y-116925000D02*
X202250000Y-117250000D01*
X202575000Y-115400000D02*
X202575000Y-114762500D01*
X202575000Y-115400000D02*
X202575000Y-116925000D01*
X204847500Y-120429500D02*
X206049100Y-120429500D01*
X205150000Y-109000000D02*
X205150000Y-109512500D01*
X189903600Y-91709500D02*
X191611400Y-91709500D01*
X205150000Y-109512500D02*
X205150000Y-112951000D01*
X192712500Y-92622000D02*
X191800000Y-91709500D01*
X204827500Y-114089500D02*
X206299400Y-114089500D01*
X190100000Y-93220900D02*
X191611400Y-91709500D01*
X204464500Y-120429500D02*
X204847500Y-120429500D01*
X204434500Y-114089500D02*
X204434500Y-113666500D01*
%TO.N,vcc-1*%
X204237500Y-107750000D02*
X203661500Y-107174000D01*
X203661500Y-107174000D02*
X203661500Y-106044900D01*
X206177100Y-107122900D02*
X206177100Y-88503000D01*
X205150000Y-107750000D02*
X205550000Y-107750000D01*
X205550000Y-107750000D02*
X206177100Y-107122900D01*
X206177100Y-88503000D02*
X198949201Y-81275101D01*
X205150000Y-107750000D02*
X204237500Y-107750000D01*
X198949201Y-81275101D02*
X198285001Y-81275101D01*
%TO.N,miso*%
X190100000Y-101375000D02*
X189187500Y-101375000D01*
X189187500Y-101375000D02*
X188770800Y-101791700D01*
X188770800Y-112696000D02*
X190157200Y-114082400D01*
X190157200Y-114082400D02*
X197567800Y-114082400D01*
X188770800Y-101791700D02*
X188770800Y-112696000D01*
%TO.N,micro_controller-sck*%
X189072900Y-102739600D02*
X189187500Y-102625000D01*
X189187500Y-102625000D02*
X190100000Y-102625000D01*
X189072900Y-105441200D02*
X189072900Y-102739600D01*
X189264800Y-105633100D02*
X189072900Y-105441200D01*
%TO.N,micro_controller-cs*%
X191984100Y-112929200D02*
X195575400Y-112929200D01*
X197834200Y-111821900D02*
X198234600Y-112222300D01*
X195575400Y-112929200D02*
X196682700Y-111821900D01*
X190100000Y-104387500D02*
X190100000Y-111045100D01*
X196682700Y-111821900D02*
X197834200Y-111821900D01*
X190100000Y-111045100D02*
X191984100Y-112929200D01*
X190100000Y-103875000D02*
X190100000Y-104387500D01*
%TO.N,micro_controller-io-2*%
X206864200Y-117751800D02*
X206864200Y-117398200D01*
X206391000Y-116925000D02*
X204737500Y-116925000D01*
X206194400Y-118204800D02*
X206411200Y-118204800D01*
X204737500Y-116925000D02*
X204100000Y-116925000D01*
X206411200Y-118204800D02*
X206864200Y-117751800D01*
X206864200Y-117398200D02*
X206391000Y-116925000D01*
%TO.N,micro_controller-io-3*%
X204100000Y-115987500D02*
X204100000Y-116275000D01*
X204427500Y-115299700D02*
X204100000Y-115627200D01*
X204100000Y-115627200D02*
X204100000Y-115987500D01*
%TO.N,micro_controller-io-4*%
X200119800Y-94139700D02*
X200725000Y-93534500D01*
X200725000Y-93534500D02*
X200725000Y-92622000D01*
X200119800Y-108522200D02*
X200119800Y-94139700D01*
X200358800Y-108761200D02*
X200119800Y-108522200D01*
%TO.N,micro_controller-io-5*%
X200522900Y-108176000D02*
X200522900Y-94986600D01*
X200546900Y-108200000D02*
X200522900Y-108176000D01*
X201975000Y-93534500D02*
X201975000Y-92622000D01*
X200522900Y-94986600D02*
X201975000Y-93534500D01*
%TO.N,micro_controller-io-6*%
X194172900Y-112627100D02*
X193819300Y-112627100D01*
X199475000Y-107325000D02*
X194172900Y-112627100D01*
X193819300Y-112627100D02*
X193429700Y-112237500D01*
X199475000Y-93534500D02*
X199475000Y-107325000D01*
X193429700Y-112237500D02*
X193429700Y-108877500D01*
X199475000Y-92622000D02*
X199475000Y-93534500D01*
%TO.N,micro_controller-io-7*%
X195725000Y-101805500D02*
X192471300Y-105059200D01*
X192471300Y-105059200D02*
X191494700Y-105059200D01*
X195725000Y-92622000D02*
X195725000Y-93534500D01*
X190968600Y-105585300D02*
X190968600Y-111309800D01*
X190968600Y-111309800D02*
X191279000Y-111620200D01*
X195725000Y-93534500D02*
X195725000Y-101805500D01*
X191494700Y-105059200D02*
X190968600Y-105585300D01*
%TO.N,micro_controller-io-8*%
X196186100Y-94323400D02*
X196186100Y-103987100D01*
X195550200Y-109965700D02*
X193916600Y-111599300D01*
X196975000Y-92622000D02*
X196975000Y-93534500D01*
X195550200Y-104623000D02*
X195550200Y-109965700D01*
X196186100Y-103987100D02*
X195550200Y-104623000D01*
X196975000Y-93534500D02*
X196186100Y-94323400D01*
%TO.N,mosi*%
X190100000Y-100125000D02*
X189187500Y-100125000D01*
X197744600Y-114509500D02*
X198874500Y-113379600D01*
X188468700Y-100843800D02*
X188468700Y-112821000D01*
X190157200Y-114509500D02*
X197744600Y-114509500D01*
X198874500Y-113379600D02*
X198874500Y-112753500D01*
X188468700Y-112821000D02*
X190157200Y-114509500D01*
X198874500Y-112753500D02*
X199997600Y-111630400D01*
X189187500Y-100125000D02*
X188468700Y-100843800D01*
%TO.N,micro_controller-io-9*%
X198225000Y-93534500D02*
X198225000Y-92622000D01*
X198225000Y-107971100D02*
X198225000Y-93534500D01*
X193996100Y-112200000D02*
X198225000Y-107971100D01*
%TD*%
%TA.AperFunction,Conductor*%
%TO.N,gnd*%
G36*
X204731377Y-118552356D02*
G01*
X204773661Y-118580066D01*
X206214381Y-120020786D01*
X206247866Y-120082109D01*
X206250700Y-120108467D01*
X206250700Y-123046632D01*
X206231015Y-123113671D01*
X206214381Y-123134313D01*
X202907181Y-126441513D01*
X202845858Y-126474998D01*
X202776166Y-126470014D01*
X202720233Y-126428142D01*
X202695816Y-126362678D01*
X202695500Y-126353832D01*
X202695500Y-125878579D01*
X202666659Y-125733592D01*
X202666658Y-125733591D01*
X202666658Y-125733587D01*
X202666656Y-125733582D01*
X202610087Y-125597011D01*
X202610080Y-125596998D01*
X202527951Y-125474084D01*
X202527948Y-125474080D01*
X202423419Y-125369551D01*
X202423415Y-125369548D01*
X202300501Y-125287419D01*
X202300488Y-125287412D01*
X202163917Y-125230843D01*
X202163907Y-125230840D01*
X202018920Y-125202000D01*
X202018918Y-125202000D01*
X201871082Y-125202000D01*
X201871080Y-125202000D01*
X201726092Y-125230840D01*
X201726082Y-125230843D01*
X201589511Y-125287412D01*
X201589498Y-125287419D01*
X201466584Y-125369548D01*
X201466580Y-125369551D01*
X201362051Y-125474080D01*
X201362048Y-125474084D01*
X201279919Y-125596998D01*
X201279912Y-125597011D01*
X201223343Y-125733582D01*
X201223340Y-125733592D01*
X201194500Y-125878579D01*
X201194500Y-125878582D01*
X201194500Y-126626418D01*
X201194500Y-126626420D01*
X201194499Y-126626420D01*
X201223340Y-126771407D01*
X201223343Y-126771417D01*
X201279912Y-126907988D01*
X201279919Y-126908001D01*
X201315806Y-126961709D01*
X201336684Y-127028387D01*
X201318200Y-127095767D01*
X201266221Y-127142457D01*
X201212704Y-127154600D01*
X196770167Y-127154600D01*
X196703128Y-127134915D01*
X196682486Y-127118281D01*
X193448586Y-123884381D01*
X193415101Y-123823058D01*
X193420085Y-123753366D01*
X193461957Y-123697433D01*
X193527421Y-123673016D01*
X193536267Y-123672700D01*
X202085543Y-123672700D01*
X202085545Y-123672701D01*
X202175255Y-123672701D01*
X202233860Y-123648425D01*
X202258136Y-123638370D01*
X202321570Y-123574936D01*
X202321570Y-123574935D01*
X202339008Y-123557497D01*
X202339010Y-123557494D01*
X202882394Y-123014110D01*
X202882397Y-123014108D01*
X202899835Y-122996670D01*
X202899836Y-122996670D01*
X202963270Y-122933236D01*
X202985197Y-122880300D01*
X202997601Y-122850355D01*
X202997601Y-122760645D01*
X202997601Y-122750656D01*
X202997600Y-122750642D01*
X202997600Y-120979204D01*
X203017285Y-120912165D01*
X203070089Y-120866410D01*
X203139247Y-120856466D01*
X203171683Y-120865768D01*
X203243502Y-120897480D01*
X203267377Y-120900250D01*
X203622622Y-120900249D01*
X203638539Y-120898403D01*
X203646490Y-120897481D01*
X203646490Y-120897480D01*
X203646498Y-120897480D01*
X203646504Y-120897476D01*
X203652626Y-120895812D01*
X203722482Y-120897205D01*
X203780496Y-120936143D01*
X203791915Y-120952340D01*
X203824264Y-121007038D01*
X203824268Y-121007044D01*
X203937705Y-121120481D01*
X203937714Y-121120488D01*
X204075805Y-121202154D01*
X204215000Y-121242594D01*
X204215000Y-121242593D01*
X204715000Y-121242593D01*
X204854194Y-121202154D01*
X204992285Y-121120488D01*
X204992294Y-121120481D01*
X205105731Y-121007044D01*
X205105738Y-121007035D01*
X205187406Y-120868941D01*
X205187407Y-120868938D01*
X205232166Y-120714878D01*
X205232167Y-120714872D01*
X205234931Y-120679750D01*
X204715000Y-120679750D01*
X204715000Y-121242593D01*
X204215000Y-121242593D01*
X204215000Y-119616904D01*
X204715000Y-119616904D01*
X204715000Y-120179750D01*
X205234931Y-120179750D01*
X205232167Y-120144627D01*
X205232166Y-120144621D01*
X205187407Y-119990561D01*
X205187406Y-119990558D01*
X205105738Y-119852464D01*
X205105731Y-119852455D01*
X204992294Y-119739018D01*
X204992285Y-119739011D01*
X204854191Y-119657343D01*
X204854188Y-119657341D01*
X204715001Y-119616903D01*
X204715000Y-119616904D01*
X204215000Y-119616904D01*
X204214998Y-119616903D01*
X204075811Y-119657341D01*
X204075808Y-119657343D01*
X203937714Y-119739011D01*
X203937709Y-119739015D01*
X203827341Y-119849383D01*
X203766018Y-119882867D01*
X203696326Y-119877883D01*
X203649746Y-119847092D01*
X203637878Y-119834595D01*
X203635670Y-119829264D01*
X203578909Y-119772503D01*
X203577833Y-119771370D01*
X203562584Y-119741646D01*
X203546581Y-119712338D01*
X203546563Y-119710417D01*
X203545941Y-119709203D01*
X203546501Y-119703452D01*
X203546130Y-119661788D01*
X203550500Y-119639820D01*
X203550500Y-118886556D01*
X203570185Y-118819517D01*
X203600189Y-118787290D01*
X203707187Y-118707190D01*
X203707190Y-118707187D01*
X203787290Y-118600189D01*
X203843223Y-118558318D01*
X203886556Y-118550500D01*
X204639819Y-118550500D01*
X204639820Y-118550500D01*
X204661787Y-118546130D01*
X204731377Y-118552356D01*
G37*
%TD.AperFunction*%
%TA.AperFunction,Conductor*%
G36*
X195879934Y-102071984D02*
G01*
X195935867Y-102113856D01*
X195960284Y-102179320D01*
X195960600Y-102188166D01*
X195960600Y-103842332D01*
X195940915Y-103909371D01*
X195924281Y-103930013D01*
X195422465Y-104431829D01*
X195422464Y-104431830D01*
X195390746Y-104463547D01*
X195359029Y-104495264D01*
X195359029Y-104495265D01*
X195350622Y-104515560D01*
X195337661Y-104546852D01*
X195324699Y-104578144D01*
X195324699Y-104682288D01*
X195324700Y-104682297D01*
X195324700Y-109820933D01*
X195305015Y-109887972D01*
X195288381Y-109908614D01*
X193984514Y-111212481D01*
X193923191Y-111245966D01*
X193917695Y-111247032D01*
X193907336Y-111248800D01*
X193870456Y-111248800D01*
X193805746Y-111266138D01*
X193800062Y-111267109D01*
X193770847Y-111263688D01*
X193741442Y-111262988D01*
X193736542Y-111259672D01*
X193730666Y-111258984D01*
X193707937Y-111240310D01*
X193683580Y-111223825D01*
X193681251Y-111218386D01*
X193676680Y-111214631D01*
X193667655Y-111186635D01*
X193656077Y-111159596D01*
X193655428Y-111148705D01*
X193655243Y-111148131D01*
X193655366Y-111147666D01*
X193655200Y-111144877D01*
X193655200Y-109199043D01*
X193674885Y-109132004D01*
X193691519Y-109111362D01*
X193710169Y-109092712D01*
X193756314Y-109012788D01*
X193780200Y-108923644D01*
X193780200Y-108831356D01*
X193756314Y-108742212D01*
X193756311Y-108742206D01*
X193710173Y-108662294D01*
X193710170Y-108662291D01*
X193710169Y-108662288D01*
X193644912Y-108597031D01*
X193644909Y-108597029D01*
X193644905Y-108597026D01*
X193564993Y-108550888D01*
X193564990Y-108550887D01*
X193564989Y-108550886D01*
X193564988Y-108550886D01*
X193524566Y-108540055D01*
X193464907Y-108503691D01*
X193434378Y-108440844D01*
X193442673Y-108371469D01*
X193461419Y-108343777D01*
X193460222Y-108342858D01*
X193465163Y-108336417D01*
X193465169Y-108336412D01*
X193511314Y-108256488D01*
X193535200Y-108167344D01*
X193535200Y-108075056D01*
X193511314Y-107985912D01*
X193510669Y-107984794D01*
X193465173Y-107905994D01*
X193465170Y-107905991D01*
X193465169Y-107905988D01*
X193399912Y-107840731D01*
X193396362Y-107837181D01*
X193362877Y-107775858D01*
X193367861Y-107706166D01*
X193409733Y-107650233D01*
X193475197Y-107625816D01*
X193484043Y-107625500D01*
X194514822Y-107625500D01*
X194558717Y-107616768D01*
X194558717Y-107616767D01*
X194558722Y-107616767D01*
X194608504Y-107583504D01*
X194641767Y-107533722D01*
X194644814Y-107518405D01*
X194650500Y-107489822D01*
X194650500Y-105360177D01*
X194641768Y-105316282D01*
X194641767Y-105316281D01*
X194641767Y-105316278D01*
X194608504Y-105266496D01*
X194568335Y-105239656D01*
X194558724Y-105233234D01*
X194558717Y-105233231D01*
X194514822Y-105224500D01*
X194514820Y-105224500D01*
X192924266Y-105224500D01*
X192857227Y-105204815D01*
X192811472Y-105152011D01*
X192801528Y-105082853D01*
X192830553Y-105019297D01*
X192836585Y-105012819D01*
X195748919Y-102100485D01*
X195810242Y-102067000D01*
X195879934Y-102071984D01*
G37*
%TD.AperFunction*%
%TA.AperFunction,Conductor*%
G36*
X191559172Y-85702385D02*
G01*
X191579814Y-85719019D01*
X192211781Y-86350986D01*
X192245266Y-86412309D01*
X192248100Y-86438667D01*
X192248100Y-89653242D01*
X192248099Y-89653256D01*
X192248099Y-89752953D01*
X192248100Y-89752958D01*
X192272372Y-89811557D01*
X192282429Y-89835835D01*
X192282430Y-89835836D01*
X192345864Y-89899270D01*
X192345865Y-89899270D01*
X192363305Y-89916710D01*
X193556534Y-91109939D01*
X193590019Y-91171262D01*
X193585035Y-91240954D01*
X193543163Y-91296887D01*
X193477699Y-91321304D01*
X193475227Y-91321392D01*
X193475000Y-91321620D01*
X193475000Y-92497620D01*
X193455315Y-92564659D01*
X193402511Y-92610414D01*
X193351000Y-92621620D01*
X193225000Y-92621620D01*
X193225000Y-92747620D01*
X193205315Y-92814659D01*
X193152511Y-92860414D01*
X193101000Y-92871620D01*
X192313036Y-92871620D01*
X192278063Y-92890716D01*
X192219615Y-92889324D01*
X192216488Y-92888486D01*
X192127344Y-92864600D01*
X192035056Y-92864600D01*
X191945912Y-92888486D01*
X191945911Y-92888486D01*
X191945909Y-92888487D01*
X191945906Y-92888488D01*
X191865994Y-92934626D01*
X191865985Y-92934633D01*
X191800733Y-92999885D01*
X191800726Y-92999894D01*
X191754588Y-93079806D01*
X191754587Y-93079809D01*
X191754586Y-93079811D01*
X191754586Y-93079812D01*
X191730700Y-93168956D01*
X191730700Y-93261244D01*
X191748508Y-93327705D01*
X191754587Y-93350390D01*
X191754588Y-93350393D01*
X191800726Y-93430305D01*
X191800729Y-93430309D01*
X191800731Y-93430312D01*
X191865988Y-93495569D01*
X191865991Y-93495570D01*
X191865994Y-93495573D01*
X191945906Y-93541711D01*
X191945907Y-93541711D01*
X191945912Y-93541714D01*
X192035056Y-93565600D01*
X192035058Y-93565600D01*
X192127341Y-93565600D01*
X192127344Y-93565600D01*
X192216394Y-93541739D01*
X192248468Y-93542502D01*
X192280562Y-93541735D01*
X192283178Y-93543329D01*
X192286238Y-93543402D01*
X192312807Y-93561384D01*
X192340227Y-93578093D01*
X192342145Y-93581240D01*
X192344101Y-93582564D01*
X192360013Y-93607319D01*
X192403253Y-93696305D01*
X192407166Y-93719558D01*
X192415407Y-93741652D01*
X192412856Y-93753374D01*
X192414848Y-93765206D01*
X192405568Y-93786883D01*
X192400556Y-93809925D01*
X192392072Y-93818408D01*
X192387351Y-93829438D01*
X192367824Y-93842657D01*
X192351152Y-93859331D01*
X192338382Y-93862590D01*
X192329494Y-93868608D01*
X192313287Y-93868995D01*
X192291723Y-93874500D01*
X191485178Y-93874500D01*
X191441282Y-93883231D01*
X191441275Y-93883234D01*
X191391496Y-93916495D01*
X191391495Y-93916496D01*
X191358234Y-93966275D01*
X191358231Y-93966282D01*
X191349500Y-94010177D01*
X191349500Y-94010180D01*
X191349500Y-96139820D01*
X191349500Y-96139822D01*
X191349499Y-96139822D01*
X191358231Y-96183717D01*
X191358232Y-96183721D01*
X191358233Y-96183722D01*
X191391496Y-96233504D01*
X191441278Y-96266767D01*
X191441281Y-96266767D01*
X191441282Y-96266768D01*
X191485177Y-96275500D01*
X191485180Y-96275500D01*
X194514822Y-96275500D01*
X194558717Y-96266768D01*
X194558717Y-96266767D01*
X194558722Y-96266767D01*
X194608504Y-96233504D01*
X194641767Y-96183722D01*
X194650500Y-96139820D01*
X194650500Y-94010180D01*
X194650500Y-94010177D01*
X194641768Y-93966282D01*
X194641767Y-93966281D01*
X194641767Y-93966278D01*
X194608504Y-93916496D01*
X194608503Y-93916495D01*
X194558724Y-93883234D01*
X194558717Y-93883231D01*
X194514822Y-93874500D01*
X194514820Y-93874500D01*
X194158277Y-93874500D01*
X194153349Y-93873053D01*
X194148320Y-93874100D01*
X194120158Y-93863306D01*
X194091238Y-93854815D01*
X194087875Y-93850934D01*
X194083078Y-93849096D01*
X194065223Y-93824792D01*
X194045483Y-93802011D01*
X194044752Y-93796927D01*
X194041711Y-93792788D01*
X194039829Y-93762695D01*
X194035539Y-93732853D01*
X194037585Y-93726794D01*
X194037352Y-93723055D01*
X194042917Y-93711011D01*
X194049983Y-93690098D01*
X194080314Y-93635718D01*
X194098782Y-93617577D01*
X194114297Y-93596853D01*
X194123303Y-93593493D01*
X194130161Y-93586758D01*
X194155507Y-93581482D01*
X194179761Y-93572436D01*
X194188608Y-93572120D01*
X194889822Y-93572120D01*
X194933717Y-93563388D01*
X194933717Y-93563387D01*
X194933722Y-93563387D01*
X194983504Y-93530124D01*
X194996898Y-93510077D01*
X195050508Y-93465273D01*
X195119833Y-93456564D01*
X195182861Y-93486718D01*
X195203100Y-93510076D01*
X195216496Y-93530124D01*
X195266278Y-93563387D01*
X195266281Y-93563387D01*
X195266282Y-93563388D01*
X195310177Y-93572120D01*
X195310180Y-93572120D01*
X195375500Y-93572120D01*
X195442539Y-93591805D01*
X195488294Y-93644609D01*
X195499500Y-93696120D01*
X195499500Y-101660732D01*
X195479815Y-101727771D01*
X195463181Y-101748413D01*
X193392666Y-103818927D01*
X193331343Y-103852412D01*
X193261651Y-103847428D01*
X193205718Y-103805556D01*
X193198350Y-103794386D01*
X193197971Y-103793891D01*
X193197969Y-103793888D01*
X193132712Y-103728631D01*
X193132709Y-103728629D01*
X193132705Y-103728626D01*
X193052793Y-103682488D01*
X193052790Y-103682487D01*
X193052789Y-103682486D01*
X193052788Y-103682486D01*
X192963644Y-103658600D01*
X192963643Y-103658600D01*
X192937268Y-103658600D01*
X192870229Y-103638915D01*
X192849587Y-103622281D01*
X192050719Y-102823413D01*
X192017234Y-102762090D01*
X192014400Y-102735732D01*
X192014400Y-101370856D01*
X192649300Y-101370856D01*
X192649300Y-101463144D01*
X192659098Y-101499712D01*
X192673187Y-101552290D01*
X192673188Y-101552293D01*
X192719326Y-101632205D01*
X192719329Y-101632209D01*
X192719331Y-101632212D01*
X192784588Y-101697469D01*
X192784591Y-101697470D01*
X192784594Y-101697473D01*
X192864506Y-101743611D01*
X192864507Y-101743611D01*
X192864512Y-101743614D01*
X192953656Y-101767500D01*
X192953658Y-101767500D01*
X193045942Y-101767500D01*
X193045944Y-101767500D01*
X193135088Y-101743614D01*
X193215012Y-101697469D01*
X193280269Y-101632212D01*
X193326414Y-101552288D01*
X193350300Y-101463144D01*
X193350300Y-101370856D01*
X193326414Y-101281712D01*
X193309027Y-101251597D01*
X193280273Y-101201794D01*
X193280270Y-101201791D01*
X193280269Y-101201788D01*
X193215012Y-101136531D01*
X193215009Y-101136529D01*
X193215005Y-101136526D01*
X193135093Y-101090388D01*
X193135090Y-101090387D01*
X193135089Y-101090386D01*
X193135088Y-101090386D01*
X193045944Y-101066500D01*
X192953656Y-101066500D01*
X192864512Y-101090386D01*
X192864511Y-101090386D01*
X192864509Y-101090387D01*
X192864506Y-101090388D01*
X192784594Y-101136526D01*
X192784585Y-101136533D01*
X192719333Y-101201785D01*
X192719326Y-101201794D01*
X192673188Y-101281706D01*
X192673187Y-101281709D01*
X192673186Y-101281711D01*
X192673186Y-101281712D01*
X192649300Y-101370856D01*
X192014400Y-101370856D01*
X192014400Y-99606546D01*
X192014398Y-99606541D01*
X191980072Y-99523666D01*
X191916635Y-99460229D01*
X191738211Y-99281805D01*
X191476862Y-99020456D01*
X192735100Y-99020456D01*
X192735100Y-99112744D01*
X192758615Y-99200505D01*
X192758987Y-99201890D01*
X192758988Y-99201893D01*
X192805126Y-99281805D01*
X192805129Y-99281809D01*
X192805131Y-99281812D01*
X192870388Y-99347069D01*
X192870391Y-99347070D01*
X192870394Y-99347073D01*
X192950306Y-99393211D01*
X192950307Y-99393211D01*
X192950312Y-99393214D01*
X193039456Y-99417100D01*
X193039458Y-99417100D01*
X193131742Y-99417100D01*
X193131744Y-99417100D01*
X193220888Y-99393214D01*
X193300812Y-99347069D01*
X193366069Y-99281812D01*
X193412214Y-99201888D01*
X193436100Y-99112744D01*
X193436100Y-99020456D01*
X193412214Y-98931312D01*
X193412211Y-98931306D01*
X193366073Y-98851394D01*
X193366070Y-98851391D01*
X193366069Y-98851388D01*
X193300812Y-98786131D01*
X193300809Y-98786129D01*
X193300805Y-98786126D01*
X193220893Y-98739988D01*
X193220890Y-98739987D01*
X193220889Y-98739986D01*
X193220888Y-98739986D01*
X193131744Y-98716100D01*
X193039456Y-98716100D01*
X192950312Y-98739986D01*
X192950311Y-98739986D01*
X192950309Y-98739987D01*
X192950306Y-98739988D01*
X192870394Y-98786126D01*
X192870385Y-98786133D01*
X192805133Y-98851385D01*
X192805126Y-98851394D01*
X192758988Y-98931306D01*
X192758987Y-98931309D01*
X192758986Y-98931311D01*
X192758986Y-98931312D01*
X192735100Y-99020456D01*
X191476862Y-99020456D01*
X191203670Y-98747265D01*
X191203670Y-98747264D01*
X191140236Y-98683830D01*
X191132305Y-98680544D01*
X191117458Y-98666464D01*
X191104996Y-98645014D01*
X191089091Y-98625982D01*
X191087753Y-98615332D01*
X191082360Y-98606049D01*
X191083473Y-98581267D01*
X191080382Y-98556657D01*
X191085015Y-98546973D01*
X191085497Y-98536250D01*
X191099829Y-98516007D01*
X191110536Y-98493630D01*
X191122220Y-98484385D01*
X191125873Y-98479227D01*
X191131725Y-98476865D01*
X191135277Y-98474054D01*
X191134989Y-98473669D01*
X191257187Y-98382190D01*
X191257190Y-98382187D01*
X191343350Y-98267093D01*
X191343354Y-98267086D01*
X191393596Y-98132379D01*
X191393598Y-98132372D01*
X191399999Y-98072844D01*
X191400000Y-98072827D01*
X191400000Y-97875000D01*
X188800000Y-97875000D01*
X188797602Y-97877397D01*
X188780315Y-97936272D01*
X188727511Y-97982027D01*
X188658353Y-97991971D01*
X188594797Y-97962946D01*
X188588319Y-97956914D01*
X188309719Y-97678314D01*
X188276234Y-97616991D01*
X188273400Y-97590633D01*
X188273400Y-97177155D01*
X188800000Y-97177155D01*
X188800000Y-97375000D01*
X189850000Y-97375000D01*
X190350000Y-97375000D01*
X191400000Y-97375000D01*
X191400000Y-97177172D01*
X191399999Y-97177155D01*
X191393598Y-97117627D01*
X191393596Y-97117620D01*
X191343354Y-96982913D01*
X191343350Y-96982906D01*
X191257190Y-96867812D01*
X191257187Y-96867809D01*
X191142093Y-96781649D01*
X191142086Y-96781645D01*
X191007379Y-96731403D01*
X191007372Y-96731401D01*
X190947844Y-96725000D01*
X190350000Y-96725000D01*
X190350000Y-97375000D01*
X189850000Y-97375000D01*
X189850000Y-96725000D01*
X189252155Y-96725000D01*
X189192627Y-96731401D01*
X189192620Y-96731403D01*
X189057913Y-96781645D01*
X189057906Y-96781649D01*
X188942812Y-96867809D01*
X188942809Y-96867812D01*
X188856649Y-96982906D01*
X188856645Y-96982913D01*
X188806403Y-97117620D01*
X188806401Y-97117627D01*
X188800000Y-97177155D01*
X188273400Y-97177155D01*
X188273400Y-91773775D01*
X192325000Y-91773775D01*
X192325000Y-92371620D01*
X192975000Y-92371620D01*
X192975000Y-91321620D01*
X192777155Y-91321620D01*
X192717627Y-91328021D01*
X192717620Y-91328023D01*
X192582913Y-91378265D01*
X192582906Y-91378269D01*
X192467812Y-91464429D01*
X192467809Y-91464432D01*
X192381649Y-91579526D01*
X192381645Y-91579533D01*
X192331403Y-91714240D01*
X192331401Y-91714247D01*
X192325000Y-91773775D01*
X188273400Y-91773775D01*
X188273400Y-91236442D01*
X189474499Y-91236442D01*
X189483231Y-91280337D01*
X189483234Y-91280344D01*
X189515092Y-91328023D01*
X189516496Y-91330124D01*
X189566278Y-91363387D01*
X189566281Y-91363387D01*
X189566282Y-91363388D01*
X189610177Y-91372120D01*
X189610180Y-91372120D01*
X191739822Y-91372120D01*
X191783717Y-91363388D01*
X191783717Y-91363387D01*
X191783722Y-91363387D01*
X191833504Y-91330124D01*
X191866767Y-91280342D01*
X191875500Y-91236440D01*
X191875500Y-88206800D01*
X191875500Y-88206797D01*
X191866768Y-88162902D01*
X191866767Y-88162901D01*
X191866767Y-88162898D01*
X191833504Y-88113116D01*
X191833503Y-88113115D01*
X191783724Y-88079854D01*
X191783717Y-88079851D01*
X191739822Y-88071120D01*
X191739820Y-88071120D01*
X191643404Y-88071120D01*
X191576365Y-88051435D01*
X191530610Y-87998631D01*
X191520666Y-87929473D01*
X191549691Y-87865917D01*
X191556989Y-87859040D01*
X191556665Y-87858716D01*
X191570148Y-87845233D01*
X191627669Y-87787712D01*
X191673814Y-87707788D01*
X191697700Y-87618644D01*
X191697700Y-87526356D01*
X191673814Y-87437212D01*
X191673811Y-87437206D01*
X191627673Y-87357294D01*
X191627670Y-87357291D01*
X191627669Y-87357288D01*
X191562412Y-87292031D01*
X191562409Y-87292029D01*
X191562405Y-87292026D01*
X191482493Y-87245888D01*
X191482490Y-87245887D01*
X191482489Y-87245886D01*
X191482488Y-87245886D01*
X191393344Y-87222000D01*
X191301056Y-87222000D01*
X191211912Y-87245886D01*
X191211911Y-87245886D01*
X191211909Y-87245887D01*
X191211906Y-87245888D01*
X191131994Y-87292026D01*
X191131985Y-87292033D01*
X191066733Y-87357285D01*
X191066726Y-87357294D01*
X191020588Y-87437206D01*
X191020587Y-87437209D01*
X191020586Y-87437211D01*
X191020586Y-87437212D01*
X190996700Y-87526356D01*
X190996700Y-87618644D01*
X191020277Y-87706635D01*
X191020587Y-87707790D01*
X191020588Y-87707793D01*
X191066726Y-87787705D01*
X191066733Y-87787714D01*
X191137735Y-87858716D01*
X191135441Y-87861009D01*
X191167690Y-87905186D01*
X191171837Y-87974932D01*
X191137617Y-88035849D01*
X191075896Y-88068594D01*
X191050996Y-88071120D01*
X189610178Y-88071120D01*
X189566282Y-88079851D01*
X189566275Y-88079854D01*
X189516496Y-88113115D01*
X189516495Y-88113116D01*
X189483234Y-88162895D01*
X189483231Y-88162902D01*
X189474500Y-88206797D01*
X189474500Y-88206800D01*
X189474500Y-91236440D01*
X189474500Y-91236442D01*
X189474499Y-91236442D01*
X188273400Y-91236442D01*
X188273400Y-87682684D01*
X188293085Y-87615645D01*
X188345889Y-87569890D01*
X188415047Y-87559946D01*
X188478603Y-87588971D01*
X188485081Y-87595003D01*
X188487214Y-87597136D01*
X188487218Y-87597139D01*
X188651079Y-87706628D01*
X188651092Y-87706635D01*
X188833160Y-87782049D01*
X188833165Y-87782051D01*
X188833169Y-87782051D01*
X188833170Y-87782052D01*
X189026456Y-87820500D01*
X189026459Y-87820500D01*
X189223543Y-87820500D01*
X189388365Y-87787714D01*
X189416835Y-87782051D01*
X189596111Y-87707793D01*
X189598907Y-87706635D01*
X189598907Y-87706634D01*
X189598914Y-87706632D01*
X189762782Y-87597139D01*
X189902139Y-87457782D01*
X190011632Y-87293914D01*
X190087051Y-87111835D01*
X190099632Y-87048582D01*
X190125500Y-86918543D01*
X190125500Y-86721456D01*
X190087052Y-86528170D01*
X190087051Y-86528169D01*
X190087051Y-86528165D01*
X190049980Y-86438667D01*
X190011635Y-86346092D01*
X190011628Y-86346079D01*
X189902139Y-86182218D01*
X189902136Y-86182214D01*
X189762785Y-86042863D01*
X189762781Y-86042860D01*
X189598920Y-85933371D01*
X189598907Y-85933364D01*
X189569686Y-85921261D01*
X189515282Y-85877421D01*
X189493217Y-85811127D01*
X189510496Y-85743427D01*
X189561633Y-85695816D01*
X189617138Y-85682700D01*
X191492133Y-85682700D01*
X191559172Y-85702385D01*
G37*
%TD.AperFunction*%
%TA.AperFunction,Conductor*%
G36*
X193942539Y-77270185D02*
G01*
X193988294Y-77322989D01*
X193999500Y-77374500D01*
X193999500Y-77476881D01*
X194005701Y-77539837D01*
X194034173Y-77828929D01*
X194034176Y-77828946D01*
X194103185Y-78175884D01*
X194103188Y-78175895D01*
X194205882Y-78514436D01*
X194341262Y-78841271D01*
X194341264Y-78841276D01*
X194508017Y-79153247D01*
X194508028Y-79153265D01*
X194704558Y-79447393D01*
X194704568Y-79447407D01*
X194928992Y-79720869D01*
X195179130Y-79971007D01*
X195179135Y-79971011D01*
X195179136Y-79971012D01*
X195452598Y-80195436D01*
X195746741Y-80391976D01*
X195746750Y-80391981D01*
X195746752Y-80391982D01*
X196058723Y-80558735D01*
X196058725Y-80558735D01*
X196058731Y-80558739D01*
X196385565Y-80694118D01*
X196724095Y-80796809D01*
X196724101Y-80796810D01*
X196724104Y-80796811D01*
X196724115Y-80796814D01*
X196903092Y-80832414D01*
X197071060Y-80865825D01*
X197423119Y-80900500D01*
X197423122Y-80900500D01*
X197776878Y-80900500D01*
X197776881Y-80900500D01*
X197875585Y-80890778D01*
X197944230Y-80903797D01*
X197994940Y-80951862D01*
X198011615Y-81019712D01*
X197995125Y-81076182D01*
X197958387Y-81139812D01*
X197934501Y-81228957D01*
X197934501Y-81321244D01*
X197958388Y-81410391D01*
X197958389Y-81410394D01*
X198004527Y-81490306D01*
X198004530Y-81490310D01*
X198004532Y-81490313D01*
X198069789Y-81555570D01*
X198069792Y-81555571D01*
X198069795Y-81555574D01*
X198149707Y-81601712D01*
X198149708Y-81601712D01*
X198149713Y-81601715D01*
X198238857Y-81625601D01*
X198238859Y-81625601D01*
X198331143Y-81625601D01*
X198331145Y-81625601D01*
X198420289Y-81601715D01*
X198500213Y-81555570D01*
X198518863Y-81536920D01*
X198545790Y-81522216D01*
X198571609Y-81505624D01*
X198577809Y-81504732D01*
X198580186Y-81503435D01*
X198606544Y-81500601D01*
X198804434Y-81500601D01*
X198871473Y-81520286D01*
X198892115Y-81536920D01*
X205214634Y-87859439D01*
X205248119Y-87920762D01*
X205243135Y-87990454D01*
X205201263Y-88046387D01*
X205135799Y-88070804D01*
X205126953Y-88071120D01*
X203460178Y-88071120D01*
X203416282Y-88079851D01*
X203416275Y-88079854D01*
X203366496Y-88113115D01*
X203366495Y-88113116D01*
X203333234Y-88162895D01*
X203333231Y-88162902D01*
X203324500Y-88206797D01*
X203324500Y-90790533D01*
X203304815Y-90857572D01*
X203252011Y-90903327D01*
X203182853Y-90913271D01*
X203119297Y-90884246D01*
X203112819Y-90878214D01*
X195823919Y-83589314D01*
X195790434Y-83527991D01*
X195787600Y-83501633D01*
X195787600Y-83475258D01*
X195787600Y-83475256D01*
X195763714Y-83386112D01*
X195750073Y-83362485D01*
X195717573Y-83306194D01*
X195717570Y-83306191D01*
X195717569Y-83306188D01*
X195652312Y-83240931D01*
X195652309Y-83240929D01*
X195652305Y-83240926D01*
X195572393Y-83194788D01*
X195572390Y-83194787D01*
X195572389Y-83194786D01*
X195572388Y-83194786D01*
X195483244Y-83170900D01*
X195390956Y-83170900D01*
X195301812Y-83194786D01*
X195301811Y-83194786D01*
X195301809Y-83194787D01*
X195301806Y-83194788D01*
X195221894Y-83240926D01*
X195221885Y-83240933D01*
X195156633Y-83306185D01*
X195156626Y-83306194D01*
X195110488Y-83386106D01*
X195110487Y-83386109D01*
X195110486Y-83386111D01*
X195110486Y-83386112D01*
X195086600Y-83475256D01*
X195086600Y-83567544D01*
X195092433Y-83589314D01*
X195110487Y-83656690D01*
X195110488Y-83656693D01*
X195156626Y-83736605D01*
X195156629Y-83736609D01*
X195156631Y-83736612D01*
X195221888Y-83801869D01*
X195221891Y-83801870D01*
X195221894Y-83801873D01*
X195301806Y-83848011D01*
X195301807Y-83848011D01*
X195301812Y-83848014D01*
X195390956Y-83871900D01*
X195417333Y-83871900D01*
X195484372Y-83891585D01*
X195505014Y-83908219D01*
X204888181Y-93291386D01*
X204921666Y-93352709D01*
X204924500Y-93379067D01*
X204924500Y-103816230D01*
X204904815Y-103883269D01*
X204852011Y-103929024D01*
X204782853Y-103938968D01*
X204768411Y-103936006D01*
X204725844Y-103924600D01*
X204633556Y-103924600D01*
X204544412Y-103948486D01*
X204544411Y-103948486D01*
X204544409Y-103948487D01*
X204544406Y-103948488D01*
X204464494Y-103994626D01*
X204464485Y-103994633D01*
X204399233Y-104059885D01*
X204399226Y-104059894D01*
X204353088Y-104139806D01*
X204353087Y-104139809D01*
X204353086Y-104139811D01*
X204353086Y-104139812D01*
X204329200Y-104228956D01*
X204329200Y-104321244D01*
X204352544Y-104408367D01*
X204353087Y-104410390D01*
X204353088Y-104410393D01*
X204399226Y-104490305D01*
X204399229Y-104490309D01*
X204399231Y-104490312D01*
X204464488Y-104555569D01*
X204464491Y-104555570D01*
X204464494Y-104555573D01*
X204544406Y-104601711D01*
X204544407Y-104601711D01*
X204544412Y-104601714D01*
X204633556Y-104625600D01*
X204633558Y-104625600D01*
X204725842Y-104625600D01*
X204725844Y-104625600D01*
X204768407Y-104614195D01*
X204838254Y-104615856D01*
X204896118Y-104655018D01*
X204923623Y-104719246D01*
X204924500Y-104733969D01*
X204924500Y-105825500D01*
X204904815Y-105892539D01*
X204852011Y-105938294D01*
X204800500Y-105949500D01*
X204335178Y-105949500D01*
X204291282Y-105958231D01*
X204291275Y-105958234D01*
X204241496Y-105991495D01*
X204228345Y-106011178D01*
X204174732Y-106055983D01*
X204105407Y-106064690D01*
X204042380Y-106034535D01*
X204005661Y-105975092D01*
X204005468Y-105974380D01*
X203988114Y-105909612D01*
X203977202Y-105890712D01*
X203941973Y-105829694D01*
X203941970Y-105829691D01*
X203941969Y-105829688D01*
X203876712Y-105764431D01*
X203876709Y-105764429D01*
X203876705Y-105764426D01*
X203796793Y-105718288D01*
X203796790Y-105718287D01*
X203796789Y-105718286D01*
X203796788Y-105718286D01*
X203707644Y-105694400D01*
X203615356Y-105694400D01*
X203526212Y-105718286D01*
X203526211Y-105718286D01*
X203526209Y-105718287D01*
X203526206Y-105718288D01*
X203446294Y-105764426D01*
X203446285Y-105764433D01*
X203381033Y-105829685D01*
X203381026Y-105829694D01*
X203334888Y-105909606D01*
X203334887Y-105909609D01*
X203334886Y-105909611D01*
X203334886Y-105909612D01*
X203311000Y-105998756D01*
X203311000Y-106091044D01*
X203334664Y-106179360D01*
X203334887Y-106180190D01*
X203334888Y-106180193D01*
X203381026Y-106260105D01*
X203381029Y-106260109D01*
X203381030Y-106260111D01*
X203381033Y-106260114D01*
X203399681Y-106278762D01*
X203433166Y-106340085D01*
X203436000Y-106366443D01*
X203436000Y-107119142D01*
X203435999Y-107119156D01*
X203435999Y-107218853D01*
X203436000Y-107218858D01*
X203460272Y-107277457D01*
X203470329Y-107301735D01*
X203470330Y-107301736D01*
X203533764Y-107365170D01*
X203533765Y-107365170D01*
X204046329Y-107877734D01*
X204046330Y-107877736D01*
X204109764Y-107941170D01*
X204117537Y-107944389D01*
X204132275Y-107958284D01*
X204144887Y-107979847D01*
X204160909Y-107999018D01*
X204162223Y-108009486D01*
X204167551Y-108018594D01*
X204166502Y-108043556D01*
X204169616Y-108068343D01*
X204165062Y-108077860D01*
X204164620Y-108088403D01*
X204150242Y-108108836D01*
X204139461Y-108131371D01*
X204128011Y-108140430D01*
X204124414Y-108145544D01*
X204118518Y-108147942D01*
X204114722Y-108150946D01*
X204115011Y-108151331D01*
X203992812Y-108242809D01*
X203992809Y-108242812D01*
X203906649Y-108357906D01*
X203906645Y-108357913D01*
X203856403Y-108492620D01*
X203856401Y-108492627D01*
X203850000Y-108552155D01*
X203850000Y-108750000D01*
X206450000Y-108750000D01*
X206450000Y-108552172D01*
X206449999Y-108552155D01*
X206443598Y-108492627D01*
X206443596Y-108492620D01*
X206393354Y-108357913D01*
X206393350Y-108357906D01*
X206307190Y-108242812D01*
X206307187Y-108242809D01*
X206192092Y-108156648D01*
X206192090Y-108156647D01*
X206181162Y-108152571D01*
X206125230Y-108110698D01*
X206100816Y-108045232D01*
X206100500Y-108036391D01*
X206100500Y-107569767D01*
X206120185Y-107502728D01*
X206136819Y-107482086D01*
X206225810Y-107393095D01*
X206368270Y-107250636D01*
X206368270Y-107250634D01*
X206368272Y-107250633D01*
X206393588Y-107189511D01*
X206402600Y-107167755D01*
X206402600Y-107078046D01*
X206402600Y-88547857D01*
X206402601Y-88547855D01*
X206402601Y-88458146D01*
X206368270Y-88375265D01*
X206368270Y-88375264D01*
X206304836Y-88311830D01*
X206297771Y-88304765D01*
X206297764Y-88304759D01*
X206025186Y-88032181D01*
X205991701Y-87970858D01*
X205996685Y-87901166D01*
X206038557Y-87845233D01*
X206104021Y-87820816D01*
X206112867Y-87820500D01*
X206223543Y-87820500D01*
X206388365Y-87787714D01*
X206416835Y-87782051D01*
X206596111Y-87707793D01*
X206598907Y-87706635D01*
X206598907Y-87706634D01*
X206598914Y-87706632D01*
X206762782Y-87597139D01*
X206902139Y-87457782D01*
X207011632Y-87293914D01*
X207087051Y-87111835D01*
X207099632Y-87048582D01*
X207125500Y-86918543D01*
X207125500Y-86721456D01*
X207087052Y-86528170D01*
X207087051Y-86528169D01*
X207087051Y-86528165D01*
X207049980Y-86438667D01*
X207011635Y-86346092D01*
X207011628Y-86346079D01*
X206902139Y-86182218D01*
X206902136Y-86182214D01*
X206762785Y-86042863D01*
X206762781Y-86042860D01*
X206598920Y-85933371D01*
X206598907Y-85933364D01*
X206416839Y-85857950D01*
X206416829Y-85857947D01*
X206223543Y-85819500D01*
X206223541Y-85819500D01*
X206026459Y-85819500D01*
X206026457Y-85819500D01*
X205833170Y-85857947D01*
X205833160Y-85857950D01*
X205651092Y-85933364D01*
X205651079Y-85933371D01*
X205487218Y-86042860D01*
X205487214Y-86042863D01*
X205347863Y-86182214D01*
X205347860Y-86182218D01*
X205238371Y-86346079D01*
X205238364Y-86346092D01*
X205162950Y-86528160D01*
X205162947Y-86528170D01*
X205124500Y-86721456D01*
X205124500Y-86832133D01*
X205104815Y-86899172D01*
X205052011Y-86944927D01*
X204982853Y-86954871D01*
X204919297Y-86925846D01*
X204912819Y-86919814D01*
X202371548Y-84378543D01*
X205124499Y-84378543D01*
X205162947Y-84571829D01*
X205162950Y-84571839D01*
X205238364Y-84753907D01*
X205238371Y-84753920D01*
X205347860Y-84917781D01*
X205347863Y-84917785D01*
X205487214Y-85057136D01*
X205487218Y-85057139D01*
X205651079Y-85166628D01*
X205651092Y-85166635D01*
X205807412Y-85231384D01*
X205833165Y-85242051D01*
X205833169Y-85242051D01*
X205833170Y-85242052D01*
X206026456Y-85280500D01*
X206026459Y-85280500D01*
X206223543Y-85280500D01*
X206375229Y-85250327D01*
X206416835Y-85242051D01*
X206598914Y-85166632D01*
X206762782Y-85057139D01*
X206902139Y-84917782D01*
X207011632Y-84753914D01*
X207087051Y-84571835D01*
X207115585Y-84428386D01*
X207125500Y-84378543D01*
X207125500Y-84181456D01*
X207087052Y-83988170D01*
X207087051Y-83988169D01*
X207087051Y-83988165D01*
X207038893Y-83871900D01*
X207011635Y-83806092D01*
X207011628Y-83806079D01*
X206902139Y-83642218D01*
X206902136Y-83642214D01*
X206762785Y-83502863D01*
X206762781Y-83502860D01*
X206598920Y-83393371D01*
X206598907Y-83393364D01*
X206416839Y-83317950D01*
X206416829Y-83317947D01*
X206223543Y-83279500D01*
X206223541Y-83279500D01*
X206026459Y-83279500D01*
X206026457Y-83279500D01*
X205833170Y-83317947D01*
X205833160Y-83317950D01*
X205651092Y-83393364D01*
X205651079Y-83393371D01*
X205487218Y-83502860D01*
X205487214Y-83502863D01*
X205347863Y-83642214D01*
X205347860Y-83642218D01*
X205238371Y-83806079D01*
X205238364Y-83806092D01*
X205162950Y-83988160D01*
X205162947Y-83988170D01*
X205124500Y-84181456D01*
X205124500Y-84181459D01*
X205124500Y-84378541D01*
X205124500Y-84378543D01*
X205124499Y-84378543D01*
X202371548Y-84378543D01*
X199157811Y-81164806D01*
X199140371Y-81147365D01*
X199076937Y-81083931D01*
X199076936Y-81083930D01*
X199052658Y-81073873D01*
X199052658Y-81073872D01*
X198994059Y-81049601D01*
X198994057Y-81049600D01*
X198994056Y-81049600D01*
X198904346Y-81049600D01*
X198889912Y-81049600D01*
X198889904Y-81049601D01*
X198606544Y-81049601D01*
X198578555Y-81041382D01*
X198549891Y-81035903D01*
X198543145Y-81030984D01*
X198539505Y-81029916D01*
X198521110Y-81015474D01*
X198519996Y-81014415D01*
X198500213Y-80994632D01*
X198497594Y-80993120D01*
X198490134Y-80986028D01*
X198475769Y-80961234D01*
X198458876Y-80938095D01*
X198458476Y-80931386D01*
X198455108Y-80925572D01*
X198456427Y-80896951D01*
X198454726Y-80868348D01*
X198458017Y-80862488D01*
X198458327Y-80855776D01*
X198474909Y-80832414D01*
X198488943Y-80807430D01*
X198495320Y-80803659D01*
X198498769Y-80798801D01*
X198513674Y-80792807D01*
X198539569Y-80777496D01*
X198814435Y-80694118D01*
X199141269Y-80558739D01*
X199453259Y-80391976D01*
X199747402Y-80195436D01*
X200020864Y-79971012D01*
X200271012Y-79720864D01*
X200495436Y-79447402D01*
X200691976Y-79153259D01*
X200858739Y-78841269D01*
X200994118Y-78514435D01*
X201058512Y-78302155D01*
X204775000Y-78302155D01*
X204775000Y-78950000D01*
X205691988Y-78950000D01*
X205659075Y-79007007D01*
X205625000Y-79134174D01*
X205625000Y-79265826D01*
X205659075Y-79392993D01*
X205691988Y-79450000D01*
X204775000Y-79450000D01*
X204775000Y-80097844D01*
X204781401Y-80157372D01*
X204781403Y-80157379D01*
X204831645Y-80292086D01*
X204831649Y-80292093D01*
X204917809Y-80407187D01*
X204917812Y-80407190D01*
X205032906Y-80493350D01*
X205032913Y-80493354D01*
X205167620Y-80543596D01*
X205167627Y-80543598D01*
X205227155Y-80549999D01*
X205227172Y-80550000D01*
X205760092Y-80550000D01*
X205827131Y-80569685D01*
X205872886Y-80622489D01*
X205882830Y-80691647D01*
X205853805Y-80755203D01*
X205807544Y-80788561D01*
X205651092Y-80853364D01*
X205651079Y-80853371D01*
X205487218Y-80962860D01*
X205487214Y-80962863D01*
X205347863Y-81102214D01*
X205347860Y-81102218D01*
X205238371Y-81266079D01*
X205238364Y-81266092D01*
X205162950Y-81448160D01*
X205162947Y-81448170D01*
X205124500Y-81641456D01*
X205124500Y-81641459D01*
X205124500Y-81838541D01*
X205124500Y-81838543D01*
X205124499Y-81838543D01*
X205162947Y-82031829D01*
X205162950Y-82031839D01*
X205238364Y-82213907D01*
X205238371Y-82213920D01*
X205347860Y-82377781D01*
X205347863Y-82377785D01*
X205487214Y-82517136D01*
X205487218Y-82517139D01*
X205651079Y-82626628D01*
X205651092Y-82626635D01*
X205833160Y-82702049D01*
X205833165Y-82702051D01*
X205833169Y-82702051D01*
X205833170Y-82702052D01*
X206026456Y-82740500D01*
X206026459Y-82740500D01*
X206223543Y-82740500D01*
X206353582Y-82714632D01*
X206416835Y-82702051D01*
X206598914Y-82626632D01*
X206762782Y-82517139D01*
X206902139Y-82377782D01*
X207011632Y-82213914D01*
X207087051Y-82031835D01*
X207125500Y-81838541D01*
X207125500Y-81641459D01*
X207125500Y-81641456D01*
X207087052Y-81448170D01*
X207087051Y-81448169D01*
X207087051Y-81448165D01*
X207071404Y-81410389D01*
X207011635Y-81266092D01*
X207011628Y-81266079D01*
X206902139Y-81102218D01*
X206902136Y-81102214D01*
X206762785Y-80962863D01*
X206762781Y-80962860D01*
X206598920Y-80853371D01*
X206598907Y-80853364D01*
X206442456Y-80788561D01*
X206388052Y-80744720D01*
X206365987Y-80678426D01*
X206383266Y-80610727D01*
X206434403Y-80563116D01*
X206489908Y-80550000D01*
X207022828Y-80550000D01*
X207022844Y-80549999D01*
X207082372Y-80543598D01*
X207082379Y-80543596D01*
X207217086Y-80493354D01*
X207217093Y-80493350D01*
X207332187Y-80407190D01*
X207332190Y-80407187D01*
X207418350Y-80292093D01*
X207418354Y-80292086D01*
X207468596Y-80157379D01*
X207468598Y-80157372D01*
X207474999Y-80097844D01*
X207475000Y-80097827D01*
X207475000Y-79450000D01*
X206558012Y-79450000D01*
X206590925Y-79392993D01*
X206625000Y-79265826D01*
X206625000Y-79134174D01*
X206590925Y-79007007D01*
X206558012Y-78950000D01*
X207475000Y-78950000D01*
X207475000Y-78302172D01*
X207474999Y-78302155D01*
X207468598Y-78242627D01*
X207468596Y-78242620D01*
X207418354Y-78107913D01*
X207418350Y-78107906D01*
X207332190Y-77992812D01*
X207332187Y-77992809D01*
X207217093Y-77906649D01*
X207217086Y-77906645D01*
X207082379Y-77856403D01*
X207082372Y-77856401D01*
X207022844Y-77850000D01*
X206375000Y-77850000D01*
X206375000Y-78766988D01*
X206317993Y-78734075D01*
X206190826Y-78700000D01*
X206059174Y-78700000D01*
X205932007Y-78734075D01*
X205875000Y-78766988D01*
X205875000Y-77850000D01*
X205227155Y-77850000D01*
X205167627Y-77856401D01*
X205167620Y-77856403D01*
X205032913Y-77906645D01*
X205032906Y-77906649D01*
X204917812Y-77992809D01*
X204917809Y-77992812D01*
X204831649Y-78107906D01*
X204831645Y-78107913D01*
X204781403Y-78242620D01*
X204781401Y-78242627D01*
X204775000Y-78302155D01*
X201058512Y-78302155D01*
X201096809Y-78175905D01*
X201096811Y-78175895D01*
X201096814Y-78175884D01*
X201147099Y-77923080D01*
X201165825Y-77828940D01*
X201200500Y-77476881D01*
X201200500Y-77374500D01*
X201220185Y-77307461D01*
X201272989Y-77261706D01*
X201324500Y-77250500D01*
X207119588Y-77250500D01*
X207130394Y-77250972D01*
X207137947Y-77251632D01*
X207276564Y-77263760D01*
X207289907Y-77265665D01*
X207319247Y-77271501D01*
X207327109Y-77273334D01*
X207451922Y-77306777D01*
X207467275Y-77311989D01*
X207484224Y-77319009D01*
X207489134Y-77321169D01*
X207614918Y-77379823D01*
X207633633Y-77390629D01*
X207758582Y-77478119D01*
X207775140Y-77492013D01*
X207882986Y-77599859D01*
X207896880Y-77616417D01*
X207984370Y-77741366D01*
X207995177Y-77760084D01*
X208053809Y-77885819D01*
X208055989Y-77890774D01*
X208063009Y-77907723D01*
X208068222Y-77923080D01*
X208101659Y-78047869D01*
X208103501Y-78055769D01*
X208109330Y-78085071D01*
X208111241Y-78098456D01*
X208124028Y-78244605D01*
X208124500Y-78255413D01*
X208124500Y-127244587D01*
X208124028Y-127255396D01*
X208111240Y-127401542D01*
X208109330Y-127414920D01*
X208109330Y-127414922D01*
X208103500Y-127444234D01*
X208101657Y-127452138D01*
X208068222Y-127576921D01*
X208063008Y-127592281D01*
X208055994Y-127609214D01*
X208053815Y-127614166D01*
X207995177Y-127739915D01*
X207984370Y-127758633D01*
X207896880Y-127883582D01*
X207882986Y-127900140D01*
X207775140Y-128007986D01*
X207758582Y-128021880D01*
X207633633Y-128109370D01*
X207614915Y-128120177D01*
X207489166Y-128178815D01*
X207484214Y-128180994D01*
X207467281Y-128188008D01*
X207451921Y-128193222D01*
X207327138Y-128226657D01*
X207319234Y-128228500D01*
X207289922Y-128234330D01*
X207276542Y-128236240D01*
X207139315Y-128248247D01*
X207130394Y-128249028D01*
X207119588Y-128249500D01*
X188130412Y-128249500D01*
X188119605Y-128249028D01*
X188109625Y-128248154D01*
X187973456Y-128236240D01*
X187960076Y-128234330D01*
X187930764Y-128228500D01*
X187922860Y-128226657D01*
X187798077Y-128193222D01*
X187782717Y-128188008D01*
X187765784Y-128180994D01*
X187760832Y-128178815D01*
X187635084Y-128120177D01*
X187616366Y-128109370D01*
X187491417Y-128021880D01*
X187474859Y-128007986D01*
X187367013Y-127900140D01*
X187353119Y-127883582D01*
X187265629Y-127758633D01*
X187254822Y-127739916D01*
X187224292Y-127674445D01*
X187196170Y-127614139D01*
X187194020Y-127609251D01*
X187186984Y-127592265D01*
X187181780Y-127576932D01*
X187148335Y-127452114D01*
X187146506Y-127444268D01*
X187140666Y-127414911D01*
X187138758Y-127401539D01*
X187125972Y-127255395D01*
X187125500Y-127244588D01*
X187125500Y-126626420D01*
X192554499Y-126626420D01*
X192583340Y-126771407D01*
X192583343Y-126771417D01*
X192639912Y-126907988D01*
X192639919Y-126908001D01*
X192722048Y-127030915D01*
X192722051Y-127030919D01*
X192826580Y-127135448D01*
X192826584Y-127135451D01*
X192949498Y-127217580D01*
X192949511Y-127217587D01*
X193040791Y-127255396D01*
X193086087Y-127274158D01*
X193086091Y-127274158D01*
X193086092Y-127274159D01*
X193231079Y-127303000D01*
X193231082Y-127303000D01*
X193378920Y-127303000D01*
X193476462Y-127283596D01*
X193523913Y-127274158D01*
X193660495Y-127217584D01*
X193783416Y-127135451D01*
X193887951Y-127030916D01*
X193970084Y-126907995D01*
X194026658Y-126771413D01*
X194055500Y-126626418D01*
X194055500Y-125878582D01*
X194055500Y-125878579D01*
X194026659Y-125733592D01*
X194026658Y-125733591D01*
X194026658Y-125733587D01*
X194026656Y-125733582D01*
X193970087Y-125597011D01*
X193970080Y-125596998D01*
X193887951Y-125474084D01*
X193887948Y-125474080D01*
X193783419Y-125369551D01*
X193783415Y-125369548D01*
X193660501Y-125287419D01*
X193660488Y-125287412D01*
X193523917Y-125230843D01*
X193523907Y-125230840D01*
X193378920Y-125202000D01*
X193378918Y-125202000D01*
X193231082Y-125202000D01*
X193231080Y-125202000D01*
X193086092Y-125230840D01*
X193086082Y-125230843D01*
X192949511Y-125287412D01*
X192949498Y-125287419D01*
X192826584Y-125369548D01*
X192826580Y-125369551D01*
X192722051Y-125474080D01*
X192722048Y-125474084D01*
X192639919Y-125596998D01*
X192639912Y-125597011D01*
X192583343Y-125733582D01*
X192583340Y-125733592D01*
X192554500Y-125878579D01*
X192554500Y-125878582D01*
X192554500Y-126626418D01*
X192554500Y-126626420D01*
X192554499Y-126626420D01*
X187125500Y-126626420D01*
X187125500Y-124377356D01*
X191876500Y-124377356D01*
X191876500Y-124469643D01*
X191900387Y-124558790D01*
X191900388Y-124558793D01*
X191946526Y-124638705D01*
X191946529Y-124638709D01*
X191946531Y-124638712D01*
X192011788Y-124703969D01*
X192011791Y-124703970D01*
X192011794Y-124703973D01*
X192091706Y-124750111D01*
X192091707Y-124750111D01*
X192091712Y-124750114D01*
X192180856Y-124774000D01*
X192180858Y-124774000D01*
X192273142Y-124774000D01*
X192273144Y-124774000D01*
X192362288Y-124750114D01*
X192442212Y-124703969D01*
X192507469Y-124638712D01*
X192553614Y-124558788D01*
X192577500Y-124469644D01*
X192577500Y-124377356D01*
X192553614Y-124288212D01*
X192553611Y-124288206D01*
X192507473Y-124208294D01*
X192507470Y-124208291D01*
X192507469Y-124208288D01*
X192442212Y-124143031D01*
X192442209Y-124143029D01*
X192442205Y-124143026D01*
X192362293Y-124096888D01*
X192362290Y-124096887D01*
X192362289Y-124096886D01*
X192362288Y-124096886D01*
X192273144Y-124073000D01*
X192180856Y-124073000D01*
X192091712Y-124096886D01*
X192091711Y-124096886D01*
X192091709Y-124096887D01*
X192091706Y-124096888D01*
X192011794Y-124143026D01*
X192011785Y-124143033D01*
X191946533Y-124208285D01*
X191946526Y-124208294D01*
X191900388Y-124288206D01*
X191900387Y-124288209D01*
X191876500Y-124377356D01*
X187125500Y-124377356D01*
X187125500Y-121116845D01*
X191950299Y-121116845D01*
X191950299Y-121206555D01*
X191950299Y-121206556D01*
X191950300Y-121220993D01*
X191950300Y-122875642D01*
X191950299Y-122875656D01*
X191950299Y-122885645D01*
X191950299Y-122975355D01*
X191972475Y-123028890D01*
X191984630Y-123058236D01*
X192048064Y-123121670D01*
X192048065Y-123121670D01*
X192070443Y-123144048D01*
X196427159Y-127500764D01*
X196427162Y-127500768D01*
X196434230Y-127507836D01*
X196497664Y-127571270D01*
X196531992Y-127585488D01*
X196531994Y-127585490D01*
X196531995Y-127585490D01*
X196580546Y-127605601D01*
X196580547Y-127605601D01*
X196684689Y-127605601D01*
X196684697Y-127605600D01*
X202242643Y-127605600D01*
X202242645Y-127605601D01*
X202332355Y-127605601D01*
X202390960Y-127581325D01*
X202415236Y-127571270D01*
X202478670Y-127507836D01*
X202478670Y-127507835D01*
X202496108Y-127490397D01*
X202496109Y-127490394D01*
X206667370Y-123319136D01*
X206667370Y-123319134D01*
X206667372Y-123319133D01*
X206684535Y-123277695D01*
X206701700Y-123236255D01*
X206701700Y-123146546D01*
X206701700Y-120022997D01*
X206701701Y-120022988D01*
X206701701Y-119918846D01*
X206701701Y-119918845D01*
X206667370Y-119835965D01*
X206667370Y-119835964D01*
X206603936Y-119772530D01*
X206596871Y-119765465D01*
X206596864Y-119765459D01*
X204947462Y-118116057D01*
X204928670Y-118097265D01*
X204928670Y-118097264D01*
X204865236Y-118033830D01*
X204855975Y-118029994D01*
X204839843Y-118014818D01*
X204827172Y-117993209D01*
X204811110Y-117973989D01*
X204809803Y-117963588D01*
X204804501Y-117954545D01*
X204805524Y-117929515D01*
X204802403Y-117904664D01*
X204806926Y-117895208D01*
X204807355Y-117884734D01*
X204821748Y-117864230D01*
X204832558Y-117841637D01*
X204841475Y-117836128D01*
X204847499Y-117827548D01*
X204870690Y-117818082D01*
X204892001Y-117804918D01*
X204908329Y-117802718D01*
X204912188Y-117801144D01*
X204915481Y-117801755D01*
X204924806Y-117800500D01*
X205808327Y-117800500D01*
X205875366Y-117820185D01*
X205921121Y-117872989D01*
X205931065Y-117942147D01*
X205915713Y-117986501D01*
X205867788Y-118069506D01*
X205867787Y-118069509D01*
X205867786Y-118069511D01*
X205867786Y-118069512D01*
X205843900Y-118158656D01*
X205843900Y-118250944D01*
X205865762Y-118332536D01*
X205867787Y-118340090D01*
X205867788Y-118340093D01*
X205913926Y-118420005D01*
X205913929Y-118420009D01*
X205913931Y-118420012D01*
X205979188Y-118485269D01*
X205979191Y-118485270D01*
X205979194Y-118485273D01*
X206059106Y-118531411D01*
X206059107Y-118531411D01*
X206059112Y-118531414D01*
X206148256Y-118555300D01*
X206148258Y-118555300D01*
X206240542Y-118555300D01*
X206240544Y-118555300D01*
X206329688Y-118531414D01*
X206409612Y-118485269D01*
X206453168Y-118441712D01*
X206465829Y-118430661D01*
X206478587Y-118420966D01*
X206514660Y-118406025D01*
X206538936Y-118395970D01*
X206602370Y-118332536D01*
X206602370Y-118332534D01*
X206974494Y-117960410D01*
X206974497Y-117960408D01*
X206991935Y-117942970D01*
X206991936Y-117942970D01*
X207055370Y-117879536D01*
X207084702Y-117808722D01*
X207089701Y-117796654D01*
X207089701Y-117706945D01*
X207089700Y-117706942D01*
X207089700Y-117457497D01*
X207089701Y-117457488D01*
X207089701Y-117353346D01*
X207089700Y-117353342D01*
X207064082Y-117291495D01*
X207064082Y-117291494D01*
X207055370Y-117270464D01*
X207026673Y-117241767D01*
X206991936Y-117207030D01*
X206991934Y-117207029D01*
X206984868Y-117199963D01*
X206984868Y-117199962D01*
X206984864Y-117199959D01*
X206599610Y-116814705D01*
X206582170Y-116797264D01*
X206518736Y-116733830D01*
X206518735Y-116733829D01*
X206494457Y-116723772D01*
X206494457Y-116723771D01*
X206435858Y-116699500D01*
X206435856Y-116699499D01*
X206435855Y-116699499D01*
X206346145Y-116699499D01*
X206331711Y-116699499D01*
X206331703Y-116699500D01*
X204871281Y-116699500D01*
X204804242Y-116679815D01*
X204758487Y-116627011D01*
X204748543Y-116557853D01*
X204762915Y-116520342D01*
X204762094Y-116520002D01*
X204766764Y-116508726D01*
X204766767Y-116508722D01*
X204775500Y-116464820D01*
X204775500Y-116085180D01*
X204775500Y-116085177D01*
X204766768Y-116041282D01*
X204766767Y-116041281D01*
X204766767Y-116041278D01*
X204733504Y-115991496D01*
X204733503Y-115991495D01*
X204683724Y-115958234D01*
X204683717Y-115958231D01*
X204639822Y-115949500D01*
X204639820Y-115949500D01*
X204449500Y-115949500D01*
X204440814Y-115946949D01*
X204431853Y-115948238D01*
X204407812Y-115937259D01*
X204382461Y-115929815D01*
X204376533Y-115922974D01*
X204368297Y-115919213D01*
X204354007Y-115896978D01*
X204336706Y-115877011D01*
X204334418Y-115866496D01*
X204330523Y-115860435D01*
X204325500Y-115825500D01*
X204325500Y-115774200D01*
X204345185Y-115707161D01*
X204397989Y-115661406D01*
X204449500Y-115650200D01*
X204473642Y-115650200D01*
X204473644Y-115650200D01*
X204562788Y-115626314D01*
X204642712Y-115580169D01*
X204707969Y-115514912D01*
X204754114Y-115434988D01*
X204778000Y-115345844D01*
X204778000Y-115253556D01*
X204754114Y-115164412D01*
X204711892Y-115091282D01*
X204707973Y-115084494D01*
X204707970Y-115084491D01*
X204707969Y-115084488D01*
X204703651Y-115080170D01*
X204670166Y-115018847D01*
X204675150Y-114949155D01*
X204717022Y-114893222D01*
X204756739Y-114873412D01*
X204831193Y-114851782D01*
X204831195Y-114851781D01*
X204970374Y-114769471D01*
X204970383Y-114769464D01*
X205084714Y-114655133D01*
X205084721Y-114655124D01*
X205167031Y-114515945D01*
X205167033Y-114515940D01*
X205212144Y-114360668D01*
X205212145Y-114360662D01*
X205213790Y-114339750D01*
X204559000Y-114339750D01*
X204491961Y-114320065D01*
X204446206Y-114267261D01*
X204435000Y-114215750D01*
X204435000Y-114089750D01*
X204309000Y-114089750D01*
X204241961Y-114070065D01*
X204196206Y-114017261D01*
X204185000Y-113965750D01*
X204185000Y-113285244D01*
X204685000Y-113285244D01*
X204685000Y-113839750D01*
X205213790Y-113839750D01*
X205212145Y-113818839D01*
X205167031Y-113663554D01*
X205084721Y-113524375D01*
X205084714Y-113524366D01*
X204970383Y-113410035D01*
X204970374Y-113410028D01*
X204831193Y-113327717D01*
X204831190Y-113327715D01*
X204685001Y-113285243D01*
X204685000Y-113285244D01*
X204185000Y-113285244D01*
X204184998Y-113285243D01*
X204038809Y-113327715D01*
X204038806Y-113327717D01*
X203899625Y-113410028D01*
X203899616Y-113410035D01*
X203785285Y-113524366D01*
X203785276Y-113524377D01*
X203759258Y-113568372D01*
X203708188Y-113616055D01*
X203652527Y-113629250D01*
X203291634Y-113629250D01*
X203291611Y-113629252D01*
X203267340Y-113632067D01*
X203267337Y-113632068D01*
X203167984Y-113675936D01*
X203091187Y-113752733D01*
X203047318Y-113852085D01*
X203047318Y-113852087D01*
X203044500Y-113876375D01*
X203044500Y-114272601D01*
X203024815Y-114339640D01*
X202972011Y-114385395D01*
X202902853Y-114395339D01*
X202877168Y-114388783D01*
X202857383Y-114381404D01*
X202857372Y-114381401D01*
X202797844Y-114375000D01*
X202750000Y-114375000D01*
X202750000Y-115276000D01*
X202747449Y-115284685D01*
X202748738Y-115293647D01*
X202737759Y-115317687D01*
X202730315Y-115343039D01*
X202723474Y-115348966D01*
X202719713Y-115357203D01*
X202697478Y-115371492D01*
X202677511Y-115388794D01*
X202666996Y-115391081D01*
X202660935Y-115394977D01*
X202626000Y-115400000D01*
X202524000Y-115400000D01*
X202456961Y-115380315D01*
X202411206Y-115327511D01*
X202400000Y-115276000D01*
X202400000Y-114375000D01*
X202352155Y-114375000D01*
X202292627Y-114381401D01*
X202292620Y-114381403D01*
X202167492Y-114428073D01*
X202097800Y-114433057D01*
X202036478Y-114399572D01*
X201629669Y-113992764D01*
X201608670Y-113971765D01*
X201608670Y-113971764D01*
X201545236Y-113908330D01*
X201520029Y-113897889D01*
X201516087Y-113896256D01*
X201501244Y-113883644D01*
X201492329Y-113870064D01*
X201479681Y-113859872D01*
X201473551Y-113841458D01*
X201462902Y-113825235D01*
X201462744Y-113808991D01*
X201457614Y-113793578D01*
X201462413Y-113774774D01*
X201462225Y-113755369D01*
X201470874Y-113741618D01*
X201474892Y-113725878D01*
X201495082Y-113703135D01*
X201496009Y-113701660D01*
X201494965Y-113700616D01*
X201520953Y-113674628D01*
X201565969Y-113629612D01*
X201612114Y-113549688D01*
X201636000Y-113460544D01*
X201636000Y-113368256D01*
X201612114Y-113279112D01*
X201588544Y-113238288D01*
X201565973Y-113199194D01*
X201565970Y-113199191D01*
X201565969Y-113199188D01*
X201500712Y-113133931D01*
X201500709Y-113133929D01*
X201500705Y-113133926D01*
X201420793Y-113087788D01*
X201420790Y-113087787D01*
X201420789Y-113087786D01*
X201420788Y-113087786D01*
X201331644Y-113063900D01*
X201239356Y-113063900D01*
X201150212Y-113087786D01*
X201150211Y-113087786D01*
X201150209Y-113087787D01*
X201150206Y-113087788D01*
X201070294Y-113133926D01*
X201070285Y-113133933D01*
X201005033Y-113199185D01*
X201005026Y-113199194D01*
X200958888Y-113279106D01*
X200958887Y-113279109D01*
X200958886Y-113279111D01*
X200958886Y-113279112D01*
X200947257Y-113322513D01*
X200935000Y-113368256D01*
X200935000Y-113394631D01*
X200926360Y-113424052D01*
X200919848Y-113454029D01*
X200916080Y-113459063D01*
X200915315Y-113461670D01*
X200898704Y-113482289D01*
X200896787Y-113484207D01*
X200896784Y-113484208D01*
X200896769Y-113484223D01*
X200896765Y-113484228D01*
X200896765Y-113484229D01*
X200896764Y-113484230D01*
X200877508Y-113503486D01*
X200833329Y-113547664D01*
X200832499Y-113549671D01*
X200832491Y-113549688D01*
X200808068Y-113608648D01*
X200764227Y-113663051D01*
X200743596Y-113674628D01*
X200717986Y-113685936D01*
X200717981Y-113685939D01*
X200633062Y-113770859D01*
X200630075Y-113767872D01*
X200593155Y-113798002D01*
X200523733Y-113805897D01*
X200461063Y-113775006D01*
X200457222Y-113770574D01*
X200456938Y-113770859D01*
X200372016Y-113685937D01*
X200272663Y-113642068D01*
X200248373Y-113639250D01*
X199881634Y-113639250D01*
X199881611Y-113639252D01*
X199857340Y-113642067D01*
X199857337Y-113642068D01*
X199757984Y-113685936D01*
X199681187Y-113762733D01*
X199637318Y-113862085D01*
X199637318Y-113862087D01*
X199634500Y-113886375D01*
X199634500Y-114313115D01*
X199634502Y-114313138D01*
X199637317Y-114337409D01*
X199637318Y-114337412D01*
X199681186Y-114436765D01*
X199681187Y-114436766D01*
X199757984Y-114513563D01*
X199763379Y-114515945D01*
X199784405Y-114525229D01*
X199834285Y-114565295D01*
X199843148Y-114577371D01*
X199873330Y-114650236D01*
X199936764Y-114713670D01*
X199936765Y-114713670D01*
X200476650Y-115253556D01*
X200819206Y-115596112D01*
X200852691Y-115657435D01*
X200847707Y-115727127D01*
X200805840Y-115783057D01*
X200792809Y-115792812D01*
X200712710Y-115899811D01*
X200656777Y-115941682D01*
X200613444Y-115949500D01*
X199860178Y-115949500D01*
X199816282Y-115958231D01*
X199816275Y-115958234D01*
X199766496Y-115991495D01*
X199766495Y-115991496D01*
X199733234Y-116041275D01*
X199733231Y-116041282D01*
X199724500Y-116085177D01*
X199724500Y-116085180D01*
X199724500Y-116464820D01*
X199724500Y-116464822D01*
X199724499Y-116464822D01*
X199733231Y-116508717D01*
X199733232Y-116508720D01*
X199748193Y-116531111D01*
X199769069Y-116597789D01*
X199750583Y-116665169D01*
X199748193Y-116668889D01*
X199733232Y-116691279D01*
X199733231Y-116691282D01*
X199724500Y-116735177D01*
X199724500Y-116735180D01*
X199724500Y-117114820D01*
X199724500Y-117114822D01*
X199724499Y-117114822D01*
X199733231Y-117158717D01*
X199733232Y-117158720D01*
X199748193Y-117181111D01*
X199769069Y-117247789D01*
X199750583Y-117315169D01*
X199748193Y-117318889D01*
X199733232Y-117341279D01*
X199733231Y-117341282D01*
X199724500Y-117385177D01*
X199724500Y-117385180D01*
X199724500Y-117764820D01*
X199724500Y-117764822D01*
X199724499Y-117764822D01*
X199733231Y-117808717D01*
X199733232Y-117808720D01*
X199733232Y-117808721D01*
X199733233Y-117808722D01*
X199744892Y-117826171D01*
X199748193Y-117831111D01*
X199769069Y-117897789D01*
X199750583Y-117965169D01*
X199748193Y-117968889D01*
X199733232Y-117991279D01*
X199733231Y-117991282D01*
X199724500Y-118035177D01*
X199724500Y-118035180D01*
X199724500Y-118414820D01*
X199724500Y-118414822D01*
X199724499Y-118414822D01*
X199733231Y-118458717D01*
X199733234Y-118458724D01*
X199766495Y-118508503D01*
X199766496Y-118508504D01*
X199816278Y-118541767D01*
X199816281Y-118541767D01*
X199816282Y-118541768D01*
X199860177Y-118550500D01*
X200613444Y-118550500D01*
X200680483Y-118570185D01*
X200712710Y-118600189D01*
X200792809Y-118707187D01*
X200792812Y-118707190D01*
X200899811Y-118787290D01*
X200941682Y-118843223D01*
X200949500Y-118886556D01*
X200949500Y-119639824D01*
X200953869Y-119661788D01*
X200953627Y-119664489D01*
X200954783Y-119666946D01*
X200950531Y-119699090D01*
X200947642Y-119731379D01*
X200945867Y-119734347D01*
X200945621Y-119736212D01*
X200938868Y-119746055D01*
X200926877Y-119766117D01*
X200923557Y-119770036D01*
X200874330Y-119819264D01*
X200874330Y-119819265D01*
X200867115Y-119836681D01*
X200854593Y-119851468D01*
X200840943Y-119860460D01*
X200830686Y-119873188D01*
X200812368Y-119879284D01*
X200796246Y-119889905D01*
X200779900Y-119890089D01*
X200764391Y-119895251D01*
X200745684Y-119890475D01*
X200726380Y-119890694D01*
X200712529Y-119882012D01*
X200696692Y-119877970D01*
X200672287Y-119859011D01*
X200572294Y-119759018D01*
X200572285Y-119759011D01*
X200434191Y-119677343D01*
X200434188Y-119677342D01*
X200280129Y-119632583D01*
X200280123Y-119632582D01*
X200244135Y-119629750D01*
X200234000Y-119629750D01*
X200166961Y-119610065D01*
X200121206Y-119557261D01*
X200110000Y-119505750D01*
X200110000Y-119486558D01*
X200110000Y-119486556D01*
X200086114Y-119397412D01*
X200086111Y-119397406D01*
X200039973Y-119317494D01*
X200039970Y-119317491D01*
X200039969Y-119317488D01*
X199974712Y-119252231D01*
X199974709Y-119252229D01*
X199974705Y-119252226D01*
X199894793Y-119206088D01*
X199894790Y-119206087D01*
X199894789Y-119206086D01*
X199894788Y-119206086D01*
X199805644Y-119182200D01*
X199713356Y-119182200D01*
X199624212Y-119206086D01*
X199624211Y-119206086D01*
X199624209Y-119206087D01*
X199624206Y-119206088D01*
X199544294Y-119252226D01*
X199544285Y-119252233D01*
X199479033Y-119317485D01*
X199479026Y-119317494D01*
X199432888Y-119397406D01*
X199432887Y-119397409D01*
X199432886Y-119397411D01*
X199432886Y-119397412D01*
X199409000Y-119486556D01*
X199409000Y-119578844D01*
X199431948Y-119664489D01*
X199432887Y-119667990D01*
X199432888Y-119667993D01*
X199449676Y-119697070D01*
X199466150Y-119764970D01*
X199446063Y-119826947D01*
X199310181Y-120034694D01*
X199291343Y-120050753D01*
X199275509Y-120069779D01*
X199265221Y-120073023D01*
X199257011Y-120080023D01*
X199232478Y-120083349D01*
X199208874Y-120090793D01*
X199198465Y-120087960D01*
X199187775Y-120089410D01*
X199165340Y-120078945D01*
X199141457Y-120072446D01*
X199134231Y-120064435D01*
X199124455Y-120059875D01*
X199111239Y-120038943D01*
X199094661Y-120020563D01*
X199090216Y-120005646D01*
X199087154Y-120000796D01*
X199087196Y-119995511D01*
X199083468Y-119982998D01*
X199082700Y-119977167D01*
X199082700Y-119977156D01*
X199058814Y-119888012D01*
X199056036Y-119883200D01*
X199012673Y-119808094D01*
X199012670Y-119808091D01*
X199012669Y-119808088D01*
X198947412Y-119742831D01*
X198947409Y-119742829D01*
X198947405Y-119742826D01*
X198867493Y-119696688D01*
X198867490Y-119696687D01*
X198867489Y-119696686D01*
X198867488Y-119696686D01*
X198778344Y-119672800D01*
X198686056Y-119672800D01*
X198596912Y-119696686D01*
X198596911Y-119696686D01*
X198596909Y-119696687D01*
X198596906Y-119696688D01*
X198516994Y-119742826D01*
X198516985Y-119742833D01*
X198451733Y-119808085D01*
X198451726Y-119808094D01*
X198405588Y-119888006D01*
X198405587Y-119888009D01*
X198405586Y-119888011D01*
X198405586Y-119888012D01*
X198381700Y-119977156D01*
X198381700Y-120069444D01*
X198403349Y-120150241D01*
X198405587Y-120158590D01*
X198405588Y-120158593D01*
X198451726Y-120238505D01*
X198451729Y-120238509D01*
X198451731Y-120238512D01*
X198516988Y-120303769D01*
X198516991Y-120303770D01*
X198516994Y-120303773D01*
X198596906Y-120349911D01*
X198596907Y-120349911D01*
X198596912Y-120349914D01*
X198686056Y-120373800D01*
X198686058Y-120373800D01*
X198778342Y-120373800D01*
X198778344Y-120373800D01*
X198867488Y-120349914D01*
X198947412Y-120303769D01*
X199012669Y-120238512D01*
X199043154Y-120185710D01*
X199093720Y-120137496D01*
X199162327Y-120124273D01*
X199227192Y-120150241D01*
X199241595Y-120163539D01*
X199275069Y-120199750D01*
X199921000Y-120199750D01*
X199988039Y-120219435D01*
X200033794Y-120272239D01*
X200045000Y-120323750D01*
X200045000Y-120449750D01*
X200171000Y-120449750D01*
X200238039Y-120469435D01*
X200283794Y-120522239D01*
X200295000Y-120573750D01*
X200295000Y-121262593D01*
X200434194Y-121222154D01*
X200572285Y-121140488D01*
X200572294Y-121140481D01*
X200685731Y-121027044D01*
X200685735Y-121027038D01*
X200718083Y-120972341D01*
X200769152Y-120924657D01*
X200837893Y-120912153D01*
X200857379Y-120915813D01*
X200863498Y-120917478D01*
X200863502Y-120917480D01*
X200887377Y-120920250D01*
X201242622Y-120920249D01*
X201248740Y-120919539D01*
X201266493Y-120917481D01*
X201266494Y-120917480D01*
X201266498Y-120917480D01*
X201364141Y-120874366D01*
X201439616Y-120798891D01*
X201482730Y-120701248D01*
X201485500Y-120677373D01*
X201485499Y-120222128D01*
X201482730Y-120198252D01*
X201477193Y-120185712D01*
X201439619Y-120100614D01*
X201439617Y-120100611D01*
X201439616Y-120100609D01*
X201422887Y-120083880D01*
X201389402Y-120022557D01*
X201394386Y-119952865D01*
X201409750Y-119924007D01*
X201415678Y-119915727D01*
X201466170Y-119865236D01*
X201480390Y-119830905D01*
X201489090Y-119809899D01*
X201532929Y-119755497D01*
X201599222Y-119733430D01*
X201666922Y-119750707D01*
X201672541Y-119754248D01*
X201674909Y-119755830D01*
X201691278Y-119766767D01*
X201691281Y-119766767D01*
X201691282Y-119766768D01*
X201735177Y-119775500D01*
X201735180Y-119775500D01*
X202114822Y-119775500D01*
X202158717Y-119766768D01*
X202158717Y-119766767D01*
X202158722Y-119766767D01*
X202177456Y-119754249D01*
X202244131Y-119733371D01*
X202311511Y-119751855D01*
X202358202Y-119803833D01*
X202360905Y-119809894D01*
X202370558Y-119833196D01*
X202370560Y-119833200D01*
X202383829Y-119865235D01*
X202383830Y-119865236D01*
X202447264Y-119928670D01*
X202447265Y-119928670D01*
X202464705Y-119946110D01*
X202510281Y-119991686D01*
X202543766Y-120053009D01*
X202546600Y-120079367D01*
X202546600Y-120929869D01*
X202526915Y-120996908D01*
X202474111Y-121042663D01*
X202404953Y-121052607D01*
X202353710Y-121032972D01*
X202300499Y-120997418D01*
X202300488Y-120997412D01*
X202163917Y-120940843D01*
X202163907Y-120940840D01*
X202018920Y-120912000D01*
X202018918Y-120912000D01*
X201871082Y-120912000D01*
X201871080Y-120912000D01*
X201726092Y-120940840D01*
X201726082Y-120940843D01*
X201589511Y-120997412D01*
X201589497Y-120997420D01*
X201588417Y-120998141D01*
X201588384Y-120998164D01*
X201466584Y-121079549D01*
X201439123Y-121107009D01*
X201439116Y-121107015D01*
X201362048Y-121184084D01*
X201279919Y-121306998D01*
X201279912Y-121307011D01*
X201223343Y-121443582D01*
X201223340Y-121443592D01*
X201194500Y-121588579D01*
X201194500Y-122315653D01*
X201174815Y-122382692D01*
X201122011Y-122428447D01*
X201052853Y-122438391D01*
X200989297Y-122409366D01*
X200963113Y-122377654D01*
X200955569Y-122364588D01*
X200915500Y-122295186D01*
X200822314Y-122202000D01*
X200744949Y-122157333D01*
X200708187Y-122136108D01*
X200615182Y-122111188D01*
X200580892Y-122102000D01*
X200449108Y-122102000D01*
X200321812Y-122136108D01*
X200207686Y-122202000D01*
X200207683Y-122202002D01*
X200114502Y-122295183D01*
X200114500Y-122295186D01*
X200048608Y-122409312D01*
X200028612Y-122483941D01*
X200014500Y-122536608D01*
X200014500Y-122668392D01*
X200029524Y-122724462D01*
X200048608Y-122795687D01*
X200080171Y-122850354D01*
X200114500Y-122909814D01*
X200114502Y-122909816D01*
X200213433Y-123008747D01*
X200211318Y-123010861D01*
X200244096Y-123055742D01*
X200248256Y-123125488D01*
X200214049Y-123186411D01*
X200152335Y-123219169D01*
X200127410Y-123221700D01*
X199754645Y-123221700D01*
X199687606Y-123202015D01*
X199641851Y-123149211D01*
X199631907Y-123080053D01*
X199634628Y-123066783D01*
X199634700Y-123066242D01*
X199634700Y-122973958D01*
X199634700Y-122973956D01*
X199610814Y-122884812D01*
X199605520Y-122875642D01*
X199564673Y-122804894D01*
X199564670Y-122804891D01*
X199564669Y-122804888D01*
X199499412Y-122739631D01*
X199499409Y-122739629D01*
X199499405Y-122739626D01*
X199419493Y-122693488D01*
X199419490Y-122693487D01*
X199419489Y-122693486D01*
X199419488Y-122693486D01*
X199330344Y-122669600D01*
X199238153Y-122669600D01*
X199171114Y-122649915D01*
X199125359Y-122597111D01*
X199115415Y-122527953D01*
X199118375Y-122513520D01*
X199126300Y-122483944D01*
X199126300Y-122391656D01*
X199102414Y-122302512D01*
X199100579Y-122299333D01*
X199056273Y-122222594D01*
X199056270Y-122222591D01*
X199056269Y-122222588D01*
X198991012Y-122157331D01*
X198991009Y-122157329D01*
X198991005Y-122157326D01*
X198911093Y-122111188D01*
X198911090Y-122111187D01*
X198911089Y-122111186D01*
X198911088Y-122111186D01*
X198821944Y-122087300D01*
X198729656Y-122087300D01*
X198640512Y-122111186D01*
X198640511Y-122111186D01*
X198640509Y-122111187D01*
X198640506Y-122111188D01*
X198560594Y-122157326D01*
X198560585Y-122157333D01*
X198495333Y-122222585D01*
X198495326Y-122222594D01*
X198449188Y-122302506D01*
X198449187Y-122302509D01*
X198449186Y-122302511D01*
X198449186Y-122302512D01*
X198425300Y-122391656D01*
X198425300Y-122483944D01*
X198439411Y-122536608D01*
X198449187Y-122573090D01*
X198449188Y-122573093D01*
X198495326Y-122653005D01*
X198495329Y-122653009D01*
X198495331Y-122653012D01*
X198560588Y-122718269D01*
X198560591Y-122718270D01*
X198560594Y-122718273D01*
X198640506Y-122764411D01*
X198640507Y-122764411D01*
X198640512Y-122764414D01*
X198729656Y-122788300D01*
X198729658Y-122788300D01*
X198821847Y-122788300D01*
X198888886Y-122807985D01*
X198934641Y-122860789D01*
X198945729Y-122917707D01*
X198945136Y-122931272D01*
X198933700Y-122973956D01*
X198933700Y-123066244D01*
X198938469Y-123084042D01*
X198937637Y-123103107D01*
X198932263Y-123118836D01*
X198931868Y-123135452D01*
X198921201Y-123151213D01*
X198915048Y-123169224D01*
X198902024Y-123179550D01*
X198892708Y-123193316D01*
X198875211Y-123200809D01*
X198860299Y-123212633D01*
X198843761Y-123214278D01*
X198828481Y-123220823D01*
X198813755Y-123221700D01*
X195122590Y-123221700D01*
X195055551Y-123202015D01*
X195009796Y-123149211D01*
X194999852Y-123080053D01*
X195028877Y-123016497D01*
X195036827Y-123009007D01*
X195036567Y-123008747D01*
X195071358Y-122973956D01*
X195135500Y-122909814D01*
X195201392Y-122795686D01*
X195235500Y-122668392D01*
X195235500Y-122536608D01*
X195234709Y-122533656D01*
X196281200Y-122533656D01*
X196281200Y-122625944D01*
X196303482Y-122709103D01*
X196305087Y-122715090D01*
X196305088Y-122715093D01*
X196351226Y-122795005D01*
X196351229Y-122795009D01*
X196351231Y-122795012D01*
X196416488Y-122860269D01*
X196416491Y-122860270D01*
X196416494Y-122860273D01*
X196496406Y-122906411D01*
X196496407Y-122906411D01*
X196496412Y-122906414D01*
X196585556Y-122930300D01*
X196585558Y-122930300D01*
X196677842Y-122930300D01*
X196677844Y-122930300D01*
X196766988Y-122906414D01*
X196846912Y-122860269D01*
X196912169Y-122795012D01*
X196958314Y-122715088D01*
X196982200Y-122625944D01*
X196982200Y-122533656D01*
X196958314Y-122444512D01*
X196958311Y-122444506D01*
X196912173Y-122364594D01*
X196912170Y-122364591D01*
X196912169Y-122364588D01*
X196846912Y-122299331D01*
X196846909Y-122299329D01*
X196846905Y-122299326D01*
X196766993Y-122253188D01*
X196766990Y-122253187D01*
X196766989Y-122253186D01*
X196766988Y-122253186D01*
X196677844Y-122229300D01*
X196585556Y-122229300D01*
X196496412Y-122253186D01*
X196496411Y-122253186D01*
X196496409Y-122253187D01*
X196496406Y-122253188D01*
X196416494Y-122299326D01*
X196416485Y-122299333D01*
X196351233Y-122364585D01*
X196351226Y-122364594D01*
X196305088Y-122444506D01*
X196305087Y-122444509D01*
X196305086Y-122444511D01*
X196305086Y-122444512D01*
X196281200Y-122533656D01*
X195234709Y-122533656D01*
X195201392Y-122409314D01*
X195135500Y-122295186D01*
X195042314Y-122202000D01*
X194964949Y-122157333D01*
X194928187Y-122136108D01*
X194835182Y-122111188D01*
X194800892Y-122102000D01*
X194669108Y-122102000D01*
X194541812Y-122136108D01*
X194427686Y-122202000D01*
X194427683Y-122202002D01*
X194334502Y-122295183D01*
X194334500Y-122295186D01*
X194286887Y-122377654D01*
X194236319Y-122425869D01*
X194167712Y-122439091D01*
X194102848Y-122413123D01*
X194062320Y-122356209D01*
X194055500Y-122315653D01*
X194055500Y-121588579D01*
X194026659Y-121443592D01*
X194026658Y-121443591D01*
X194026658Y-121443587D01*
X194026656Y-121443582D01*
X193970087Y-121307011D01*
X193970080Y-121306998D01*
X193887951Y-121184084D01*
X193887948Y-121184080D01*
X193859442Y-121155574D01*
X193843722Y-121126785D01*
X193826975Y-121098560D01*
X193827056Y-121096265D01*
X193825957Y-121094251D01*
X193828297Y-121061528D01*
X193829468Y-121028735D01*
X193830777Y-121026849D01*
X193830941Y-121024559D01*
X193850602Y-120998294D01*
X193869316Y-120971342D01*
X193871949Y-120969779D01*
X193872813Y-120968626D01*
X193899669Y-120953332D01*
X193907952Y-120949901D01*
X193907955Y-120949901D01*
X193979537Y-120920250D01*
X193990836Y-120915570D01*
X194054270Y-120852136D01*
X194054270Y-120852135D01*
X194071708Y-120834697D01*
X194071710Y-120834694D01*
X194206654Y-120699750D01*
X199275069Y-120699750D01*
X199277832Y-120734872D01*
X199277833Y-120734878D01*
X199322592Y-120888938D01*
X199322593Y-120888941D01*
X199404261Y-121027035D01*
X199404268Y-121027044D01*
X199517705Y-121140481D01*
X199517714Y-121140488D01*
X199655805Y-121222154D01*
X199795000Y-121262594D01*
X199795000Y-120699750D01*
X199275069Y-120699750D01*
X194206654Y-120699750D01*
X194252734Y-120653670D01*
X194252736Y-120653670D01*
X194316170Y-120590236D01*
X194322680Y-120574516D01*
X194323846Y-120572023D01*
X194345202Y-120547798D01*
X194365473Y-120522644D01*
X194368171Y-120521745D01*
X194370052Y-120519613D01*
X194401112Y-120510781D01*
X194431767Y-120500579D01*
X194436194Y-120500500D01*
X194539822Y-120500500D01*
X194583717Y-120491768D01*
X194583717Y-120491767D01*
X194583722Y-120491767D01*
X194633504Y-120458504D01*
X194666767Y-120408722D01*
X194674535Y-120369673D01*
X194675500Y-120364822D01*
X194675500Y-120043056D01*
X195248200Y-120043056D01*
X195248200Y-120135344D01*
X195271455Y-120222134D01*
X195272087Y-120224490D01*
X195272088Y-120224493D01*
X195318226Y-120304405D01*
X195318229Y-120304409D01*
X195318231Y-120304412D01*
X195383488Y-120369669D01*
X195383491Y-120369670D01*
X195383494Y-120369673D01*
X195463406Y-120415811D01*
X195463407Y-120415811D01*
X195463412Y-120415814D01*
X195552556Y-120439700D01*
X195552558Y-120439700D01*
X195644842Y-120439700D01*
X195644844Y-120439700D01*
X195733988Y-120415814D01*
X195813912Y-120369669D01*
X195879169Y-120304412D01*
X195925314Y-120224488D01*
X195949200Y-120135344D01*
X195949200Y-120043056D01*
X195925314Y-119953912D01*
X195924710Y-119952865D01*
X195879173Y-119873994D01*
X195879170Y-119873991D01*
X195879169Y-119873988D01*
X195813912Y-119808731D01*
X195813909Y-119808729D01*
X195813905Y-119808726D01*
X195733993Y-119762588D01*
X195733990Y-119762587D01*
X195733989Y-119762586D01*
X195733988Y-119762586D01*
X195644844Y-119738700D01*
X195552556Y-119738700D01*
X195463412Y-119762586D01*
X195463411Y-119762586D01*
X195463409Y-119762587D01*
X195463406Y-119762588D01*
X195383494Y-119808726D01*
X195383485Y-119808733D01*
X195318233Y-119873985D01*
X195318226Y-119873994D01*
X195272088Y-119953906D01*
X195272087Y-119953909D01*
X195272086Y-119953911D01*
X195272086Y-119953912D01*
X195248200Y-120043056D01*
X194675500Y-120043056D01*
X194675500Y-118735177D01*
X194666768Y-118691282D01*
X194666767Y-118691281D01*
X194666767Y-118691278D01*
X194633504Y-118641496D01*
X194633503Y-118641495D01*
X194583724Y-118608234D01*
X194583717Y-118608231D01*
X194539822Y-118599500D01*
X194539820Y-118599500D01*
X193710180Y-118599500D01*
X193710178Y-118599500D01*
X193666282Y-118608231D01*
X193666275Y-118608234D01*
X193616496Y-118641495D01*
X193603102Y-118661542D01*
X193549490Y-118706347D01*
X193480165Y-118715054D01*
X193417138Y-118684900D01*
X193396898Y-118661542D01*
X193383503Y-118641495D01*
X193333724Y-118608234D01*
X193333717Y-118608231D01*
X193289822Y-118599500D01*
X193289820Y-118599500D01*
X192460180Y-118599500D01*
X192460178Y-118599500D01*
X192416282Y-118608231D01*
X192416275Y-118608234D01*
X192366496Y-118641495D01*
X192366495Y-118641496D01*
X192333234Y-118691275D01*
X192333231Y-118691282D01*
X192324500Y-118735177D01*
X192324500Y-118735180D01*
X192324500Y-120364820D01*
X192324500Y-120364822D01*
X192324499Y-120364822D01*
X192333231Y-120408717D01*
X192333234Y-120408724D01*
X192366495Y-120458503D01*
X192375132Y-120467140D01*
X192372053Y-120470218D01*
X192401710Y-120505687D01*
X192410434Y-120575010D01*
X192380295Y-120638045D01*
X192375707Y-120642886D01*
X192048065Y-120970529D01*
X191984630Y-121033963D01*
X191984630Y-121033965D01*
X191954371Y-121107015D01*
X191950299Y-121116845D01*
X187125500Y-121116845D01*
X187125500Y-118164822D01*
X189124499Y-118164822D01*
X189133231Y-118208717D01*
X189133234Y-118208724D01*
X189166495Y-118258503D01*
X189166496Y-118258504D01*
X189216278Y-118291767D01*
X189216281Y-118291767D01*
X189216282Y-118291768D01*
X189260177Y-118300500D01*
X189260180Y-118300500D01*
X191389822Y-118300500D01*
X191433717Y-118291768D01*
X191433717Y-118291767D01*
X191433722Y-118291767D01*
X191483504Y-118258504D01*
X191516767Y-118208722D01*
X191525500Y-118164822D01*
X195474499Y-118164822D01*
X195483231Y-118208717D01*
X195483234Y-118208724D01*
X195516495Y-118258503D01*
X195516496Y-118258504D01*
X195566278Y-118291767D01*
X195566281Y-118291767D01*
X195566282Y-118291768D01*
X195610177Y-118300500D01*
X195610180Y-118300500D01*
X197739822Y-118300500D01*
X197783717Y-118291768D01*
X197783717Y-118291767D01*
X197783722Y-118291767D01*
X197833504Y-118258504D01*
X197866767Y-118208722D01*
X197875500Y-118164820D01*
X197875500Y-115135180D01*
X197875500Y-115135177D01*
X197866768Y-115091282D01*
X197866767Y-115091281D01*
X197866767Y-115091278D01*
X197833504Y-115041496D01*
X197833503Y-115041495D01*
X197783724Y-115008234D01*
X197783717Y-115008231D01*
X197739822Y-114999500D01*
X197739820Y-114999500D01*
X195610180Y-114999500D01*
X195610178Y-114999500D01*
X195566282Y-115008231D01*
X195566275Y-115008234D01*
X195516496Y-115041495D01*
X195516495Y-115041496D01*
X195483234Y-115091275D01*
X195483231Y-115091282D01*
X195474500Y-115135177D01*
X195474500Y-115135180D01*
X195474500Y-118164820D01*
X195474500Y-118164822D01*
X195474499Y-118164822D01*
X191525500Y-118164822D01*
X191525500Y-118164820D01*
X191525500Y-115135180D01*
X191525500Y-115135177D01*
X191516768Y-115091282D01*
X191516767Y-115091281D01*
X191516767Y-115091278D01*
X191483504Y-115041496D01*
X191483503Y-115041495D01*
X191433724Y-115008234D01*
X191433717Y-115008231D01*
X191389822Y-114999500D01*
X191389820Y-114999500D01*
X189260180Y-114999500D01*
X189260178Y-114999500D01*
X189216282Y-115008231D01*
X189216275Y-115008234D01*
X189166496Y-115041495D01*
X189166495Y-115041496D01*
X189133234Y-115091275D01*
X189133231Y-115091282D01*
X189124500Y-115135177D01*
X189124500Y-115135180D01*
X189124500Y-118164820D01*
X189124500Y-118164822D01*
X189124499Y-118164822D01*
X187125500Y-118164822D01*
X187125500Y-110891256D01*
X187563700Y-110891256D01*
X187563700Y-110983544D01*
X187568174Y-111000242D01*
X187587587Y-111072690D01*
X187587588Y-111072693D01*
X187633726Y-111152605D01*
X187633729Y-111152609D01*
X187633731Y-111152612D01*
X187698988Y-111217869D01*
X187698991Y-111217870D01*
X187698994Y-111217873D01*
X187778906Y-111264011D01*
X187778907Y-111264011D01*
X187778912Y-111264014D01*
X187868056Y-111287900D01*
X187868058Y-111287900D01*
X187960342Y-111287900D01*
X187960344Y-111287900D01*
X188049488Y-111264014D01*
X188057196Y-111259563D01*
X188125093Y-111243088D01*
X188191121Y-111265937D01*
X188234315Y-111320856D01*
X188243200Y-111366948D01*
X188243200Y-112776142D01*
X188243199Y-112776145D01*
X188243199Y-112865855D01*
X188266249Y-112921500D01*
X188277530Y-112948736D01*
X188277532Y-112948738D01*
X188358400Y-113029606D01*
X188358406Y-113029611D01*
X189966029Y-114637234D01*
X189966030Y-114637236D01*
X190029464Y-114700670D01*
X190060849Y-114713670D01*
X190112346Y-114735001D01*
X190112347Y-114735001D01*
X190216489Y-114735001D01*
X190216497Y-114735000D01*
X197699743Y-114735000D01*
X197699745Y-114735001D01*
X197789455Y-114735001D01*
X197865093Y-114703670D01*
X197872336Y-114700670D01*
X197935770Y-114637236D01*
X197935770Y-114637235D01*
X197953208Y-114619797D01*
X197953210Y-114619794D01*
X199002234Y-113570770D01*
X199002236Y-113570770D01*
X199065670Y-113507336D01*
X199089005Y-113451000D01*
X199100001Y-113424455D01*
X199100001Y-113334745D01*
X199100001Y-113324756D01*
X199100000Y-113324742D01*
X199100000Y-113056843D01*
X199119685Y-112989804D01*
X199172489Y-112944049D01*
X199241647Y-112934105D01*
X199305203Y-112963130D01*
X199311681Y-112969162D01*
X199367288Y-113024769D01*
X199367291Y-113024770D01*
X199367294Y-113024773D01*
X199447206Y-113070911D01*
X199447207Y-113070911D01*
X199447212Y-113070914D01*
X199536356Y-113094800D01*
X199536358Y-113094800D01*
X199628642Y-113094800D01*
X199628644Y-113094800D01*
X199717788Y-113070914D01*
X199797712Y-113024769D01*
X199862969Y-112959512D01*
X199897267Y-112900106D01*
X199947834Y-112851893D01*
X200016441Y-112838671D01*
X200081305Y-112864639D01*
X200121833Y-112921553D01*
X200124423Y-112930001D01*
X200128188Y-112944049D01*
X200133987Y-112965692D01*
X200133988Y-112965693D01*
X200180126Y-113045605D01*
X200180129Y-113045609D01*
X200180131Y-113045612D01*
X200245388Y-113110869D01*
X200245391Y-113110870D01*
X200245394Y-113110873D01*
X200325306Y-113157011D01*
X200325307Y-113157011D01*
X200325312Y-113157014D01*
X200414456Y-113180900D01*
X200414458Y-113180900D01*
X200506742Y-113180900D01*
X200506744Y-113180900D01*
X200595888Y-113157014D01*
X200675812Y-113110869D01*
X200741069Y-113045612D01*
X200787214Y-112965688D01*
X200811100Y-112876544D01*
X200811100Y-112874500D01*
X200811587Y-112872839D01*
X200812161Y-112868484D01*
X200812840Y-112868573D01*
X200830785Y-112807461D01*
X200883589Y-112761706D01*
X200935100Y-112750500D01*
X203764822Y-112750500D01*
X203808717Y-112741768D01*
X203808717Y-112741767D01*
X203808722Y-112741767D01*
X203858504Y-112708504D01*
X203891767Y-112658722D01*
X203896323Y-112635819D01*
X203900500Y-112614822D01*
X203900500Y-110485177D01*
X203891768Y-110441282D01*
X203891767Y-110441281D01*
X203891767Y-110441278D01*
X203858504Y-110391496D01*
X203858503Y-110391495D01*
X203808724Y-110358234D01*
X203808717Y-110358231D01*
X203764822Y-110349500D01*
X203764820Y-110349500D01*
X200735180Y-110349500D01*
X200735178Y-110349500D01*
X200691282Y-110358231D01*
X200691275Y-110358234D01*
X200641496Y-110391495D01*
X200641495Y-110391496D01*
X200608234Y-110441275D01*
X200608231Y-110441282D01*
X200599500Y-110485177D01*
X200599500Y-112355900D01*
X200579815Y-112422939D01*
X200527011Y-112468694D01*
X200475500Y-112479900D01*
X200414456Y-112479900D01*
X200325312Y-112503786D01*
X200325311Y-112503786D01*
X200325309Y-112503787D01*
X200325306Y-112503788D01*
X200245394Y-112549926D01*
X200245385Y-112549933D01*
X200180133Y-112615185D01*
X200180131Y-112615188D01*
X200145832Y-112674593D01*
X200095263Y-112722807D01*
X200026656Y-112736028D01*
X199961792Y-112710059D01*
X199921265Y-112653143D01*
X199918676Y-112644700D01*
X199909114Y-112609012D01*
X199909111Y-112609006D01*
X199862973Y-112529094D01*
X199862970Y-112529091D01*
X199862969Y-112529088D01*
X199797712Y-112463831D01*
X199767012Y-112446106D01*
X199738187Y-112429463D01*
X199689973Y-112378895D01*
X199676751Y-112310288D01*
X199702720Y-112245424D01*
X199712500Y-112234404D01*
X199929686Y-112017219D01*
X199991009Y-111983734D01*
X200017367Y-111980900D01*
X200043742Y-111980900D01*
X200043744Y-111980900D01*
X200132888Y-111957014D01*
X200212812Y-111910869D01*
X200278069Y-111845612D01*
X200324214Y-111765688D01*
X200348100Y-111676544D01*
X200348100Y-111584256D01*
X200324214Y-111495112D01*
X200318325Y-111484912D01*
X200278073Y-111415194D01*
X200278070Y-111415191D01*
X200278069Y-111415188D01*
X200212812Y-111349931D01*
X200212809Y-111349929D01*
X200212805Y-111349926D01*
X200132893Y-111303788D01*
X200132890Y-111303787D01*
X200132889Y-111303786D01*
X200132888Y-111303786D01*
X200043744Y-111279900D01*
X199951456Y-111279900D01*
X199862312Y-111303786D01*
X199862311Y-111303786D01*
X199862309Y-111303787D01*
X199862306Y-111303788D01*
X199782394Y-111349926D01*
X199782385Y-111349933D01*
X199717133Y-111415185D01*
X199717126Y-111415194D01*
X199670988Y-111495106D01*
X199670987Y-111495109D01*
X199647100Y-111584256D01*
X199647100Y-111610632D01*
X199627415Y-111677671D01*
X199610781Y-111698313D01*
X198683330Y-112625763D01*
X198683330Y-112625765D01*
X198648999Y-112708644D01*
X198648999Y-112812788D01*
X198649000Y-112812797D01*
X198649000Y-113234832D01*
X198629315Y-113301871D01*
X198612681Y-113322513D01*
X198042966Y-113892227D01*
X197981643Y-113925712D01*
X197911951Y-113920728D01*
X197856018Y-113878856D01*
X197848650Y-113867686D01*
X197848271Y-113867191D01*
X197848269Y-113867188D01*
X197783012Y-113801931D01*
X197783009Y-113801929D01*
X197783005Y-113801926D01*
X197703093Y-113755788D01*
X197703090Y-113755787D01*
X197703089Y-113755786D01*
X197703088Y-113755786D01*
X197613944Y-113731900D01*
X197521656Y-113731900D01*
X197432512Y-113755786D01*
X197432511Y-113755786D01*
X197432509Y-113755787D01*
X197432506Y-113755788D01*
X197352594Y-113801926D01*
X197352585Y-113801933D01*
X197333938Y-113820581D01*
X197272615Y-113854066D01*
X197246257Y-113856900D01*
X196510366Y-113856900D01*
X196443327Y-113837215D01*
X196397572Y-113784411D01*
X196387628Y-113715253D01*
X196416653Y-113651697D01*
X196422685Y-113645219D01*
X197432086Y-112635819D01*
X197493409Y-112602334D01*
X197519767Y-112599500D01*
X197546142Y-112599500D01*
X197546144Y-112599500D01*
X197635288Y-112575614D01*
X197715212Y-112529469D01*
X197780469Y-112464212D01*
X197780471Y-112464207D01*
X197781386Y-112463017D01*
X197782416Y-112462264D01*
X197786216Y-112458465D01*
X197786808Y-112459057D01*
X197837814Y-112421815D01*
X197907560Y-112417660D01*
X197967442Y-112450823D01*
X198019388Y-112502769D01*
X198019391Y-112502770D01*
X198019394Y-112502773D01*
X198099306Y-112548911D01*
X198099307Y-112548911D01*
X198099312Y-112548914D01*
X198188456Y-112572800D01*
X198188458Y-112572800D01*
X198280742Y-112572800D01*
X198280744Y-112572800D01*
X198369888Y-112548914D01*
X198449812Y-112502769D01*
X198515069Y-112437512D01*
X198561214Y-112357588D01*
X198585100Y-112268444D01*
X198585100Y-112176156D01*
X198561214Y-112087012D01*
X198547996Y-112064118D01*
X198515073Y-112007094D01*
X198515070Y-112007091D01*
X198515069Y-112007088D01*
X198449812Y-111941831D01*
X198449809Y-111941829D01*
X198449805Y-111941826D01*
X198369893Y-111895688D01*
X198369890Y-111895687D01*
X198369889Y-111895686D01*
X198369888Y-111895686D01*
X198280744Y-111871800D01*
X198280743Y-111871800D01*
X198254367Y-111871800D01*
X198224926Y-111863155D01*
X198194940Y-111856632D01*
X198189924Y-111852877D01*
X198187328Y-111852115D01*
X198166686Y-111835481D01*
X198042810Y-111711605D01*
X198025370Y-111694164D01*
X197961936Y-111630730D01*
X197961935Y-111630729D01*
X197937657Y-111620672D01*
X197937657Y-111620671D01*
X197879058Y-111596400D01*
X197879056Y-111596399D01*
X197879055Y-111596399D01*
X197789345Y-111596399D01*
X197774911Y-111596399D01*
X197774903Y-111596400D01*
X196741997Y-111596400D01*
X196741989Y-111596399D01*
X196727555Y-111596399D01*
X196637846Y-111596399D01*
X196637844Y-111596399D01*
X196637842Y-111596400D01*
X196589294Y-111616509D01*
X196554965Y-111630728D01*
X196523699Y-111661995D01*
X196491530Y-111694164D01*
X196491529Y-111694165D01*
X195993050Y-112192645D01*
X195518314Y-112667381D01*
X195456991Y-112700866D01*
X195430633Y-112703700D01*
X194714567Y-112703700D01*
X194647528Y-112684015D01*
X194601773Y-112631211D01*
X194591829Y-112562053D01*
X194620854Y-112498497D01*
X194626886Y-112492019D01*
X195452563Y-111666342D01*
X197671060Y-109447844D01*
X203850000Y-109447844D01*
X203856401Y-109507372D01*
X203856403Y-109507379D01*
X203906645Y-109642086D01*
X203906649Y-109642093D01*
X203992809Y-109757187D01*
X203992812Y-109757190D01*
X204107906Y-109843350D01*
X204107913Y-109843354D01*
X204242620Y-109893596D01*
X204242627Y-109893598D01*
X204302155Y-109899999D01*
X204302172Y-109900000D01*
X204900000Y-109900000D01*
X205400000Y-109900000D01*
X205997828Y-109900000D01*
X205997844Y-109899999D01*
X206057372Y-109893598D01*
X206057379Y-109893596D01*
X206192086Y-109843354D01*
X206192093Y-109843350D01*
X206307187Y-109757190D01*
X206307190Y-109757187D01*
X206393350Y-109642093D01*
X206393354Y-109642086D01*
X206443596Y-109507379D01*
X206443598Y-109507372D01*
X206449999Y-109447844D01*
X206450000Y-109447827D01*
X206450000Y-109250000D01*
X205400000Y-109250000D01*
X205400000Y-109900000D01*
X204900000Y-109900000D01*
X204900000Y-109250000D01*
X203850000Y-109250000D01*
X203850000Y-109447844D01*
X197671060Y-109447844D01*
X199602734Y-107516170D01*
X199602736Y-107516170D01*
X199666170Y-107452736D01*
X199668542Y-107447008D01*
X199680923Y-107434135D01*
X199702091Y-107422033D01*
X199720805Y-107406393D01*
X199731887Y-107405000D01*
X199741581Y-107399459D01*
X199765933Y-107400723D01*
X199790130Y-107397683D01*
X199800203Y-107402502D01*
X199811356Y-107403081D01*
X199831159Y-107417311D01*
X199853159Y-107427835D01*
X199859028Y-107437335D01*
X199868097Y-107443852D01*
X199877064Y-107466532D01*
X199889880Y-107487277D01*
X199892263Y-107504972D01*
X199893788Y-107508827D01*
X199893191Y-107511854D01*
X199894300Y-107520087D01*
X199894300Y-108467342D01*
X199894299Y-108467356D01*
X199894299Y-108567053D01*
X199894300Y-108567058D01*
X199918572Y-108625657D01*
X199928630Y-108649937D01*
X199971980Y-108693286D01*
X200005466Y-108754609D01*
X200008300Y-108780968D01*
X200008300Y-108807344D01*
X200027964Y-108880733D01*
X200032187Y-108896490D01*
X200032188Y-108896493D01*
X200078326Y-108976405D01*
X200078329Y-108976409D01*
X200078331Y-108976412D01*
X200143588Y-109041669D01*
X200143591Y-109041670D01*
X200143594Y-109041673D01*
X200223506Y-109087811D01*
X200223507Y-109087811D01*
X200223512Y-109087814D01*
X200312656Y-109111700D01*
X200312658Y-109111700D01*
X200404942Y-109111700D01*
X200404944Y-109111700D01*
X200494088Y-109087814D01*
X200574012Y-109041669D01*
X200639269Y-108976412D01*
X200685414Y-108896488D01*
X200709300Y-108807344D01*
X200709300Y-108715056D01*
X200686565Y-108630207D01*
X200688228Y-108560360D01*
X200727391Y-108502497D01*
X200744335Y-108490732D01*
X200762112Y-108480469D01*
X200827369Y-108415212D01*
X200873514Y-108335288D01*
X200897400Y-108246144D01*
X200897400Y-108153856D01*
X200873514Y-108064712D01*
X200862267Y-108045232D01*
X200827373Y-107984794D01*
X200827371Y-107984791D01*
X200827369Y-107984788D01*
X200818082Y-107975501D01*
X200784718Y-107942136D01*
X200751234Y-107880813D01*
X200748400Y-107854456D01*
X200748400Y-106816756D01*
X202394200Y-106816756D01*
X202394200Y-106909044D01*
X202407511Y-106958722D01*
X202418087Y-106998190D01*
X202418088Y-106998193D01*
X202464226Y-107078105D01*
X202464229Y-107078109D01*
X202464231Y-107078112D01*
X202529488Y-107143369D01*
X202529491Y-107143370D01*
X202529494Y-107143373D01*
X202609406Y-107189511D01*
X202609407Y-107189511D01*
X202609412Y-107189514D01*
X202698556Y-107213400D01*
X202698558Y-107213400D01*
X202790842Y-107213400D01*
X202790844Y-107213400D01*
X202879988Y-107189514D01*
X202959912Y-107143369D01*
X203025169Y-107078112D01*
X203071314Y-106998188D01*
X203095200Y-106909044D01*
X203095200Y-106816756D01*
X203071314Y-106727612D01*
X203071311Y-106727606D01*
X203025173Y-106647694D01*
X203025170Y-106647691D01*
X203025169Y-106647688D01*
X202959912Y-106582431D01*
X202959909Y-106582429D01*
X202959905Y-106582426D01*
X202879993Y-106536288D01*
X202879990Y-106536287D01*
X202879989Y-106536286D01*
X202879988Y-106536286D01*
X202790844Y-106512400D01*
X202698556Y-106512400D01*
X202609412Y-106536286D01*
X202609411Y-106536286D01*
X202609409Y-106536287D01*
X202609406Y-106536288D01*
X202529494Y-106582426D01*
X202529485Y-106582433D01*
X202464233Y-106647685D01*
X202464226Y-106647694D01*
X202418088Y-106727606D01*
X202418087Y-106727609D01*
X202418086Y-106727611D01*
X202418086Y-106727612D01*
X202394200Y-106816756D01*
X200748400Y-106816756D01*
X200748400Y-105274500D01*
X200768085Y-105207461D01*
X200820889Y-105161706D01*
X200872400Y-105150500D01*
X203764822Y-105150500D01*
X203808717Y-105141768D01*
X203808717Y-105141767D01*
X203808722Y-105141767D01*
X203858504Y-105108504D01*
X203891767Y-105058722D01*
X203891768Y-105058717D01*
X203900500Y-105014822D01*
X203900500Y-102885177D01*
X203891768Y-102841282D01*
X203891767Y-102841281D01*
X203891767Y-102841278D01*
X203858504Y-102791496D01*
X203851916Y-102787094D01*
X203808724Y-102758234D01*
X203808717Y-102758231D01*
X203764822Y-102749500D01*
X203764820Y-102749500D01*
X200872400Y-102749500D01*
X200805361Y-102729815D01*
X200759606Y-102677011D01*
X200748400Y-102625500D01*
X200748400Y-95131366D01*
X200768085Y-95064327D01*
X200784714Y-95043690D01*
X202102734Y-93725670D01*
X202102736Y-93725670D01*
X202166170Y-93662236D01*
X202179133Y-93630938D01*
X202191492Y-93616259D01*
X202205262Y-93607129D01*
X202215629Y-93594265D01*
X202233780Y-93588223D01*
X202249726Y-93577652D01*
X202266246Y-93577416D01*
X202281923Y-93572199D01*
X202286351Y-93572120D01*
X202389822Y-93572120D01*
X202433717Y-93563388D01*
X202433717Y-93563387D01*
X202433722Y-93563387D01*
X202483504Y-93530124D01*
X202516767Y-93480342D01*
X202518431Y-93471979D01*
X202525500Y-93436442D01*
X202525500Y-91806797D01*
X202516768Y-91762902D01*
X202516767Y-91762901D01*
X202516767Y-91762898D01*
X202483504Y-91713116D01*
X202483503Y-91713115D01*
X202433724Y-91679854D01*
X202433717Y-91679851D01*
X202389822Y-91671120D01*
X202389820Y-91671120D01*
X201560180Y-91671120D01*
X201560178Y-91671120D01*
X201516282Y-91679851D01*
X201516275Y-91679854D01*
X201466496Y-91713115D01*
X201453102Y-91733162D01*
X201399490Y-91777967D01*
X201330165Y-91786674D01*
X201267138Y-91756520D01*
X201246898Y-91733162D01*
X201233504Y-91713116D01*
X201233503Y-91713115D01*
X201183724Y-91679854D01*
X201183717Y-91679851D01*
X201139822Y-91671120D01*
X201139820Y-91671120D01*
X200310180Y-91671120D01*
X200310178Y-91671120D01*
X200266282Y-91679851D01*
X200266275Y-91679854D01*
X200216496Y-91713115D01*
X200203102Y-91733162D01*
X200149490Y-91777967D01*
X200080165Y-91786674D01*
X200017138Y-91756520D01*
X199996898Y-91733162D01*
X199983504Y-91713116D01*
X199983503Y-91713115D01*
X199933724Y-91679854D01*
X199933717Y-91679851D01*
X199889822Y-91671120D01*
X199889820Y-91671120D01*
X199060180Y-91671120D01*
X199060178Y-91671120D01*
X199016282Y-91679851D01*
X199016275Y-91679854D01*
X198966496Y-91713115D01*
X198953102Y-91733162D01*
X198899490Y-91777967D01*
X198830165Y-91786674D01*
X198767138Y-91756520D01*
X198746898Y-91733162D01*
X198733504Y-91713116D01*
X198733503Y-91713115D01*
X198683724Y-91679854D01*
X198683717Y-91679851D01*
X198639822Y-91671120D01*
X198639820Y-91671120D01*
X197810180Y-91671120D01*
X197810178Y-91671120D01*
X197766282Y-91679851D01*
X197766275Y-91679854D01*
X197716496Y-91713115D01*
X197703102Y-91733162D01*
X197649490Y-91777967D01*
X197580165Y-91786674D01*
X197517138Y-91756520D01*
X197496898Y-91733162D01*
X197483504Y-91713116D01*
X197483503Y-91713115D01*
X197433724Y-91679854D01*
X197433717Y-91679851D01*
X197389822Y-91671120D01*
X197389820Y-91671120D01*
X196560180Y-91671120D01*
X196560178Y-91671120D01*
X196516282Y-91679851D01*
X196516275Y-91679854D01*
X196466496Y-91713115D01*
X196453102Y-91733162D01*
X196399490Y-91777967D01*
X196330165Y-91786674D01*
X196267138Y-91756520D01*
X196246898Y-91733162D01*
X196233504Y-91713116D01*
X196233503Y-91713115D01*
X196183724Y-91679854D01*
X196183717Y-91679851D01*
X196139822Y-91671120D01*
X196139820Y-91671120D01*
X195310180Y-91671120D01*
X195310178Y-91671120D01*
X195266282Y-91679851D01*
X195266275Y-91679854D01*
X195216496Y-91713115D01*
X195203102Y-91733162D01*
X195149490Y-91777967D01*
X195080165Y-91786674D01*
X195017138Y-91756520D01*
X194996898Y-91733162D01*
X194983504Y-91713116D01*
X194983503Y-91713115D01*
X194933724Y-91679854D01*
X194933717Y-91679851D01*
X194889822Y-91671120D01*
X194889820Y-91671120D01*
X194786037Y-91671120D01*
X194766857Y-91665488D01*
X194746881Y-91664775D01*
X194734020Y-91655845D01*
X194718998Y-91651435D01*
X194705908Y-91636329D01*
X194689487Y-91624928D01*
X194675275Y-91600976D01*
X194673243Y-91598631D01*
X194671477Y-91594575D01*
X194666171Y-91581766D01*
X194666170Y-91581765D01*
X194666169Y-91581763D01*
X194595671Y-91511265D01*
X194595664Y-91511259D01*
X192735419Y-89651014D01*
X192720715Y-89624086D01*
X192704123Y-89598268D01*
X192703231Y-89592067D01*
X192701934Y-89589691D01*
X192699100Y-89563333D01*
X192699100Y-89509979D01*
X192718785Y-89442940D01*
X192771589Y-89397185D01*
X192840747Y-89387241D01*
X192855181Y-89390202D01*
X192905556Y-89403700D01*
X192905558Y-89403700D01*
X192997842Y-89403700D01*
X192997844Y-89403700D01*
X193086988Y-89379814D01*
X193166912Y-89333669D01*
X193232169Y-89268412D01*
X193278314Y-89188488D01*
X193302200Y-89099344D01*
X193302200Y-89007056D01*
X193278314Y-88917912D01*
X193278311Y-88917906D01*
X193232173Y-88837994D01*
X193232170Y-88837991D01*
X193232169Y-88837988D01*
X193213519Y-88819338D01*
X193180034Y-88758015D01*
X193177200Y-88731657D01*
X193177200Y-86727146D01*
X193177198Y-86727141D01*
X193174843Y-86721456D01*
X193169421Y-86708365D01*
X193142872Y-86644266D01*
X192838220Y-86339614D01*
X192823515Y-86312685D01*
X192806925Y-86286870D01*
X192806033Y-86280668D01*
X192804735Y-86278291D01*
X192801901Y-86251936D01*
X192801901Y-86246163D01*
X192801901Y-86214645D01*
X192801900Y-86214642D01*
X192801900Y-83388843D01*
X192821585Y-83321804D01*
X192838219Y-83301162D01*
X192856869Y-83282512D01*
X192903014Y-83202588D01*
X192926900Y-83113444D01*
X192926900Y-83021156D01*
X192903014Y-82932012D01*
X192903011Y-82932006D01*
X192856873Y-82852094D01*
X192856870Y-82852091D01*
X192856869Y-82852088D01*
X192791612Y-82786831D01*
X192791609Y-82786829D01*
X192791605Y-82786826D01*
X192711693Y-82740688D01*
X192711690Y-82740687D01*
X192711689Y-82740686D01*
X192711688Y-82740686D01*
X192622544Y-82716800D01*
X192530256Y-82716800D01*
X192441112Y-82740686D01*
X192441111Y-82740686D01*
X192441109Y-82740687D01*
X192441106Y-82740688D01*
X192361194Y-82786826D01*
X192361185Y-82786833D01*
X192295933Y-82852085D01*
X192295926Y-82852094D01*
X192249788Y-82932006D01*
X192249787Y-82932009D01*
X192249786Y-82932011D01*
X192249786Y-82932012D01*
X192225900Y-83021156D01*
X192225900Y-83113444D01*
X192247695Y-83194786D01*
X192249787Y-83202590D01*
X192249788Y-83202593D01*
X192295926Y-83282505D01*
X192295933Y-83282514D01*
X192314581Y-83301162D01*
X192348066Y-83362485D01*
X192350900Y-83388843D01*
X192350900Y-85552932D01*
X192331215Y-85619971D01*
X192278411Y-85665726D01*
X192209253Y-85675670D01*
X192145697Y-85646645D01*
X192139219Y-85640613D01*
X191845511Y-85346906D01*
X191828070Y-85329465D01*
X191828070Y-85329464D01*
X191764636Y-85266030D01*
X191764634Y-85266029D01*
X191321519Y-84822914D01*
X191288034Y-84761591D01*
X191285200Y-84735233D01*
X191285200Y-84708858D01*
X191285200Y-84708856D01*
X191261314Y-84619712D01*
X191261311Y-84619706D01*
X191215173Y-84539794D01*
X191215170Y-84539791D01*
X191215169Y-84539788D01*
X191149912Y-84474531D01*
X191149909Y-84474529D01*
X191149905Y-84474526D01*
X191069993Y-84428388D01*
X191069990Y-84428387D01*
X191069989Y-84428386D01*
X191069988Y-84428386D01*
X190980844Y-84404500D01*
X190888556Y-84404500D01*
X190799412Y-84428386D01*
X190799411Y-84428386D01*
X190799409Y-84428387D01*
X190799406Y-84428388D01*
X190719494Y-84474526D01*
X190719485Y-84474533D01*
X190654233Y-84539785D01*
X190654226Y-84539794D01*
X190608088Y-84619706D01*
X190608087Y-84619709D01*
X190608086Y-84619711D01*
X190608086Y-84619712D01*
X190584200Y-84708856D01*
X190584200Y-84801144D01*
X190590033Y-84822914D01*
X190608087Y-84890290D01*
X190608088Y-84890293D01*
X190654226Y-84970205D01*
X190654233Y-84970214D01*
X190704038Y-85020019D01*
X190737523Y-85081342D01*
X190732539Y-85151034D01*
X190690667Y-85206967D01*
X190625203Y-85231384D01*
X190616357Y-85231700D01*
X189887584Y-85231700D01*
X189820545Y-85212015D01*
X189774790Y-85159211D01*
X189764846Y-85090053D01*
X189793871Y-85026497D01*
X189799903Y-85020019D01*
X189902136Y-84917785D01*
X189902139Y-84917782D01*
X190011632Y-84753914D01*
X190087051Y-84571835D01*
X190115585Y-84428386D01*
X190125500Y-84378543D01*
X190125500Y-84181456D01*
X190087052Y-83988170D01*
X190087051Y-83988169D01*
X190087051Y-83988165D01*
X190038893Y-83871900D01*
X190011635Y-83806092D01*
X190011628Y-83806079D01*
X189902139Y-83642218D01*
X189902136Y-83642214D01*
X189762785Y-83502863D01*
X189762781Y-83502860D01*
X189598920Y-83393371D01*
X189598907Y-83393364D01*
X189416839Y-83317950D01*
X189416829Y-83317947D01*
X189223543Y-83279500D01*
X189223541Y-83279500D01*
X189026459Y-83279500D01*
X189026457Y-83279500D01*
X188833170Y-83317947D01*
X188833160Y-83317950D01*
X188651092Y-83393364D01*
X188651079Y-83393371D01*
X188487218Y-83502860D01*
X188487214Y-83502863D01*
X188347863Y-83642214D01*
X188347860Y-83642218D01*
X188238371Y-83806079D01*
X188238364Y-83806092D01*
X188162950Y-83988160D01*
X188162947Y-83988170D01*
X188124500Y-84181456D01*
X188124500Y-84181459D01*
X188124500Y-84378541D01*
X188124500Y-84378543D01*
X188124499Y-84378543D01*
X188162947Y-84571829D01*
X188162950Y-84571839D01*
X188238364Y-84753907D01*
X188238371Y-84753920D01*
X188347860Y-84917781D01*
X188347863Y-84917785D01*
X188487214Y-85057136D01*
X188487218Y-85057139D01*
X188651079Y-85166628D01*
X188651092Y-85166635D01*
X188681282Y-85179140D01*
X188735686Y-85222981D01*
X188757751Y-85289275D01*
X188740472Y-85356974D01*
X188721511Y-85381382D01*
X187920165Y-86182729D01*
X187856730Y-86246163D01*
X187856730Y-86246165D01*
X187822399Y-86329044D01*
X187822399Y-86433188D01*
X187822400Y-86433197D01*
X187822400Y-97680542D01*
X187822399Y-97680556D01*
X187822399Y-97780253D01*
X187822400Y-97780258D01*
X187846672Y-97838857D01*
X187856729Y-97863135D01*
X187856730Y-97863136D01*
X187920164Y-97926570D01*
X187920165Y-97926570D01*
X188996329Y-99002734D01*
X188996330Y-99002736D01*
X189059764Y-99066170D01*
X189090270Y-99078805D01*
X189104692Y-99090775D01*
X189114156Y-99104835D01*
X189127353Y-99115469D01*
X189133261Y-99133217D01*
X189143707Y-99148736D01*
X189144067Y-99165679D01*
X189149421Y-99181762D01*
X189149500Y-99186193D01*
X189149500Y-99289820D01*
X189149500Y-99289822D01*
X189149499Y-99289822D01*
X189158231Y-99333717D01*
X189158234Y-99333724D01*
X189182186Y-99369571D01*
X189191496Y-99383504D01*
X189211542Y-99396898D01*
X189256347Y-99450510D01*
X189265054Y-99519835D01*
X189234900Y-99582862D01*
X189211543Y-99603101D01*
X189206911Y-99606195D01*
X189191495Y-99616496D01*
X189158234Y-99666275D01*
X189158231Y-99666282D01*
X189149500Y-99710177D01*
X189149500Y-99813805D01*
X189129815Y-99880844D01*
X189104106Y-99909706D01*
X189089908Y-99921343D01*
X189059764Y-99933830D01*
X188996330Y-99997264D01*
X188996329Y-99997265D01*
X188992001Y-100001592D01*
X188991996Y-100001597D01*
X188277530Y-100716063D01*
X188277530Y-100716065D01*
X188243199Y-100798944D01*
X188243199Y-100903088D01*
X188243200Y-100903097D01*
X188243200Y-110507851D01*
X188223515Y-110574890D01*
X188170711Y-110620645D01*
X188101553Y-110630589D01*
X188057200Y-110615238D01*
X188049490Y-110610787D01*
X188049489Y-110610786D01*
X188049488Y-110610786D01*
X187960344Y-110586900D01*
X187868056Y-110586900D01*
X187778912Y-110610786D01*
X187778911Y-110610786D01*
X187778909Y-110610787D01*
X187778906Y-110610788D01*
X187698994Y-110656926D01*
X187698985Y-110656933D01*
X187633733Y-110722185D01*
X187633726Y-110722194D01*
X187587588Y-110802106D01*
X187587587Y-110802109D01*
X187587586Y-110802111D01*
X187587586Y-110802112D01*
X187563700Y-110891256D01*
X187125500Y-110891256D01*
X187125500Y-78302155D01*
X187775000Y-78302155D01*
X187775000Y-78950000D01*
X188691988Y-78950000D01*
X188659075Y-79007007D01*
X188625000Y-79134174D01*
X188625000Y-79265826D01*
X188659075Y-79392993D01*
X188691988Y-79450000D01*
X187775000Y-79450000D01*
X187775000Y-80097844D01*
X187781401Y-80157372D01*
X187781403Y-80157379D01*
X187831645Y-80292086D01*
X187831649Y-80292093D01*
X187917809Y-80407187D01*
X187917812Y-80407190D01*
X188032906Y-80493350D01*
X188032913Y-80493354D01*
X188167620Y-80543596D01*
X188167627Y-80543598D01*
X188227155Y-80549999D01*
X188227172Y-80550000D01*
X188760092Y-80550000D01*
X188827131Y-80569685D01*
X188872886Y-80622489D01*
X188882830Y-80691647D01*
X188853805Y-80755203D01*
X188807544Y-80788561D01*
X188651092Y-80853364D01*
X188651079Y-80853371D01*
X188487218Y-80962860D01*
X188487214Y-80962863D01*
X188347863Y-81102214D01*
X188347860Y-81102218D01*
X188238371Y-81266079D01*
X188238364Y-81266092D01*
X188162950Y-81448160D01*
X188162947Y-81448170D01*
X188124500Y-81641456D01*
X188124500Y-81641459D01*
X188124500Y-81838541D01*
X188124500Y-81838543D01*
X188124499Y-81838543D01*
X188162947Y-82031829D01*
X188162950Y-82031839D01*
X188238364Y-82213907D01*
X188238371Y-82213920D01*
X188347860Y-82377781D01*
X188347863Y-82377785D01*
X188487214Y-82517136D01*
X188487218Y-82517139D01*
X188651079Y-82626628D01*
X188651092Y-82626635D01*
X188833160Y-82702049D01*
X188833165Y-82702051D01*
X188833169Y-82702051D01*
X188833170Y-82702052D01*
X189026456Y-82740500D01*
X189026459Y-82740500D01*
X189223543Y-82740500D01*
X189353582Y-82714632D01*
X189416835Y-82702051D01*
X189598914Y-82626632D01*
X189762782Y-82517139D01*
X189902139Y-82377782D01*
X190011632Y-82213914D01*
X190087051Y-82031835D01*
X190125500Y-81838541D01*
X190125500Y-81641459D01*
X190125500Y-81641456D01*
X190087052Y-81448170D01*
X190087051Y-81448169D01*
X190087051Y-81448165D01*
X190071404Y-81410389D01*
X190011635Y-81266092D01*
X190011628Y-81266079D01*
X189902139Y-81102218D01*
X189902136Y-81102214D01*
X189762785Y-80962863D01*
X189762781Y-80962860D01*
X189598920Y-80853371D01*
X189598907Y-80853364D01*
X189442456Y-80788561D01*
X189388052Y-80744720D01*
X189365987Y-80678426D01*
X189383266Y-80610727D01*
X189434403Y-80563116D01*
X189489908Y-80550000D01*
X190022828Y-80550000D01*
X190022844Y-80549999D01*
X190082372Y-80543598D01*
X190082379Y-80543596D01*
X190217086Y-80493354D01*
X190217093Y-80493350D01*
X190332187Y-80407190D01*
X190332190Y-80407187D01*
X190418350Y-80292093D01*
X190418354Y-80292086D01*
X190468596Y-80157379D01*
X190468598Y-80157372D01*
X190474999Y-80097844D01*
X190475000Y-80097827D01*
X190475000Y-79450000D01*
X189558012Y-79450000D01*
X189590925Y-79392993D01*
X189625000Y-79265826D01*
X189625000Y-79134174D01*
X189590925Y-79007007D01*
X189558012Y-78950000D01*
X190475000Y-78950000D01*
X190475000Y-78302172D01*
X190474999Y-78302155D01*
X190468598Y-78242627D01*
X190468596Y-78242620D01*
X190418354Y-78107913D01*
X190418350Y-78107906D01*
X190332190Y-77992812D01*
X190332187Y-77992809D01*
X190217093Y-77906649D01*
X190217086Y-77906645D01*
X190082379Y-77856403D01*
X190082372Y-77856401D01*
X190022844Y-77850000D01*
X189375000Y-77850000D01*
X189375000Y-78766988D01*
X189317993Y-78734075D01*
X189190826Y-78700000D01*
X189059174Y-78700000D01*
X188932007Y-78734075D01*
X188875000Y-78766988D01*
X188875000Y-77850000D01*
X188227155Y-77850000D01*
X188167627Y-77856401D01*
X188167620Y-77856403D01*
X188032913Y-77906645D01*
X188032906Y-77906649D01*
X187917812Y-77992809D01*
X187917809Y-77992812D01*
X187831649Y-78107906D01*
X187831645Y-78107913D01*
X187781403Y-78242620D01*
X187781401Y-78242627D01*
X187775000Y-78302155D01*
X187125500Y-78302155D01*
X187125500Y-78255411D01*
X187125972Y-78244605D01*
X187126146Y-78242620D01*
X187138760Y-78098430D01*
X187140664Y-78085097D01*
X187146503Y-78055739D01*
X187148330Y-78047903D01*
X187181779Y-77923068D01*
X187186990Y-77907721D01*
X187194010Y-77890773D01*
X187196161Y-77885881D01*
X187254825Y-77760076D01*
X187265629Y-77741366D01*
X187353119Y-77616417D01*
X187367007Y-77599865D01*
X187474865Y-77492007D01*
X187491417Y-77478119D01*
X187616366Y-77390629D01*
X187635076Y-77379825D01*
X187760881Y-77321161D01*
X187765773Y-77319010D01*
X187765776Y-77319009D01*
X187782721Y-77311990D01*
X187798068Y-77306779D01*
X187922903Y-77273330D01*
X187930739Y-77271503D01*
X187960097Y-77265664D01*
X187973430Y-77263760D01*
X188112871Y-77251561D01*
X188119606Y-77250972D01*
X188130412Y-77250500D01*
X193875500Y-77250500D01*
X193942539Y-77270185D01*
G37*
%TD.AperFunction*%
%TD*%
M02*
