%TF.GenerationSoftware,KiCad,Pcbnew,9.0.0*%
%TF.CreationDate,2025-03-14T22:24:00-04:00*%
%TF.ProjectId,teensy,7465656e-7379-42e6-9b69-6361645f7063,rev?*%
%TF.SameCoordinates,Original*%
%TF.FileFunction,AssemblyDrawing,Bot*%
%FSLAX46Y46*%
G04 Gerber Fmt 4.6, Leading zero omitted, Abs format (unit mm)*
G04 Created by KiCad (PCBNEW 9.0.0) date 2025-03-14 22:24:00*
%MOMM*%
%LPD*%
G01*
G04 APERTURE LIST*
%ADD10C,0.150000*%
%ADD11C,0.135000*%
%ADD12C,0.100000*%
G04 APERTURE END LIST*
D10*
X143109580Y-99352381D02*
X143157200Y-99400000D01*
X143157200Y-99400000D02*
X143204819Y-99352381D01*
X143204819Y-99352381D02*
X143157200Y-99304762D01*
X143157200Y-99304762D02*
X143109580Y-99352381D01*
X143109580Y-99352381D02*
X143204819Y-99352381D01*
X142252438Y-99161905D02*
X142204819Y-99257143D01*
X142204819Y-99257143D02*
X142204819Y-99495238D01*
X142204819Y-99495238D02*
X142252438Y-99590476D01*
X142252438Y-99590476D02*
X142347676Y-99638095D01*
X142347676Y-99638095D02*
X142442914Y-99638095D01*
X142442914Y-99638095D02*
X142538152Y-99590476D01*
X142538152Y-99590476D02*
X142585771Y-99542857D01*
X142585771Y-99542857D02*
X142633390Y-99447619D01*
X142633390Y-99447619D02*
X142681009Y-99400000D01*
X142681009Y-99400000D02*
X142776247Y-99352381D01*
X142776247Y-99352381D02*
X142823866Y-99352381D01*
D11*
X144509337Y-98285714D02*
X145237908Y-98285714D01*
X145237908Y-98285714D02*
X145323622Y-98328571D01*
X145323622Y-98328571D02*
X145366480Y-98371429D01*
X145366480Y-98371429D02*
X145409337Y-98457143D01*
X145409337Y-98457143D02*
X145409337Y-98628571D01*
X145409337Y-98628571D02*
X145366480Y-98714286D01*
X145366480Y-98714286D02*
X145323622Y-98757143D01*
X145323622Y-98757143D02*
X145237908Y-98800000D01*
X145237908Y-98800000D02*
X144509337Y-98800000D01*
X144595051Y-99185714D02*
X144552194Y-99228571D01*
X144552194Y-99228571D02*
X144509337Y-99314286D01*
X144509337Y-99314286D02*
X144509337Y-99528571D01*
X144509337Y-99528571D02*
X144552194Y-99614286D01*
X144552194Y-99614286D02*
X144595051Y-99657143D01*
X144595051Y-99657143D02*
X144680765Y-99700000D01*
X144680765Y-99700000D02*
X144766480Y-99700000D01*
X144766480Y-99700000D02*
X144895051Y-99657143D01*
X144895051Y-99657143D02*
X145409337Y-99142857D01*
X145409337Y-99142857D02*
X145409337Y-99700000D01*
X144509337Y-100514286D02*
X144509337Y-100085714D01*
X144509337Y-100085714D02*
X144937908Y-100042857D01*
X144937908Y-100042857D02*
X144895051Y-100085714D01*
X144895051Y-100085714D02*
X144852194Y-100171429D01*
X144852194Y-100171429D02*
X144852194Y-100385714D01*
X144852194Y-100385714D02*
X144895051Y-100471429D01*
X144895051Y-100471429D02*
X144937908Y-100514286D01*
X144937908Y-100514286D02*
X145023622Y-100557143D01*
X145023622Y-100557143D02*
X145237908Y-100557143D01*
X145237908Y-100557143D02*
X145323622Y-100514286D01*
X145323622Y-100514286D02*
X145366480Y-100471429D01*
X145366480Y-100471429D02*
X145409337Y-100385714D01*
X145409337Y-100385714D02*
X145409337Y-100171429D01*
X145409337Y-100171429D02*
X145366480Y-100085714D01*
X145366480Y-100085714D02*
X145323622Y-100042857D01*
X144959337Y-100759643D02*
X144959337Y-98083214D01*
D10*
X159599580Y-99522381D02*
X159647200Y-99570000D01*
X159647200Y-99570000D02*
X159694819Y-99522381D01*
X159694819Y-99522381D02*
X159647200Y-99474762D01*
X159647200Y-99474762D02*
X159599580Y-99522381D01*
X159599580Y-99522381D02*
X159694819Y-99522381D01*
X158742438Y-99331905D02*
X158694819Y-99427143D01*
X158694819Y-99427143D02*
X158694819Y-99665238D01*
X158694819Y-99665238D02*
X158742438Y-99760476D01*
X158742438Y-99760476D02*
X158837676Y-99808095D01*
X158837676Y-99808095D02*
X158932914Y-99808095D01*
X158932914Y-99808095D02*
X159028152Y-99760476D01*
X159028152Y-99760476D02*
X159075771Y-99712857D01*
X159075771Y-99712857D02*
X159123390Y-99617619D01*
X159123390Y-99617619D02*
X159171009Y-99570000D01*
X159171009Y-99570000D02*
X159266247Y-99522381D01*
X159266247Y-99522381D02*
X159313866Y-99522381D01*
D11*
X160999337Y-98455714D02*
X161727908Y-98455714D01*
X161727908Y-98455714D02*
X161813622Y-98498571D01*
X161813622Y-98498571D02*
X161856480Y-98541429D01*
X161856480Y-98541429D02*
X161899337Y-98627143D01*
X161899337Y-98627143D02*
X161899337Y-98798571D01*
X161899337Y-98798571D02*
X161856480Y-98884286D01*
X161856480Y-98884286D02*
X161813622Y-98927143D01*
X161813622Y-98927143D02*
X161727908Y-98970000D01*
X161727908Y-98970000D02*
X160999337Y-98970000D01*
X161085051Y-99355714D02*
X161042194Y-99398571D01*
X161042194Y-99398571D02*
X160999337Y-99484286D01*
X160999337Y-99484286D02*
X160999337Y-99698571D01*
X160999337Y-99698571D02*
X161042194Y-99784286D01*
X161042194Y-99784286D02*
X161085051Y-99827143D01*
X161085051Y-99827143D02*
X161170765Y-99870000D01*
X161170765Y-99870000D02*
X161256480Y-99870000D01*
X161256480Y-99870000D02*
X161385051Y-99827143D01*
X161385051Y-99827143D02*
X161899337Y-99312857D01*
X161899337Y-99312857D02*
X161899337Y-99870000D01*
X161899337Y-100727143D02*
X161899337Y-100212857D01*
X161899337Y-100470000D02*
X160999337Y-100470000D01*
X160999337Y-100470000D02*
X161127908Y-100384286D01*
X161127908Y-100384286D02*
X161213622Y-100298571D01*
X161213622Y-100298571D02*
X161256480Y-100212857D01*
D10*
X153219580Y-99522381D02*
X153267200Y-99570000D01*
X153267200Y-99570000D02*
X153314819Y-99522381D01*
X153314819Y-99522381D02*
X153267200Y-99474762D01*
X153267200Y-99474762D02*
X153219580Y-99522381D01*
X153219580Y-99522381D02*
X153314819Y-99522381D01*
X152362438Y-99331905D02*
X152314819Y-99427143D01*
X152314819Y-99427143D02*
X152314819Y-99665238D01*
X152314819Y-99665238D02*
X152362438Y-99760476D01*
X152362438Y-99760476D02*
X152457676Y-99808095D01*
X152457676Y-99808095D02*
X152552914Y-99808095D01*
X152552914Y-99808095D02*
X152648152Y-99760476D01*
X152648152Y-99760476D02*
X152695771Y-99712857D01*
X152695771Y-99712857D02*
X152743390Y-99617619D01*
X152743390Y-99617619D02*
X152791009Y-99570000D01*
X152791009Y-99570000D02*
X152886247Y-99522381D01*
X152886247Y-99522381D02*
X152933866Y-99522381D01*
D11*
X154619337Y-98455714D02*
X155347908Y-98455714D01*
X155347908Y-98455714D02*
X155433622Y-98498571D01*
X155433622Y-98498571D02*
X155476480Y-98541429D01*
X155476480Y-98541429D02*
X155519337Y-98627143D01*
X155519337Y-98627143D02*
X155519337Y-98798571D01*
X155519337Y-98798571D02*
X155476480Y-98884286D01*
X155476480Y-98884286D02*
X155433622Y-98927143D01*
X155433622Y-98927143D02*
X155347908Y-98970000D01*
X155347908Y-98970000D02*
X154619337Y-98970000D01*
X155519337Y-99870000D02*
X155519337Y-99355714D01*
X155519337Y-99612857D02*
X154619337Y-99612857D01*
X154619337Y-99612857D02*
X154747908Y-99527143D01*
X154747908Y-99527143D02*
X154833622Y-99441428D01*
X154833622Y-99441428D02*
X154876480Y-99355714D01*
X154619337Y-100170000D02*
X154619337Y-100770000D01*
X154619337Y-100770000D02*
X155519337Y-100384286D01*
D10*
X143109580Y-104352381D02*
X143157200Y-104400000D01*
X143157200Y-104400000D02*
X143204819Y-104352381D01*
X143204819Y-104352381D02*
X143157200Y-104304762D01*
X143157200Y-104304762D02*
X143109580Y-104352381D01*
X143109580Y-104352381D02*
X143204819Y-104352381D01*
X142252438Y-104161905D02*
X142204819Y-104257143D01*
X142204819Y-104257143D02*
X142204819Y-104495238D01*
X142204819Y-104495238D02*
X142252438Y-104590476D01*
X142252438Y-104590476D02*
X142347676Y-104638095D01*
X142347676Y-104638095D02*
X142442914Y-104638095D01*
X142442914Y-104638095D02*
X142538152Y-104590476D01*
X142538152Y-104590476D02*
X142585771Y-104542857D01*
X142585771Y-104542857D02*
X142633390Y-104447619D01*
X142633390Y-104447619D02*
X142681009Y-104400000D01*
X142681009Y-104400000D02*
X142776247Y-104352381D01*
X142776247Y-104352381D02*
X142823866Y-104352381D01*
D11*
X144509337Y-103285714D02*
X145237908Y-103285714D01*
X145237908Y-103285714D02*
X145323622Y-103328571D01*
X145323622Y-103328571D02*
X145366480Y-103371429D01*
X145366480Y-103371429D02*
X145409337Y-103457143D01*
X145409337Y-103457143D02*
X145409337Y-103628571D01*
X145409337Y-103628571D02*
X145366480Y-103714286D01*
X145366480Y-103714286D02*
X145323622Y-103757143D01*
X145323622Y-103757143D02*
X145237908Y-103800000D01*
X145237908Y-103800000D02*
X144509337Y-103800000D01*
X144595051Y-104185714D02*
X144552194Y-104228571D01*
X144552194Y-104228571D02*
X144509337Y-104314286D01*
X144509337Y-104314286D02*
X144509337Y-104528571D01*
X144509337Y-104528571D02*
X144552194Y-104614286D01*
X144552194Y-104614286D02*
X144595051Y-104657143D01*
X144595051Y-104657143D02*
X144680765Y-104700000D01*
X144680765Y-104700000D02*
X144766480Y-104700000D01*
X144766480Y-104700000D02*
X144895051Y-104657143D01*
X144895051Y-104657143D02*
X145409337Y-104142857D01*
X145409337Y-104142857D02*
X145409337Y-104700000D01*
X144895051Y-105214286D02*
X144852194Y-105128571D01*
X144852194Y-105128571D02*
X144809337Y-105085714D01*
X144809337Y-105085714D02*
X144723622Y-105042857D01*
X144723622Y-105042857D02*
X144680765Y-105042857D01*
X144680765Y-105042857D02*
X144595051Y-105085714D01*
X144595051Y-105085714D02*
X144552194Y-105128571D01*
X144552194Y-105128571D02*
X144509337Y-105214286D01*
X144509337Y-105214286D02*
X144509337Y-105385714D01*
X144509337Y-105385714D02*
X144552194Y-105471429D01*
X144552194Y-105471429D02*
X144595051Y-105514286D01*
X144595051Y-105514286D02*
X144680765Y-105557143D01*
X144680765Y-105557143D02*
X144723622Y-105557143D01*
X144723622Y-105557143D02*
X144809337Y-105514286D01*
X144809337Y-105514286D02*
X144852194Y-105471429D01*
X144852194Y-105471429D02*
X144895051Y-105385714D01*
X144895051Y-105385714D02*
X144895051Y-105214286D01*
X144895051Y-105214286D02*
X144937908Y-105128571D01*
X144937908Y-105128571D02*
X144980765Y-105085714D01*
X144980765Y-105085714D02*
X145066480Y-105042857D01*
X145066480Y-105042857D02*
X145237908Y-105042857D01*
X145237908Y-105042857D02*
X145323622Y-105085714D01*
X145323622Y-105085714D02*
X145366480Y-105128571D01*
X145366480Y-105128571D02*
X145409337Y-105214286D01*
X145409337Y-105214286D02*
X145409337Y-105385714D01*
X145409337Y-105385714D02*
X145366480Y-105471429D01*
X145366480Y-105471429D02*
X145323622Y-105514286D01*
X145323622Y-105514286D02*
X145237908Y-105557143D01*
X145237908Y-105557143D02*
X145066480Y-105557143D01*
X145066480Y-105557143D02*
X144980765Y-105514286D01*
X144980765Y-105514286D02*
X144937908Y-105471429D01*
X144937908Y-105471429D02*
X144895051Y-105385714D01*
X144959337Y-105759643D02*
X144959337Y-103083214D01*
D10*
X144709580Y-104352381D02*
X144757200Y-104400000D01*
X144757200Y-104400000D02*
X144804819Y-104352381D01*
X144804819Y-104352381D02*
X144757200Y-104304762D01*
X144757200Y-104304762D02*
X144709580Y-104352381D01*
X144709580Y-104352381D02*
X144804819Y-104352381D01*
X143852438Y-104161905D02*
X143804819Y-104257143D01*
X143804819Y-104257143D02*
X143804819Y-104495238D01*
X143804819Y-104495238D02*
X143852438Y-104590476D01*
X143852438Y-104590476D02*
X143947676Y-104638095D01*
X143947676Y-104638095D02*
X144042914Y-104638095D01*
X144042914Y-104638095D02*
X144138152Y-104590476D01*
X144138152Y-104590476D02*
X144185771Y-104542857D01*
X144185771Y-104542857D02*
X144233390Y-104447619D01*
X144233390Y-104447619D02*
X144281009Y-104400000D01*
X144281009Y-104400000D02*
X144376247Y-104352381D01*
X144376247Y-104352381D02*
X144423866Y-104352381D01*
D11*
X141609337Y-103285714D02*
X142337908Y-103285714D01*
X142337908Y-103285714D02*
X142423622Y-103328571D01*
X142423622Y-103328571D02*
X142466480Y-103371429D01*
X142466480Y-103371429D02*
X142509337Y-103457143D01*
X142509337Y-103457143D02*
X142509337Y-103628571D01*
X142509337Y-103628571D02*
X142466480Y-103714286D01*
X142466480Y-103714286D02*
X142423622Y-103757143D01*
X142423622Y-103757143D02*
X142337908Y-103800000D01*
X142337908Y-103800000D02*
X141609337Y-103800000D01*
X141695051Y-104185714D02*
X141652194Y-104228571D01*
X141652194Y-104228571D02*
X141609337Y-104314286D01*
X141609337Y-104314286D02*
X141609337Y-104528571D01*
X141609337Y-104528571D02*
X141652194Y-104614286D01*
X141652194Y-104614286D02*
X141695051Y-104657143D01*
X141695051Y-104657143D02*
X141780765Y-104700000D01*
X141780765Y-104700000D02*
X141866480Y-104700000D01*
X141866480Y-104700000D02*
X141995051Y-104657143D01*
X141995051Y-104657143D02*
X142509337Y-104142857D01*
X142509337Y-104142857D02*
X142509337Y-104700000D01*
X142509337Y-105128571D02*
X142509337Y-105300000D01*
X142509337Y-105300000D02*
X142466480Y-105385714D01*
X142466480Y-105385714D02*
X142423622Y-105428571D01*
X142423622Y-105428571D02*
X142295051Y-105514286D01*
X142295051Y-105514286D02*
X142123622Y-105557143D01*
X142123622Y-105557143D02*
X141780765Y-105557143D01*
X141780765Y-105557143D02*
X141695051Y-105514286D01*
X141695051Y-105514286D02*
X141652194Y-105471429D01*
X141652194Y-105471429D02*
X141609337Y-105385714D01*
X141609337Y-105385714D02*
X141609337Y-105214286D01*
X141609337Y-105214286D02*
X141652194Y-105128571D01*
X141652194Y-105128571D02*
X141695051Y-105085714D01*
X141695051Y-105085714D02*
X141780765Y-105042857D01*
X141780765Y-105042857D02*
X141995051Y-105042857D01*
X141995051Y-105042857D02*
X142080765Y-105085714D01*
X142080765Y-105085714D02*
X142123622Y-105128571D01*
X142123622Y-105128571D02*
X142166480Y-105214286D01*
X142166480Y-105214286D02*
X142166480Y-105385714D01*
X142166480Y-105385714D02*
X142123622Y-105471429D01*
X142123622Y-105471429D02*
X142080765Y-105514286D01*
X142080765Y-105514286D02*
X141995051Y-105557143D01*
X142059337Y-105759643D02*
X142059337Y-103083214D01*
D10*
X159599580Y-104322381D02*
X159647200Y-104370000D01*
X159647200Y-104370000D02*
X159694819Y-104322381D01*
X159694819Y-104322381D02*
X159647200Y-104274762D01*
X159647200Y-104274762D02*
X159599580Y-104322381D01*
X159599580Y-104322381D02*
X159694819Y-104322381D01*
X158742438Y-104131905D02*
X158694819Y-104227143D01*
X158694819Y-104227143D02*
X158694819Y-104465238D01*
X158694819Y-104465238D02*
X158742438Y-104560476D01*
X158742438Y-104560476D02*
X158837676Y-104608095D01*
X158837676Y-104608095D02*
X158932914Y-104608095D01*
X158932914Y-104608095D02*
X159028152Y-104560476D01*
X159028152Y-104560476D02*
X159075771Y-104512857D01*
X159075771Y-104512857D02*
X159123390Y-104417619D01*
X159123390Y-104417619D02*
X159171009Y-104370000D01*
X159171009Y-104370000D02*
X159266247Y-104322381D01*
X159266247Y-104322381D02*
X159313866Y-104322381D01*
D11*
X160999337Y-103255714D02*
X161727908Y-103255714D01*
X161727908Y-103255714D02*
X161813622Y-103298571D01*
X161813622Y-103298571D02*
X161856480Y-103341429D01*
X161856480Y-103341429D02*
X161899337Y-103427143D01*
X161899337Y-103427143D02*
X161899337Y-103598571D01*
X161899337Y-103598571D02*
X161856480Y-103684286D01*
X161856480Y-103684286D02*
X161813622Y-103727143D01*
X161813622Y-103727143D02*
X161727908Y-103770000D01*
X161727908Y-103770000D02*
X160999337Y-103770000D01*
X161085051Y-104155714D02*
X161042194Y-104198571D01*
X161042194Y-104198571D02*
X160999337Y-104284286D01*
X160999337Y-104284286D02*
X160999337Y-104498571D01*
X160999337Y-104498571D02*
X161042194Y-104584286D01*
X161042194Y-104584286D02*
X161085051Y-104627143D01*
X161085051Y-104627143D02*
X161170765Y-104670000D01*
X161170765Y-104670000D02*
X161256480Y-104670000D01*
X161256480Y-104670000D02*
X161385051Y-104627143D01*
X161385051Y-104627143D02*
X161899337Y-104112857D01*
X161899337Y-104112857D02*
X161899337Y-104670000D01*
X160999337Y-105227143D02*
X160999337Y-105312857D01*
X160999337Y-105312857D02*
X161042194Y-105398571D01*
X161042194Y-105398571D02*
X161085051Y-105441429D01*
X161085051Y-105441429D02*
X161170765Y-105484286D01*
X161170765Y-105484286D02*
X161342194Y-105527143D01*
X161342194Y-105527143D02*
X161556480Y-105527143D01*
X161556480Y-105527143D02*
X161727908Y-105484286D01*
X161727908Y-105484286D02*
X161813622Y-105441429D01*
X161813622Y-105441429D02*
X161856480Y-105398571D01*
X161856480Y-105398571D02*
X161899337Y-105312857D01*
X161899337Y-105312857D02*
X161899337Y-105227143D01*
X161899337Y-105227143D02*
X161856480Y-105141429D01*
X161856480Y-105141429D02*
X161813622Y-105098571D01*
X161813622Y-105098571D02*
X161727908Y-105055714D01*
X161727908Y-105055714D02*
X161556480Y-105012857D01*
X161556480Y-105012857D02*
X161342194Y-105012857D01*
X161342194Y-105012857D02*
X161170765Y-105055714D01*
X161170765Y-105055714D02*
X161085051Y-105098571D01*
X161085051Y-105098571D02*
X161042194Y-105141429D01*
X161042194Y-105141429D02*
X160999337Y-105227143D01*
D10*
X150219580Y-99522381D02*
X150267200Y-99570000D01*
X150267200Y-99570000D02*
X150314819Y-99522381D01*
X150314819Y-99522381D02*
X150267200Y-99474762D01*
X150267200Y-99474762D02*
X150219580Y-99522381D01*
X150219580Y-99522381D02*
X150314819Y-99522381D01*
X149362438Y-99331905D02*
X149314819Y-99427143D01*
X149314819Y-99427143D02*
X149314819Y-99665238D01*
X149314819Y-99665238D02*
X149362438Y-99760476D01*
X149362438Y-99760476D02*
X149457676Y-99808095D01*
X149457676Y-99808095D02*
X149552914Y-99808095D01*
X149552914Y-99808095D02*
X149648152Y-99760476D01*
X149648152Y-99760476D02*
X149695771Y-99712857D01*
X149695771Y-99712857D02*
X149743390Y-99617619D01*
X149743390Y-99617619D02*
X149791009Y-99570000D01*
X149791009Y-99570000D02*
X149886247Y-99522381D01*
X149886247Y-99522381D02*
X149933866Y-99522381D01*
D11*
X151619337Y-98455714D02*
X152347908Y-98455714D01*
X152347908Y-98455714D02*
X152433622Y-98498571D01*
X152433622Y-98498571D02*
X152476480Y-98541429D01*
X152476480Y-98541429D02*
X152519337Y-98627143D01*
X152519337Y-98627143D02*
X152519337Y-98798571D01*
X152519337Y-98798571D02*
X152476480Y-98884286D01*
X152476480Y-98884286D02*
X152433622Y-98927143D01*
X152433622Y-98927143D02*
X152347908Y-98970000D01*
X152347908Y-98970000D02*
X151619337Y-98970000D01*
X152519337Y-99870000D02*
X152519337Y-99355714D01*
X152519337Y-99612857D02*
X151619337Y-99612857D01*
X151619337Y-99612857D02*
X151747908Y-99527143D01*
X151747908Y-99527143D02*
X151833622Y-99441428D01*
X151833622Y-99441428D02*
X151876480Y-99355714D01*
X151619337Y-100684286D02*
X151619337Y-100255714D01*
X151619337Y-100255714D02*
X152047908Y-100212857D01*
X152047908Y-100212857D02*
X152005051Y-100255714D01*
X152005051Y-100255714D02*
X151962194Y-100341429D01*
X151962194Y-100341429D02*
X151962194Y-100555714D01*
X151962194Y-100555714D02*
X152005051Y-100641429D01*
X152005051Y-100641429D02*
X152047908Y-100684286D01*
X152047908Y-100684286D02*
X152133622Y-100727143D01*
X152133622Y-100727143D02*
X152347908Y-100727143D01*
X152347908Y-100727143D02*
X152433622Y-100684286D01*
X152433622Y-100684286D02*
X152476480Y-100641429D01*
X152476480Y-100641429D02*
X152519337Y-100555714D01*
X152519337Y-100555714D02*
X152519337Y-100341429D01*
X152519337Y-100341429D02*
X152476480Y-100255714D01*
X152476480Y-100255714D02*
X152433622Y-100212857D01*
D10*
X156599580Y-104322381D02*
X156647200Y-104370000D01*
X156647200Y-104370000D02*
X156694819Y-104322381D01*
X156694819Y-104322381D02*
X156647200Y-104274762D01*
X156647200Y-104274762D02*
X156599580Y-104322381D01*
X156599580Y-104322381D02*
X156694819Y-104322381D01*
X155742438Y-104131905D02*
X155694819Y-104227143D01*
X155694819Y-104227143D02*
X155694819Y-104465238D01*
X155694819Y-104465238D02*
X155742438Y-104560476D01*
X155742438Y-104560476D02*
X155837676Y-104608095D01*
X155837676Y-104608095D02*
X155932914Y-104608095D01*
X155932914Y-104608095D02*
X156028152Y-104560476D01*
X156028152Y-104560476D02*
X156075771Y-104512857D01*
X156075771Y-104512857D02*
X156123390Y-104417619D01*
X156123390Y-104417619D02*
X156171009Y-104370000D01*
X156171009Y-104370000D02*
X156266247Y-104322381D01*
X156266247Y-104322381D02*
X156313866Y-104322381D01*
D11*
X157999337Y-103255714D02*
X158727908Y-103255714D01*
X158727908Y-103255714D02*
X158813622Y-103298571D01*
X158813622Y-103298571D02*
X158856480Y-103341429D01*
X158856480Y-103341429D02*
X158899337Y-103427143D01*
X158899337Y-103427143D02*
X158899337Y-103598571D01*
X158899337Y-103598571D02*
X158856480Y-103684286D01*
X158856480Y-103684286D02*
X158813622Y-103727143D01*
X158813622Y-103727143D02*
X158727908Y-103770000D01*
X158727908Y-103770000D02*
X157999337Y-103770000D01*
X158899337Y-104670000D02*
X158899337Y-104155714D01*
X158899337Y-104412857D02*
X157999337Y-104412857D01*
X157999337Y-104412857D02*
X158127908Y-104327143D01*
X158127908Y-104327143D02*
X158213622Y-104241428D01*
X158213622Y-104241428D02*
X158256480Y-104155714D01*
X158385051Y-105184286D02*
X158342194Y-105098571D01*
X158342194Y-105098571D02*
X158299337Y-105055714D01*
X158299337Y-105055714D02*
X158213622Y-105012857D01*
X158213622Y-105012857D02*
X158170765Y-105012857D01*
X158170765Y-105012857D02*
X158085051Y-105055714D01*
X158085051Y-105055714D02*
X158042194Y-105098571D01*
X158042194Y-105098571D02*
X157999337Y-105184286D01*
X157999337Y-105184286D02*
X157999337Y-105355714D01*
X157999337Y-105355714D02*
X158042194Y-105441429D01*
X158042194Y-105441429D02*
X158085051Y-105484286D01*
X158085051Y-105484286D02*
X158170765Y-105527143D01*
X158170765Y-105527143D02*
X158213622Y-105527143D01*
X158213622Y-105527143D02*
X158299337Y-105484286D01*
X158299337Y-105484286D02*
X158342194Y-105441429D01*
X158342194Y-105441429D02*
X158385051Y-105355714D01*
X158385051Y-105355714D02*
X158385051Y-105184286D01*
X158385051Y-105184286D02*
X158427908Y-105098571D01*
X158427908Y-105098571D02*
X158470765Y-105055714D01*
X158470765Y-105055714D02*
X158556480Y-105012857D01*
X158556480Y-105012857D02*
X158727908Y-105012857D01*
X158727908Y-105012857D02*
X158813622Y-105055714D01*
X158813622Y-105055714D02*
X158856480Y-105098571D01*
X158856480Y-105098571D02*
X158899337Y-105184286D01*
X158899337Y-105184286D02*
X158899337Y-105355714D01*
X158899337Y-105355714D02*
X158856480Y-105441429D01*
X158856480Y-105441429D02*
X158813622Y-105484286D01*
X158813622Y-105484286D02*
X158727908Y-105527143D01*
X158727908Y-105527143D02*
X158556480Y-105527143D01*
X158556480Y-105527143D02*
X158470765Y-105484286D01*
X158470765Y-105484286D02*
X158427908Y-105441429D01*
X158427908Y-105441429D02*
X158385051Y-105355714D01*
D10*
X153219580Y-104322381D02*
X153267200Y-104370000D01*
X153267200Y-104370000D02*
X153314819Y-104322381D01*
X153314819Y-104322381D02*
X153267200Y-104274762D01*
X153267200Y-104274762D02*
X153219580Y-104322381D01*
X153219580Y-104322381D02*
X153314819Y-104322381D01*
X152362438Y-104131905D02*
X152314819Y-104227143D01*
X152314819Y-104227143D02*
X152314819Y-104465238D01*
X152314819Y-104465238D02*
X152362438Y-104560476D01*
X152362438Y-104560476D02*
X152457676Y-104608095D01*
X152457676Y-104608095D02*
X152552914Y-104608095D01*
X152552914Y-104608095D02*
X152648152Y-104560476D01*
X152648152Y-104560476D02*
X152695771Y-104512857D01*
X152695771Y-104512857D02*
X152743390Y-104417619D01*
X152743390Y-104417619D02*
X152791009Y-104370000D01*
X152791009Y-104370000D02*
X152886247Y-104322381D01*
X152886247Y-104322381D02*
X152933866Y-104322381D01*
D11*
X154619337Y-103255714D02*
X155347908Y-103255714D01*
X155347908Y-103255714D02*
X155433622Y-103298571D01*
X155433622Y-103298571D02*
X155476480Y-103341429D01*
X155476480Y-103341429D02*
X155519337Y-103427143D01*
X155519337Y-103427143D02*
X155519337Y-103598571D01*
X155519337Y-103598571D02*
X155476480Y-103684286D01*
X155476480Y-103684286D02*
X155433622Y-103727143D01*
X155433622Y-103727143D02*
X155347908Y-103770000D01*
X155347908Y-103770000D02*
X154619337Y-103770000D01*
X155519337Y-104670000D02*
X155519337Y-104155714D01*
X155519337Y-104412857D02*
X154619337Y-104412857D01*
X154619337Y-104412857D02*
X154747908Y-104327143D01*
X154747908Y-104327143D02*
X154833622Y-104241428D01*
X154833622Y-104241428D02*
X154876480Y-104155714D01*
X154619337Y-105441429D02*
X154619337Y-105270000D01*
X154619337Y-105270000D02*
X154662194Y-105184286D01*
X154662194Y-105184286D02*
X154705051Y-105141429D01*
X154705051Y-105141429D02*
X154833622Y-105055714D01*
X154833622Y-105055714D02*
X155005051Y-105012857D01*
X155005051Y-105012857D02*
X155347908Y-105012857D01*
X155347908Y-105012857D02*
X155433622Y-105055714D01*
X155433622Y-105055714D02*
X155476480Y-105098571D01*
X155476480Y-105098571D02*
X155519337Y-105184286D01*
X155519337Y-105184286D02*
X155519337Y-105355714D01*
X155519337Y-105355714D02*
X155476480Y-105441429D01*
X155476480Y-105441429D02*
X155433622Y-105484286D01*
X155433622Y-105484286D02*
X155347908Y-105527143D01*
X155347908Y-105527143D02*
X155133622Y-105527143D01*
X155133622Y-105527143D02*
X155047908Y-105484286D01*
X155047908Y-105484286D02*
X155005051Y-105441429D01*
X155005051Y-105441429D02*
X154962194Y-105355714D01*
X154962194Y-105355714D02*
X154962194Y-105184286D01*
X154962194Y-105184286D02*
X155005051Y-105098571D01*
X155005051Y-105098571D02*
X155047908Y-105055714D01*
X155047908Y-105055714D02*
X155133622Y-105012857D01*
D10*
X150219580Y-104322381D02*
X150267200Y-104370000D01*
X150267200Y-104370000D02*
X150314819Y-104322381D01*
X150314819Y-104322381D02*
X150267200Y-104274762D01*
X150267200Y-104274762D02*
X150219580Y-104322381D01*
X150219580Y-104322381D02*
X150314819Y-104322381D01*
X149362438Y-104131905D02*
X149314819Y-104227143D01*
X149314819Y-104227143D02*
X149314819Y-104465238D01*
X149314819Y-104465238D02*
X149362438Y-104560476D01*
X149362438Y-104560476D02*
X149457676Y-104608095D01*
X149457676Y-104608095D02*
X149552914Y-104608095D01*
X149552914Y-104608095D02*
X149648152Y-104560476D01*
X149648152Y-104560476D02*
X149695771Y-104512857D01*
X149695771Y-104512857D02*
X149743390Y-104417619D01*
X149743390Y-104417619D02*
X149791009Y-104370000D01*
X149791009Y-104370000D02*
X149886247Y-104322381D01*
X149886247Y-104322381D02*
X149933866Y-104322381D01*
D11*
X151619337Y-103255714D02*
X152347908Y-103255714D01*
X152347908Y-103255714D02*
X152433622Y-103298571D01*
X152433622Y-103298571D02*
X152476480Y-103341429D01*
X152476480Y-103341429D02*
X152519337Y-103427143D01*
X152519337Y-103427143D02*
X152519337Y-103598571D01*
X152519337Y-103598571D02*
X152476480Y-103684286D01*
X152476480Y-103684286D02*
X152433622Y-103727143D01*
X152433622Y-103727143D02*
X152347908Y-103770000D01*
X152347908Y-103770000D02*
X151619337Y-103770000D01*
X152519337Y-104670000D02*
X152519337Y-104155714D01*
X152519337Y-104412857D02*
X151619337Y-104412857D01*
X151619337Y-104412857D02*
X151747908Y-104327143D01*
X151747908Y-104327143D02*
X151833622Y-104241428D01*
X151833622Y-104241428D02*
X151876480Y-104155714D01*
X151919337Y-105441429D02*
X152519337Y-105441429D01*
X151576480Y-105227143D02*
X152219337Y-105012857D01*
X152219337Y-105012857D02*
X152219337Y-105570000D01*
D10*
X167309580Y-104322381D02*
X167357200Y-104370000D01*
X167357200Y-104370000D02*
X167404819Y-104322381D01*
X167404819Y-104322381D02*
X167357200Y-104274762D01*
X167357200Y-104274762D02*
X167309580Y-104322381D01*
X167309580Y-104322381D02*
X167404819Y-104322381D01*
X166452438Y-104131905D02*
X166404819Y-104227143D01*
X166404819Y-104227143D02*
X166404819Y-104465238D01*
X166404819Y-104465238D02*
X166452438Y-104560476D01*
X166452438Y-104560476D02*
X166547676Y-104608095D01*
X166547676Y-104608095D02*
X166642914Y-104608095D01*
X166642914Y-104608095D02*
X166738152Y-104560476D01*
X166738152Y-104560476D02*
X166785771Y-104512857D01*
X166785771Y-104512857D02*
X166833390Y-104417619D01*
X166833390Y-104417619D02*
X166881009Y-104370000D01*
X166881009Y-104370000D02*
X166976247Y-104322381D01*
X166976247Y-104322381D02*
X167023866Y-104322381D01*
D11*
X164209337Y-103255714D02*
X164937908Y-103255714D01*
X164937908Y-103255714D02*
X165023622Y-103298571D01*
X165023622Y-103298571D02*
X165066480Y-103341429D01*
X165066480Y-103341429D02*
X165109337Y-103427143D01*
X165109337Y-103427143D02*
X165109337Y-103598571D01*
X165109337Y-103598571D02*
X165066480Y-103684286D01*
X165066480Y-103684286D02*
X165023622Y-103727143D01*
X165023622Y-103727143D02*
X164937908Y-103770000D01*
X164937908Y-103770000D02*
X164209337Y-103770000D01*
X164295051Y-104155714D02*
X164252194Y-104198571D01*
X164252194Y-104198571D02*
X164209337Y-104284286D01*
X164209337Y-104284286D02*
X164209337Y-104498571D01*
X164209337Y-104498571D02*
X164252194Y-104584286D01*
X164252194Y-104584286D02*
X164295051Y-104627143D01*
X164295051Y-104627143D02*
X164380765Y-104670000D01*
X164380765Y-104670000D02*
X164466480Y-104670000D01*
X164466480Y-104670000D02*
X164595051Y-104627143D01*
X164595051Y-104627143D02*
X165109337Y-104112857D01*
X165109337Y-104112857D02*
X165109337Y-104670000D01*
X164295051Y-105012857D02*
X164252194Y-105055714D01*
X164252194Y-105055714D02*
X164209337Y-105141429D01*
X164209337Y-105141429D02*
X164209337Y-105355714D01*
X164209337Y-105355714D02*
X164252194Y-105441429D01*
X164252194Y-105441429D02*
X164295051Y-105484286D01*
X164295051Y-105484286D02*
X164380765Y-105527143D01*
X164380765Y-105527143D02*
X164466480Y-105527143D01*
X164466480Y-105527143D02*
X164595051Y-105484286D01*
X164595051Y-105484286D02*
X165109337Y-104970000D01*
X165109337Y-104970000D02*
X165109337Y-105527143D01*
D10*
X156599580Y-99522381D02*
X156647200Y-99570000D01*
X156647200Y-99570000D02*
X156694819Y-99522381D01*
X156694819Y-99522381D02*
X156647200Y-99474762D01*
X156647200Y-99474762D02*
X156599580Y-99522381D01*
X156599580Y-99522381D02*
X156694819Y-99522381D01*
X155742438Y-99331905D02*
X155694819Y-99427143D01*
X155694819Y-99427143D02*
X155694819Y-99665238D01*
X155694819Y-99665238D02*
X155742438Y-99760476D01*
X155742438Y-99760476D02*
X155837676Y-99808095D01*
X155837676Y-99808095D02*
X155932914Y-99808095D01*
X155932914Y-99808095D02*
X156028152Y-99760476D01*
X156028152Y-99760476D02*
X156075771Y-99712857D01*
X156075771Y-99712857D02*
X156123390Y-99617619D01*
X156123390Y-99617619D02*
X156171009Y-99570000D01*
X156171009Y-99570000D02*
X156266247Y-99522381D01*
X156266247Y-99522381D02*
X156313866Y-99522381D01*
D11*
X157999337Y-98455714D02*
X158727908Y-98455714D01*
X158727908Y-98455714D02*
X158813622Y-98498571D01*
X158813622Y-98498571D02*
X158856480Y-98541429D01*
X158856480Y-98541429D02*
X158899337Y-98627143D01*
X158899337Y-98627143D02*
X158899337Y-98798571D01*
X158899337Y-98798571D02*
X158856480Y-98884286D01*
X158856480Y-98884286D02*
X158813622Y-98927143D01*
X158813622Y-98927143D02*
X158727908Y-98970000D01*
X158727908Y-98970000D02*
X157999337Y-98970000D01*
X158899337Y-99870000D02*
X158899337Y-99355714D01*
X158899337Y-99612857D02*
X157999337Y-99612857D01*
X157999337Y-99612857D02*
X158127908Y-99527143D01*
X158127908Y-99527143D02*
X158213622Y-99441428D01*
X158213622Y-99441428D02*
X158256480Y-99355714D01*
X158899337Y-100298571D02*
X158899337Y-100470000D01*
X158899337Y-100470000D02*
X158856480Y-100555714D01*
X158856480Y-100555714D02*
X158813622Y-100598571D01*
X158813622Y-100598571D02*
X158685051Y-100684286D01*
X158685051Y-100684286D02*
X158513622Y-100727143D01*
X158513622Y-100727143D02*
X158170765Y-100727143D01*
X158170765Y-100727143D02*
X158085051Y-100684286D01*
X158085051Y-100684286D02*
X158042194Y-100641429D01*
X158042194Y-100641429D02*
X157999337Y-100555714D01*
X157999337Y-100555714D02*
X157999337Y-100384286D01*
X157999337Y-100384286D02*
X158042194Y-100298571D01*
X158042194Y-100298571D02*
X158085051Y-100255714D01*
X158085051Y-100255714D02*
X158170765Y-100212857D01*
X158170765Y-100212857D02*
X158385051Y-100212857D01*
X158385051Y-100212857D02*
X158470765Y-100255714D01*
X158470765Y-100255714D02*
X158513622Y-100298571D01*
X158513622Y-100298571D02*
X158556480Y-100384286D01*
X158556480Y-100384286D02*
X158556480Y-100555714D01*
X158556480Y-100555714D02*
X158513622Y-100641429D01*
X158513622Y-100641429D02*
X158470765Y-100684286D01*
X158470765Y-100684286D02*
X158385051Y-100727143D01*
D10*
X167309580Y-99522381D02*
X167357200Y-99570000D01*
X167357200Y-99570000D02*
X167404819Y-99522381D01*
X167404819Y-99522381D02*
X167357200Y-99474762D01*
X167357200Y-99474762D02*
X167309580Y-99522381D01*
X167309580Y-99522381D02*
X167404819Y-99522381D01*
X166452438Y-99331905D02*
X166404819Y-99427143D01*
X166404819Y-99427143D02*
X166404819Y-99665238D01*
X166404819Y-99665238D02*
X166452438Y-99760476D01*
X166452438Y-99760476D02*
X166547676Y-99808095D01*
X166547676Y-99808095D02*
X166642914Y-99808095D01*
X166642914Y-99808095D02*
X166738152Y-99760476D01*
X166738152Y-99760476D02*
X166785771Y-99712857D01*
X166785771Y-99712857D02*
X166833390Y-99617619D01*
X166833390Y-99617619D02*
X166881009Y-99570000D01*
X166881009Y-99570000D02*
X166976247Y-99522381D01*
X166976247Y-99522381D02*
X167023866Y-99522381D01*
D11*
X164209337Y-98455714D02*
X164937908Y-98455714D01*
X164937908Y-98455714D02*
X165023622Y-98498571D01*
X165023622Y-98498571D02*
X165066480Y-98541429D01*
X165066480Y-98541429D02*
X165109337Y-98627143D01*
X165109337Y-98627143D02*
X165109337Y-98798571D01*
X165109337Y-98798571D02*
X165066480Y-98884286D01*
X165066480Y-98884286D02*
X165023622Y-98927143D01*
X165023622Y-98927143D02*
X164937908Y-98970000D01*
X164937908Y-98970000D02*
X164209337Y-98970000D01*
X164295051Y-99355714D02*
X164252194Y-99398571D01*
X164252194Y-99398571D02*
X164209337Y-99484286D01*
X164209337Y-99484286D02*
X164209337Y-99698571D01*
X164209337Y-99698571D02*
X164252194Y-99784286D01*
X164252194Y-99784286D02*
X164295051Y-99827143D01*
X164295051Y-99827143D02*
X164380765Y-99870000D01*
X164380765Y-99870000D02*
X164466480Y-99870000D01*
X164466480Y-99870000D02*
X164595051Y-99827143D01*
X164595051Y-99827143D02*
X165109337Y-99312857D01*
X165109337Y-99312857D02*
X165109337Y-99870000D01*
X164209337Y-100170000D02*
X164209337Y-100727143D01*
X164209337Y-100727143D02*
X164552194Y-100427143D01*
X164552194Y-100427143D02*
X164552194Y-100555714D01*
X164552194Y-100555714D02*
X164595051Y-100641429D01*
X164595051Y-100641429D02*
X164637908Y-100684286D01*
X164637908Y-100684286D02*
X164723622Y-100727143D01*
X164723622Y-100727143D02*
X164937908Y-100727143D01*
X164937908Y-100727143D02*
X165023622Y-100684286D01*
X165023622Y-100684286D02*
X165066480Y-100641429D01*
X165066480Y-100641429D02*
X165109337Y-100555714D01*
X165109337Y-100555714D02*
X165109337Y-100298571D01*
X165109337Y-100298571D02*
X165066480Y-100212857D01*
X165066480Y-100212857D02*
X165023622Y-100170000D01*
D10*
X141709580Y-104352381D02*
X141757200Y-104400000D01*
X141757200Y-104400000D02*
X141804819Y-104352381D01*
X141804819Y-104352381D02*
X141757200Y-104304762D01*
X141757200Y-104304762D02*
X141709580Y-104352381D01*
X141709580Y-104352381D02*
X141804819Y-104352381D01*
X140852438Y-104161905D02*
X140804819Y-104257143D01*
X140804819Y-104257143D02*
X140804819Y-104495238D01*
X140804819Y-104495238D02*
X140852438Y-104590476D01*
X140852438Y-104590476D02*
X140947676Y-104638095D01*
X140947676Y-104638095D02*
X141042914Y-104638095D01*
X141042914Y-104638095D02*
X141138152Y-104590476D01*
X141138152Y-104590476D02*
X141185771Y-104542857D01*
X141185771Y-104542857D02*
X141233390Y-104447619D01*
X141233390Y-104447619D02*
X141281009Y-104400000D01*
X141281009Y-104400000D02*
X141376247Y-104352381D01*
X141376247Y-104352381D02*
X141423866Y-104352381D01*
D11*
X138609337Y-103285714D02*
X139337908Y-103285714D01*
X139337908Y-103285714D02*
X139423622Y-103328571D01*
X139423622Y-103328571D02*
X139466480Y-103371429D01*
X139466480Y-103371429D02*
X139509337Y-103457143D01*
X139509337Y-103457143D02*
X139509337Y-103628571D01*
X139509337Y-103628571D02*
X139466480Y-103714286D01*
X139466480Y-103714286D02*
X139423622Y-103757143D01*
X139423622Y-103757143D02*
X139337908Y-103800000D01*
X139337908Y-103800000D02*
X138609337Y-103800000D01*
X138695051Y-104185714D02*
X138652194Y-104228571D01*
X138652194Y-104228571D02*
X138609337Y-104314286D01*
X138609337Y-104314286D02*
X138609337Y-104528571D01*
X138609337Y-104528571D02*
X138652194Y-104614286D01*
X138652194Y-104614286D02*
X138695051Y-104657143D01*
X138695051Y-104657143D02*
X138780765Y-104700000D01*
X138780765Y-104700000D02*
X138866480Y-104700000D01*
X138866480Y-104700000D02*
X138995051Y-104657143D01*
X138995051Y-104657143D02*
X139509337Y-104142857D01*
X139509337Y-104142857D02*
X139509337Y-104700000D01*
X138609337Y-105000000D02*
X138609337Y-105600000D01*
X138609337Y-105600000D02*
X139509337Y-105214286D01*
X139059337Y-105802495D02*
X139059337Y-103083214D01*
D10*
X137209580Y-99352381D02*
X137257200Y-99400000D01*
X137257200Y-99400000D02*
X137304819Y-99352381D01*
X137304819Y-99352381D02*
X137257200Y-99304762D01*
X137257200Y-99304762D02*
X137209580Y-99352381D01*
X137209580Y-99352381D02*
X137304819Y-99352381D01*
X136352438Y-99161905D02*
X136304819Y-99257143D01*
X136304819Y-99257143D02*
X136304819Y-99495238D01*
X136304819Y-99495238D02*
X136352438Y-99590476D01*
X136352438Y-99590476D02*
X136447676Y-99638095D01*
X136447676Y-99638095D02*
X136542914Y-99638095D01*
X136542914Y-99638095D02*
X136638152Y-99590476D01*
X136638152Y-99590476D02*
X136685771Y-99542857D01*
X136685771Y-99542857D02*
X136733390Y-99447619D01*
X136733390Y-99447619D02*
X136781009Y-99400000D01*
X136781009Y-99400000D02*
X136876247Y-99352381D01*
X136876247Y-99352381D02*
X136923866Y-99352381D01*
D11*
X138609337Y-98285714D02*
X139337908Y-98285714D01*
X139337908Y-98285714D02*
X139423622Y-98328571D01*
X139423622Y-98328571D02*
X139466480Y-98371429D01*
X139466480Y-98371429D02*
X139509337Y-98457143D01*
X139509337Y-98457143D02*
X139509337Y-98628571D01*
X139509337Y-98628571D02*
X139466480Y-98714286D01*
X139466480Y-98714286D02*
X139423622Y-98757143D01*
X139423622Y-98757143D02*
X139337908Y-98800000D01*
X139337908Y-98800000D02*
X138609337Y-98800000D01*
X138695051Y-99185714D02*
X138652194Y-99228571D01*
X138652194Y-99228571D02*
X138609337Y-99314286D01*
X138609337Y-99314286D02*
X138609337Y-99528571D01*
X138609337Y-99528571D02*
X138652194Y-99614286D01*
X138652194Y-99614286D02*
X138695051Y-99657143D01*
X138695051Y-99657143D02*
X138780765Y-99700000D01*
X138780765Y-99700000D02*
X138866480Y-99700000D01*
X138866480Y-99700000D02*
X138995051Y-99657143D01*
X138995051Y-99657143D02*
X139509337Y-99142857D01*
X139509337Y-99142857D02*
X139509337Y-99700000D01*
X138909337Y-100471429D02*
X139509337Y-100471429D01*
X138566480Y-100257143D02*
X139209337Y-100042857D01*
X139209337Y-100042857D02*
X139209337Y-100600000D01*
X139037993Y-100797362D02*
X139037993Y-98083214D01*
D10*
X144709580Y-99352381D02*
X144757200Y-99400000D01*
X144757200Y-99400000D02*
X144804819Y-99352381D01*
X144804819Y-99352381D02*
X144757200Y-99304762D01*
X144757200Y-99304762D02*
X144709580Y-99352381D01*
X144709580Y-99352381D02*
X144804819Y-99352381D01*
X143852438Y-99161905D02*
X143804819Y-99257143D01*
X143804819Y-99257143D02*
X143804819Y-99495238D01*
X143804819Y-99495238D02*
X143852438Y-99590476D01*
X143852438Y-99590476D02*
X143947676Y-99638095D01*
X143947676Y-99638095D02*
X144042914Y-99638095D01*
X144042914Y-99638095D02*
X144138152Y-99590476D01*
X144138152Y-99590476D02*
X144185771Y-99542857D01*
X144185771Y-99542857D02*
X144233390Y-99447619D01*
X144233390Y-99447619D02*
X144281009Y-99400000D01*
X144281009Y-99400000D02*
X144376247Y-99352381D01*
X144376247Y-99352381D02*
X144423866Y-99352381D01*
D11*
X141609337Y-98285714D02*
X142337908Y-98285714D01*
X142337908Y-98285714D02*
X142423622Y-98328571D01*
X142423622Y-98328571D02*
X142466480Y-98371429D01*
X142466480Y-98371429D02*
X142509337Y-98457143D01*
X142509337Y-98457143D02*
X142509337Y-98628571D01*
X142509337Y-98628571D02*
X142466480Y-98714286D01*
X142466480Y-98714286D02*
X142423622Y-98757143D01*
X142423622Y-98757143D02*
X142337908Y-98800000D01*
X142337908Y-98800000D02*
X141609337Y-98800000D01*
X141695051Y-99185714D02*
X141652194Y-99228571D01*
X141652194Y-99228571D02*
X141609337Y-99314286D01*
X141609337Y-99314286D02*
X141609337Y-99528571D01*
X141609337Y-99528571D02*
X141652194Y-99614286D01*
X141652194Y-99614286D02*
X141695051Y-99657143D01*
X141695051Y-99657143D02*
X141780765Y-99700000D01*
X141780765Y-99700000D02*
X141866480Y-99700000D01*
X141866480Y-99700000D02*
X141995051Y-99657143D01*
X141995051Y-99657143D02*
X142509337Y-99142857D01*
X142509337Y-99142857D02*
X142509337Y-99700000D01*
X141609337Y-100471429D02*
X141609337Y-100300000D01*
X141609337Y-100300000D02*
X141652194Y-100214286D01*
X141652194Y-100214286D02*
X141695051Y-100171429D01*
X141695051Y-100171429D02*
X141823622Y-100085714D01*
X141823622Y-100085714D02*
X141995051Y-100042857D01*
X141995051Y-100042857D02*
X142337908Y-100042857D01*
X142337908Y-100042857D02*
X142423622Y-100085714D01*
X142423622Y-100085714D02*
X142466480Y-100128571D01*
X142466480Y-100128571D02*
X142509337Y-100214286D01*
X142509337Y-100214286D02*
X142509337Y-100385714D01*
X142509337Y-100385714D02*
X142466480Y-100471429D01*
X142466480Y-100471429D02*
X142423622Y-100514286D01*
X142423622Y-100514286D02*
X142337908Y-100557143D01*
X142337908Y-100557143D02*
X142123622Y-100557143D01*
X142123622Y-100557143D02*
X142037908Y-100514286D01*
X142037908Y-100514286D02*
X141995051Y-100471429D01*
X141995051Y-100471429D02*
X141952194Y-100385714D01*
X141952194Y-100385714D02*
X141952194Y-100214286D01*
X141952194Y-100214286D02*
X141995051Y-100128571D01*
X141995051Y-100128571D02*
X142037908Y-100085714D01*
X142037908Y-100085714D02*
X142123622Y-100042857D01*
X142059337Y-100759643D02*
X142059337Y-98083214D01*
D12*
X143925000Y-98150000D02*
X143925000Y-100650000D01*
X144075000Y-100650000D02*
G75*
G02*
X143925000Y-100650000I-75000J0D01*
G01*
X144075000Y-100650000D02*
X144075000Y-98150000D01*
X144075000Y-98150000D02*
G75*
G03*
X143925000Y-98150000I-75000J0D01*
G01*
X144000000Y-99475000D02*
X144500000Y-99475000D01*
X144500000Y-99325000D02*
G75*
G02*
X144500000Y-99475000I0J-75000D01*
G01*
X144500000Y-99325000D02*
X144000000Y-99325000D01*
X144000000Y-99325000D02*
G75*
G03*
X144000000Y-99475000I0J-75000D01*
G01*
X144000000Y-100725000D02*
X144500000Y-100725000D01*
X144500000Y-100575000D02*
G75*
G02*
X144500000Y-100725000I0J-75000D01*
G01*
X144500000Y-100575000D02*
X144000000Y-100575000D01*
X144000000Y-100575000D02*
G75*
G03*
X144000000Y-100725000I0J-75000D01*
G01*
X144425000Y-97650000D02*
X144425000Y-98150000D01*
X144575000Y-98150000D02*
G75*
G02*
X144425000Y-98150000I-75000J0D01*
G01*
X144575000Y-98150000D02*
X144575000Y-97650000D01*
X144575000Y-97650000D02*
G75*
G03*
X144425000Y-97650000I-75000J0D01*
G01*
X144500000Y-98075000D02*
X144000000Y-98075000D01*
X144000000Y-98225000D02*
G75*
G02*
X144000000Y-98075000I0J75000D01*
G01*
X144000000Y-98225000D02*
X144500000Y-98225000D01*
X144500000Y-98225000D02*
G75*
G03*
X144500000Y-98075000I0J75000D01*
G01*
X144425000Y-100650000D02*
X144425000Y-101150000D01*
X144575000Y-101150000D02*
G75*
G02*
X144425000Y-101150000I-75000J0D01*
G01*
X144575000Y-101150000D02*
X144575000Y-100650000D01*
X144575000Y-100650000D02*
G75*
G03*
X144425000Y-100650000I-75000J0D01*
G01*
X144575000Y-101300000D02*
X144575000Y-97500000D01*
X144425000Y-97500000D02*
G75*
G02*
X144575000Y-97500000I75000J0D01*
G01*
X144425000Y-97500000D02*
X144425000Y-101300000D01*
X144425000Y-101300000D02*
G75*
G03*
X144575000Y-101300000I75000J0D01*
G01*
X144500000Y-101375000D02*
X145500000Y-101375000D01*
X145500000Y-101225000D02*
G75*
G02*
X145500000Y-101375000I0J-75000D01*
G01*
X145500000Y-101225000D02*
X144500000Y-101225000D01*
X144500000Y-101225000D02*
G75*
G03*
X144500000Y-101375000I0J-75000D01*
G01*
X145500000Y-97425000D02*
X144500000Y-97425000D01*
X144500000Y-97575000D02*
G75*
G02*
X144500000Y-97425000I0J75000D01*
G01*
X144500000Y-97575000D02*
X145500000Y-97575000D01*
X145500000Y-97575000D02*
G75*
G03*
X145500000Y-97425000I0J75000D01*
G01*
X145425000Y-97500000D02*
X145425000Y-101300000D01*
X145575000Y-101300000D02*
G75*
G02*
X145425000Y-101300000I-75000J0D01*
G01*
X145575000Y-101300000D02*
X145575000Y-97500000D01*
X145575000Y-97500000D02*
G75*
G03*
X145425000Y-97500000I-75000J0D01*
G01*
X145575000Y-98150000D02*
X145575000Y-97650000D01*
X145425000Y-97650000D02*
G75*
G02*
X145575000Y-97650000I75000J0D01*
G01*
X145425000Y-97650000D02*
X145425000Y-98150000D01*
X145425000Y-98150000D02*
G75*
G03*
X145575000Y-98150000I75000J0D01*
G01*
X145500000Y-99475000D02*
X146000000Y-99475000D01*
X146000000Y-99325000D02*
G75*
G02*
X146000000Y-99475000I0J-75000D01*
G01*
X146000000Y-99325000D02*
X145500000Y-99325000D01*
X145500000Y-99325000D02*
G75*
G03*
X145500000Y-99475000I0J-75000D01*
G01*
X145500000Y-100725000D02*
X146000000Y-100725000D01*
X146000000Y-100575000D02*
G75*
G02*
X146000000Y-100725000I0J-75000D01*
G01*
X146000000Y-100575000D02*
X145500000Y-100575000D01*
X145500000Y-100575000D02*
G75*
G03*
X145500000Y-100725000I0J-75000D01*
G01*
X145575000Y-101150000D02*
X145575000Y-100650000D01*
X145425000Y-100650000D02*
G75*
G02*
X145575000Y-100650000I75000J0D01*
G01*
X145425000Y-100650000D02*
X145425000Y-101150000D01*
X145425000Y-101150000D02*
G75*
G03*
X145575000Y-101150000I75000J0D01*
G01*
X146000000Y-98075000D02*
X145500000Y-98075000D01*
X145500000Y-98225000D02*
G75*
G02*
X145500000Y-98075000I0J75000D01*
G01*
X145500000Y-98225000D02*
X146000000Y-98225000D01*
X146000000Y-98225000D02*
G75*
G03*
X146000000Y-98075000I0J75000D01*
G01*
X146075000Y-100650000D02*
X146075000Y-98150000D01*
X145925000Y-98150000D02*
G75*
G02*
X146075000Y-98150000I75000J0D01*
G01*
X145925000Y-98150000D02*
X145925000Y-100650000D01*
X145925000Y-100650000D02*
G75*
G03*
X146075000Y-100650000I75000J0D01*
G01*
D10*
%TO.C,U21*%
X160490000Y-98320000D02*
X160490000Y-100820000D01*
X160490000Y-99570000D02*
X160990000Y-99570000D01*
X160490000Y-100820000D02*
X160990000Y-100820000D01*
X160990000Y-97820000D02*
X160990000Y-98320000D01*
X160990000Y-98320000D02*
X160490000Y-98320000D01*
X160990000Y-100820000D02*
X160990000Y-101320000D01*
X160990000Y-101470000D02*
X160990000Y-97670000D01*
X160990000Y-101470000D02*
X161990000Y-101470000D01*
X161990000Y-97670000D02*
X160990000Y-97670000D01*
X161990000Y-97670000D02*
X161990000Y-101470000D01*
X161990000Y-98320000D02*
X161990000Y-97820000D01*
X161990000Y-99570000D02*
X162490000Y-99570000D01*
X161990000Y-100820000D02*
X162490000Y-100820000D01*
X161990000Y-101320000D02*
X161990000Y-100820000D01*
X162490000Y-98320000D02*
X161990000Y-98320000D01*
X162490000Y-100820000D02*
X162490000Y-98320000D01*
%TO.C,U17*%
X154110000Y-98320000D02*
X154110000Y-100820000D01*
X154110000Y-99570000D02*
X154610000Y-99570000D01*
X154110000Y-100820000D02*
X154610000Y-100820000D01*
X154610000Y-97820000D02*
X154610000Y-98320000D01*
X154610000Y-98320000D02*
X154110000Y-98320000D01*
X154610000Y-100820000D02*
X154610000Y-101320000D01*
X154610000Y-101470000D02*
X154610000Y-97670000D01*
X154610000Y-101470000D02*
X155610000Y-101470000D01*
X155610000Y-97670000D02*
X154610000Y-97670000D01*
X155610000Y-97670000D02*
X155610000Y-101470000D01*
X155610000Y-98320000D02*
X155610000Y-97820000D01*
X155610000Y-99570000D02*
X156110000Y-99570000D01*
X155610000Y-100820000D02*
X156110000Y-100820000D01*
X155610000Y-101320000D02*
X155610000Y-100820000D01*
X156110000Y-98320000D02*
X155610000Y-98320000D01*
X156110000Y-100820000D02*
X156110000Y-98320000D01*
D12*
X143925000Y-103150000D02*
X143925000Y-105650000D01*
X144075000Y-105650000D02*
G75*
G02*
X143925000Y-105650000I-75000J0D01*
G01*
X144075000Y-105650000D02*
X144075000Y-103150000D01*
X144075000Y-103150000D02*
G75*
G03*
X143925000Y-103150000I-75000J0D01*
G01*
X144000000Y-104475000D02*
X144500000Y-104475000D01*
X144500000Y-104325000D02*
G75*
G02*
X144500000Y-104475000I0J-75000D01*
G01*
X144500000Y-104325000D02*
X144000000Y-104325000D01*
X144000000Y-104325000D02*
G75*
G03*
X144000000Y-104475000I0J-75000D01*
G01*
X144000000Y-105725000D02*
X144500000Y-105725000D01*
X144500000Y-105575000D02*
G75*
G02*
X144500000Y-105725000I0J-75000D01*
G01*
X144500000Y-105575000D02*
X144000000Y-105575000D01*
X144000000Y-105575000D02*
G75*
G03*
X144000000Y-105725000I0J-75000D01*
G01*
X144425000Y-102650000D02*
X144425000Y-103150000D01*
X144575000Y-103150000D02*
G75*
G02*
X144425000Y-103150000I-75000J0D01*
G01*
X144575000Y-103150000D02*
X144575000Y-102650000D01*
X144575000Y-102650000D02*
G75*
G03*
X144425000Y-102650000I-75000J0D01*
G01*
X144500000Y-103075000D02*
X144000000Y-103075000D01*
X144000000Y-103225000D02*
G75*
G02*
X144000000Y-103075000I0J75000D01*
G01*
X144000000Y-103225000D02*
X144500000Y-103225000D01*
X144500000Y-103225000D02*
G75*
G03*
X144500000Y-103075000I0J75000D01*
G01*
X144425000Y-105650000D02*
X144425000Y-106150000D01*
X144575000Y-106150000D02*
G75*
G02*
X144425000Y-106150000I-75000J0D01*
G01*
X144575000Y-106150000D02*
X144575000Y-105650000D01*
X144575000Y-105650000D02*
G75*
G03*
X144425000Y-105650000I-75000J0D01*
G01*
X144575000Y-106300000D02*
X144575000Y-102500000D01*
X144425000Y-102500000D02*
G75*
G02*
X144575000Y-102500000I75000J0D01*
G01*
X144425000Y-102500000D02*
X144425000Y-106300000D01*
X144425000Y-106300000D02*
G75*
G03*
X144575000Y-106300000I75000J0D01*
G01*
X144500000Y-106375000D02*
X145500000Y-106375000D01*
X145500000Y-106225000D02*
G75*
G02*
X145500000Y-106375000I0J-75000D01*
G01*
X145500000Y-106225000D02*
X144500000Y-106225000D01*
X144500000Y-106225000D02*
G75*
G03*
X144500000Y-106375000I0J-75000D01*
G01*
X145500000Y-102425000D02*
X144500000Y-102425000D01*
X144500000Y-102575000D02*
G75*
G02*
X144500000Y-102425000I0J75000D01*
G01*
X144500000Y-102575000D02*
X145500000Y-102575000D01*
X145500000Y-102575000D02*
G75*
G03*
X145500000Y-102425000I0J75000D01*
G01*
X145425000Y-102500000D02*
X145425000Y-106300000D01*
X145575000Y-106300000D02*
G75*
G02*
X145425000Y-106300000I-75000J0D01*
G01*
X145575000Y-106300000D02*
X145575000Y-102500000D01*
X145575000Y-102500000D02*
G75*
G03*
X145425000Y-102500000I-75000J0D01*
G01*
X145575000Y-103150000D02*
X145575000Y-102650000D01*
X145425000Y-102650000D02*
G75*
G02*
X145575000Y-102650000I75000J0D01*
G01*
X145425000Y-102650000D02*
X145425000Y-103150000D01*
X145425000Y-103150000D02*
G75*
G03*
X145575000Y-103150000I75000J0D01*
G01*
X145500000Y-104475000D02*
X146000000Y-104475000D01*
X146000000Y-104325000D02*
G75*
G02*
X146000000Y-104475000I0J-75000D01*
G01*
X146000000Y-104325000D02*
X145500000Y-104325000D01*
X145500000Y-104325000D02*
G75*
G03*
X145500000Y-104475000I0J-75000D01*
G01*
X145500000Y-105725000D02*
X146000000Y-105725000D01*
X146000000Y-105575000D02*
G75*
G02*
X146000000Y-105725000I0J-75000D01*
G01*
X146000000Y-105575000D02*
X145500000Y-105575000D01*
X145500000Y-105575000D02*
G75*
G03*
X145500000Y-105725000I0J-75000D01*
G01*
X145575000Y-106150000D02*
X145575000Y-105650000D01*
X145425000Y-105650000D02*
G75*
G02*
X145575000Y-105650000I75000J0D01*
G01*
X145425000Y-105650000D02*
X145425000Y-106150000D01*
X145425000Y-106150000D02*
G75*
G03*
X145575000Y-106150000I75000J0D01*
G01*
X146000000Y-103075000D02*
X145500000Y-103075000D01*
X145500000Y-103225000D02*
G75*
G02*
X145500000Y-103075000I0J75000D01*
G01*
X145500000Y-103225000D02*
X146000000Y-103225000D01*
X146000000Y-103225000D02*
G75*
G03*
X146000000Y-103075000I0J75000D01*
G01*
X146075000Y-105650000D02*
X146075000Y-103150000D01*
X145925000Y-103150000D02*
G75*
G02*
X146075000Y-103150000I75000J0D01*
G01*
X145925000Y-103150000D02*
X145925000Y-105650000D01*
X145925000Y-105650000D02*
G75*
G03*
X146075000Y-105650000I75000J0D01*
G01*
X141025000Y-103150000D02*
X141025000Y-105650000D01*
X141175000Y-105650000D02*
G75*
G02*
X141025000Y-105650000I-75000J0D01*
G01*
X141175000Y-105650000D02*
X141175000Y-103150000D01*
X141175000Y-103150000D02*
G75*
G03*
X141025000Y-103150000I-75000J0D01*
G01*
X141100000Y-105725000D02*
X141600000Y-105725000D01*
X141600000Y-105575000D02*
G75*
G02*
X141600000Y-105725000I0J-75000D01*
G01*
X141600000Y-105575000D02*
X141100000Y-105575000D01*
X141100000Y-105575000D02*
G75*
G03*
X141100000Y-105725000I0J-75000D01*
G01*
X141525000Y-102650000D02*
X141525000Y-103150000D01*
X141675000Y-103150000D02*
G75*
G02*
X141525000Y-103150000I-75000J0D01*
G01*
X141675000Y-103150000D02*
X141675000Y-102650000D01*
X141675000Y-102650000D02*
G75*
G03*
X141525000Y-102650000I-75000J0D01*
G01*
X141600000Y-103075000D02*
X141100000Y-103075000D01*
X141100000Y-103225000D02*
G75*
G02*
X141100000Y-103075000I0J75000D01*
G01*
X141100000Y-103225000D02*
X141600000Y-103225000D01*
X141600000Y-103225000D02*
G75*
G03*
X141600000Y-103075000I0J75000D01*
G01*
X141600000Y-104325000D02*
X141100000Y-104325000D01*
X141100000Y-104475000D02*
G75*
G02*
X141100000Y-104325000I0J75000D01*
G01*
X141100000Y-104475000D02*
X141600000Y-104475000D01*
X141600000Y-104475000D02*
G75*
G03*
X141600000Y-104325000I0J75000D01*
G01*
X141525000Y-105650000D02*
X141525000Y-106150000D01*
X141675000Y-106150000D02*
G75*
G02*
X141525000Y-106150000I-75000J0D01*
G01*
X141675000Y-106150000D02*
X141675000Y-105650000D01*
X141675000Y-105650000D02*
G75*
G03*
X141525000Y-105650000I-75000J0D01*
G01*
X141675000Y-106300000D02*
X141675000Y-102500000D01*
X141525000Y-102500000D02*
G75*
G02*
X141675000Y-102500000I75000J0D01*
G01*
X141525000Y-102500000D02*
X141525000Y-106300000D01*
X141525000Y-106300000D02*
G75*
G03*
X141675000Y-106300000I75000J0D01*
G01*
X141600000Y-106375000D02*
X142600000Y-106375000D01*
X142600000Y-106225000D02*
G75*
G02*
X142600000Y-106375000I0J-75000D01*
G01*
X142600000Y-106225000D02*
X141600000Y-106225000D01*
X141600000Y-106225000D02*
G75*
G03*
X141600000Y-106375000I0J-75000D01*
G01*
X142600000Y-102425000D02*
X141600000Y-102425000D01*
X141600000Y-102575000D02*
G75*
G02*
X141600000Y-102425000I0J75000D01*
G01*
X141600000Y-102575000D02*
X142600000Y-102575000D01*
X142600000Y-102575000D02*
G75*
G03*
X142600000Y-102425000I0J75000D01*
G01*
X142525000Y-102500000D02*
X142525000Y-106300000D01*
X142675000Y-106300000D02*
G75*
G02*
X142525000Y-106300000I-75000J0D01*
G01*
X142675000Y-106300000D02*
X142675000Y-102500000D01*
X142675000Y-102500000D02*
G75*
G03*
X142525000Y-102500000I-75000J0D01*
G01*
X142675000Y-103150000D02*
X142675000Y-102650000D01*
X142525000Y-102650000D02*
G75*
G02*
X142675000Y-102650000I75000J0D01*
G01*
X142525000Y-102650000D02*
X142525000Y-103150000D01*
X142525000Y-103150000D02*
G75*
G03*
X142675000Y-103150000I75000J0D01*
G01*
X142600000Y-105725000D02*
X143100000Y-105725000D01*
X143100000Y-105575000D02*
G75*
G02*
X143100000Y-105725000I0J-75000D01*
G01*
X143100000Y-105575000D02*
X142600000Y-105575000D01*
X142600000Y-105575000D02*
G75*
G03*
X142600000Y-105725000I0J-75000D01*
G01*
X142675000Y-106150000D02*
X142675000Y-105650000D01*
X142525000Y-105650000D02*
G75*
G02*
X142675000Y-105650000I75000J0D01*
G01*
X142525000Y-105650000D02*
X142525000Y-106150000D01*
X142525000Y-106150000D02*
G75*
G03*
X142675000Y-106150000I75000J0D01*
G01*
X143100000Y-103075000D02*
X142600000Y-103075000D01*
X142600000Y-103225000D02*
G75*
G02*
X142600000Y-103075000I0J75000D01*
G01*
X142600000Y-103225000D02*
X143100000Y-103225000D01*
X143100000Y-103225000D02*
G75*
G03*
X143100000Y-103075000I0J75000D01*
G01*
X143100000Y-104325000D02*
X142600000Y-104325000D01*
X142600000Y-104475000D02*
G75*
G02*
X142600000Y-104325000I0J75000D01*
G01*
X142600000Y-104475000D02*
X143100000Y-104475000D01*
X143100000Y-104475000D02*
G75*
G03*
X143100000Y-104325000I0J75000D01*
G01*
X143175000Y-105650000D02*
X143175000Y-103150000D01*
X143025000Y-103150000D02*
G75*
G02*
X143175000Y-103150000I75000J0D01*
G01*
X143025000Y-103150000D02*
X143025000Y-105650000D01*
X143025000Y-105650000D02*
G75*
G03*
X143175000Y-105650000I75000J0D01*
G01*
D10*
%TO.C,U20*%
X160490000Y-103120000D02*
X160490000Y-105620000D01*
X160490000Y-104370000D02*
X160990000Y-104370000D01*
X160490000Y-105620000D02*
X160990000Y-105620000D01*
X160990000Y-102620000D02*
X160990000Y-103120000D01*
X160990000Y-103120000D02*
X160490000Y-103120000D01*
X160990000Y-105620000D02*
X160990000Y-106120000D01*
X160990000Y-106270000D02*
X160990000Y-102470000D01*
X160990000Y-106270000D02*
X161990000Y-106270000D01*
X161990000Y-102470000D02*
X160990000Y-102470000D01*
X161990000Y-102470000D02*
X161990000Y-106270000D01*
X161990000Y-103120000D02*
X161990000Y-102620000D01*
X161990000Y-104370000D02*
X162490000Y-104370000D01*
X161990000Y-105620000D02*
X162490000Y-105620000D01*
X161990000Y-106120000D02*
X161990000Y-105620000D01*
X162490000Y-103120000D02*
X161990000Y-103120000D01*
X162490000Y-105620000D02*
X162490000Y-103120000D01*
%TO.C,U15*%
X151110000Y-98320000D02*
X151110000Y-100820000D01*
X151110000Y-99570000D02*
X151610000Y-99570000D01*
X151110000Y-100820000D02*
X151610000Y-100820000D01*
X151610000Y-97820000D02*
X151610000Y-98320000D01*
X151610000Y-98320000D02*
X151110000Y-98320000D01*
X151610000Y-100820000D02*
X151610000Y-101320000D01*
X151610000Y-101470000D02*
X151610000Y-97670000D01*
X151610000Y-101470000D02*
X152610000Y-101470000D01*
X152610000Y-97670000D02*
X151610000Y-97670000D01*
X152610000Y-97670000D02*
X152610000Y-101470000D01*
X152610000Y-98320000D02*
X152610000Y-97820000D01*
X152610000Y-99570000D02*
X153110000Y-99570000D01*
X152610000Y-100820000D02*
X153110000Y-100820000D01*
X152610000Y-101320000D02*
X152610000Y-100820000D01*
X153110000Y-98320000D02*
X152610000Y-98320000D01*
X153110000Y-100820000D02*
X153110000Y-98320000D01*
%TO.C,U18*%
X157490000Y-103120000D02*
X157490000Y-105620000D01*
X157490000Y-104370000D02*
X157990000Y-104370000D01*
X157490000Y-105620000D02*
X157990000Y-105620000D01*
X157990000Y-102620000D02*
X157990000Y-103120000D01*
X157990000Y-103120000D02*
X157490000Y-103120000D01*
X157990000Y-105620000D02*
X157990000Y-106120000D01*
X157990000Y-106270000D02*
X157990000Y-102470000D01*
X157990000Y-106270000D02*
X158990000Y-106270000D01*
X158990000Y-102470000D02*
X157990000Y-102470000D01*
X158990000Y-102470000D02*
X158990000Y-106270000D01*
X158990000Y-103120000D02*
X158990000Y-102620000D01*
X158990000Y-104370000D02*
X159490000Y-104370000D01*
X158990000Y-105620000D02*
X159490000Y-105620000D01*
X158990000Y-106120000D02*
X158990000Y-105620000D01*
X159490000Y-103120000D02*
X158990000Y-103120000D01*
X159490000Y-105620000D02*
X159490000Y-103120000D01*
%TO.C,U16*%
X154110000Y-103120000D02*
X154110000Y-105620000D01*
X154110000Y-104370000D02*
X154610000Y-104370000D01*
X154110000Y-105620000D02*
X154610000Y-105620000D01*
X154610000Y-102620000D02*
X154610000Y-103120000D01*
X154610000Y-103120000D02*
X154110000Y-103120000D01*
X154610000Y-105620000D02*
X154610000Y-106120000D01*
X154610000Y-106270000D02*
X154610000Y-102470000D01*
X154610000Y-106270000D02*
X155610000Y-106270000D01*
X155610000Y-102470000D02*
X154610000Y-102470000D01*
X155610000Y-102470000D02*
X155610000Y-106270000D01*
X155610000Y-103120000D02*
X155610000Y-102620000D01*
X155610000Y-104370000D02*
X156110000Y-104370000D01*
X155610000Y-105620000D02*
X156110000Y-105620000D01*
X155610000Y-106120000D02*
X155610000Y-105620000D01*
X156110000Y-103120000D02*
X155610000Y-103120000D01*
X156110000Y-105620000D02*
X156110000Y-103120000D01*
%TO.C,U14*%
X151110000Y-103120000D02*
X151110000Y-105620000D01*
X151110000Y-104370000D02*
X151610000Y-104370000D01*
X151110000Y-105620000D02*
X151610000Y-105620000D01*
X151610000Y-102620000D02*
X151610000Y-103120000D01*
X151610000Y-103120000D02*
X151110000Y-103120000D01*
X151610000Y-105620000D02*
X151610000Y-106120000D01*
X151610000Y-106270000D02*
X151610000Y-102470000D01*
X151610000Y-106270000D02*
X152610000Y-106270000D01*
X152610000Y-102470000D02*
X151610000Y-102470000D01*
X152610000Y-102470000D02*
X152610000Y-106270000D01*
X152610000Y-103120000D02*
X152610000Y-102620000D01*
X152610000Y-104370000D02*
X153110000Y-104370000D01*
X152610000Y-105620000D02*
X153110000Y-105620000D01*
X152610000Y-106120000D02*
X152610000Y-105620000D01*
X153110000Y-103120000D02*
X152610000Y-103120000D01*
X153110000Y-105620000D02*
X153110000Y-103120000D01*
%TO.C,U22*%
X163700000Y-103120000D02*
X163700000Y-105620000D01*
X163700000Y-105620000D02*
X164200000Y-105620000D01*
X164200000Y-102620000D02*
X164200000Y-103120000D01*
X164200000Y-103120000D02*
X163700000Y-103120000D01*
X164200000Y-104370000D02*
X163700000Y-104370000D01*
X164200000Y-105620000D02*
X164200000Y-106120000D01*
X164200000Y-106270000D02*
X164200000Y-102470000D01*
X164200000Y-106270000D02*
X165200000Y-106270000D01*
X165200000Y-102470000D02*
X164200000Y-102470000D01*
X165200000Y-102470000D02*
X165200000Y-106270000D01*
X165200000Y-103120000D02*
X165200000Y-102620000D01*
X165200000Y-105620000D02*
X165700000Y-105620000D01*
X165200000Y-106120000D02*
X165200000Y-105620000D01*
X165700000Y-103120000D02*
X165200000Y-103120000D01*
X165700000Y-104370000D02*
X165200000Y-104370000D01*
X165700000Y-105620000D02*
X165700000Y-103120000D01*
%TO.C,U19*%
X157490000Y-98320000D02*
X157490000Y-100820000D01*
X157490000Y-99570000D02*
X157990000Y-99570000D01*
X157490000Y-100820000D02*
X157990000Y-100820000D01*
X157990000Y-97820000D02*
X157990000Y-98320000D01*
X157990000Y-98320000D02*
X157490000Y-98320000D01*
X157990000Y-100820000D02*
X157990000Y-101320000D01*
X157990000Y-101470000D02*
X157990000Y-97670000D01*
X157990000Y-101470000D02*
X158990000Y-101470000D01*
X158990000Y-97670000D02*
X157990000Y-97670000D01*
X158990000Y-97670000D02*
X158990000Y-101470000D01*
X158990000Y-98320000D02*
X158990000Y-97820000D01*
X158990000Y-99570000D02*
X159490000Y-99570000D01*
X158990000Y-100820000D02*
X159490000Y-100820000D01*
X158990000Y-101320000D02*
X158990000Y-100820000D01*
X159490000Y-98320000D02*
X158990000Y-98320000D01*
X159490000Y-100820000D02*
X159490000Y-98320000D01*
%TO.C,U23*%
X163700000Y-98320000D02*
X163700000Y-100820000D01*
X163700000Y-100820000D02*
X164200000Y-100820000D01*
X164200000Y-97820000D02*
X164200000Y-98320000D01*
X164200000Y-98320000D02*
X163700000Y-98320000D01*
X164200000Y-99570000D02*
X163700000Y-99570000D01*
X164200000Y-100820000D02*
X164200000Y-101320000D01*
X164200000Y-101470000D02*
X164200000Y-97670000D01*
X164200000Y-101470000D02*
X165200000Y-101470000D01*
X165200000Y-97670000D02*
X164200000Y-97670000D01*
X165200000Y-97670000D02*
X165200000Y-101470000D01*
X165200000Y-98320000D02*
X165200000Y-97820000D01*
X165200000Y-100820000D02*
X165700000Y-100820000D01*
X165200000Y-101320000D02*
X165200000Y-100820000D01*
X165700000Y-98320000D02*
X165200000Y-98320000D01*
X165700000Y-99570000D02*
X165200000Y-99570000D01*
X165700000Y-100820000D02*
X165700000Y-98320000D01*
D12*
X138025000Y-103150000D02*
X138025000Y-105650000D01*
X138175000Y-105650000D02*
G75*
G02*
X138025000Y-105650000I-75000J0D01*
G01*
X138175000Y-105650000D02*
X138175000Y-103150000D01*
X138175000Y-103150000D02*
G75*
G03*
X138025000Y-103150000I-75000J0D01*
G01*
X138100000Y-105725000D02*
X138600000Y-105725000D01*
X138600000Y-105575000D02*
G75*
G02*
X138600000Y-105725000I0J-75000D01*
G01*
X138600000Y-105575000D02*
X138100000Y-105575000D01*
X138100000Y-105575000D02*
G75*
G03*
X138100000Y-105725000I0J-75000D01*
G01*
X138525000Y-102650000D02*
X138525000Y-103150000D01*
X138675000Y-103150000D02*
G75*
G02*
X138525000Y-103150000I-75000J0D01*
G01*
X138675000Y-103150000D02*
X138675000Y-102650000D01*
X138675000Y-102650000D02*
G75*
G03*
X138525000Y-102650000I-75000J0D01*
G01*
X138600000Y-103075000D02*
X138100000Y-103075000D01*
X138100000Y-103225000D02*
G75*
G02*
X138100000Y-103075000I0J75000D01*
G01*
X138100000Y-103225000D02*
X138600000Y-103225000D01*
X138600000Y-103225000D02*
G75*
G03*
X138600000Y-103075000I0J75000D01*
G01*
X138600000Y-104325000D02*
X138100000Y-104325000D01*
X138100000Y-104475000D02*
G75*
G02*
X138100000Y-104325000I0J75000D01*
G01*
X138100000Y-104475000D02*
X138600000Y-104475000D01*
X138600000Y-104475000D02*
G75*
G03*
X138600000Y-104325000I0J75000D01*
G01*
X138525000Y-105650000D02*
X138525000Y-106150000D01*
X138675000Y-106150000D02*
G75*
G02*
X138525000Y-106150000I-75000J0D01*
G01*
X138675000Y-106150000D02*
X138675000Y-105650000D01*
X138675000Y-105650000D02*
G75*
G03*
X138525000Y-105650000I-75000J0D01*
G01*
X138675000Y-106300000D02*
X138675000Y-102500000D01*
X138525000Y-102500000D02*
G75*
G02*
X138675000Y-102500000I75000J0D01*
G01*
X138525000Y-102500000D02*
X138525000Y-106300000D01*
X138525000Y-106300000D02*
G75*
G03*
X138675000Y-106300000I75000J0D01*
G01*
X138600000Y-106375000D02*
X139600000Y-106375000D01*
X139600000Y-106225000D02*
G75*
G02*
X139600000Y-106375000I0J-75000D01*
G01*
X139600000Y-106225000D02*
X138600000Y-106225000D01*
X138600000Y-106225000D02*
G75*
G03*
X138600000Y-106375000I0J-75000D01*
G01*
X139600000Y-102425000D02*
X138600000Y-102425000D01*
X138600000Y-102575000D02*
G75*
G02*
X138600000Y-102425000I0J75000D01*
G01*
X138600000Y-102575000D02*
X139600000Y-102575000D01*
X139600000Y-102575000D02*
G75*
G03*
X139600000Y-102425000I0J75000D01*
G01*
X139525000Y-102500000D02*
X139525000Y-106300000D01*
X139675000Y-106300000D02*
G75*
G02*
X139525000Y-106300000I-75000J0D01*
G01*
X139675000Y-106300000D02*
X139675000Y-102500000D01*
X139675000Y-102500000D02*
G75*
G03*
X139525000Y-102500000I-75000J0D01*
G01*
X139675000Y-103150000D02*
X139675000Y-102650000D01*
X139525000Y-102650000D02*
G75*
G02*
X139675000Y-102650000I75000J0D01*
G01*
X139525000Y-102650000D02*
X139525000Y-103150000D01*
X139525000Y-103150000D02*
G75*
G03*
X139675000Y-103150000I75000J0D01*
G01*
X139600000Y-105725000D02*
X140100000Y-105725000D01*
X140100000Y-105575000D02*
G75*
G02*
X140100000Y-105725000I0J-75000D01*
G01*
X140100000Y-105575000D02*
X139600000Y-105575000D01*
X139600000Y-105575000D02*
G75*
G03*
X139600000Y-105725000I0J-75000D01*
G01*
X139675000Y-106150000D02*
X139675000Y-105650000D01*
X139525000Y-105650000D02*
G75*
G02*
X139675000Y-105650000I75000J0D01*
G01*
X139525000Y-105650000D02*
X139525000Y-106150000D01*
X139525000Y-106150000D02*
G75*
G03*
X139675000Y-106150000I75000J0D01*
G01*
X140100000Y-103075000D02*
X139600000Y-103075000D01*
X139600000Y-103225000D02*
G75*
G02*
X139600000Y-103075000I0J75000D01*
G01*
X139600000Y-103225000D02*
X140100000Y-103225000D01*
X140100000Y-103225000D02*
G75*
G03*
X140100000Y-103075000I0J75000D01*
G01*
X140100000Y-104325000D02*
X139600000Y-104325000D01*
X139600000Y-104475000D02*
G75*
G02*
X139600000Y-104325000I0J75000D01*
G01*
X139600000Y-104475000D02*
X140100000Y-104475000D01*
X140100000Y-104475000D02*
G75*
G03*
X140100000Y-104325000I0J75000D01*
G01*
X140175000Y-105650000D02*
X140175000Y-103150000D01*
X140025000Y-103150000D02*
G75*
G02*
X140175000Y-103150000I75000J0D01*
G01*
X140025000Y-103150000D02*
X140025000Y-105650000D01*
X140025000Y-105650000D02*
G75*
G03*
X140175000Y-105650000I75000J0D01*
G01*
X138025000Y-98150000D02*
X138025000Y-100650000D01*
X138175000Y-100650000D02*
G75*
G02*
X138025000Y-100650000I-75000J0D01*
G01*
X138175000Y-100650000D02*
X138175000Y-98150000D01*
X138175000Y-98150000D02*
G75*
G03*
X138025000Y-98150000I-75000J0D01*
G01*
X138100000Y-99475000D02*
X138600000Y-99475000D01*
X138600000Y-99325000D02*
G75*
G02*
X138600000Y-99475000I0J-75000D01*
G01*
X138600000Y-99325000D02*
X138100000Y-99325000D01*
X138100000Y-99325000D02*
G75*
G03*
X138100000Y-99475000I0J-75000D01*
G01*
X138100000Y-100725000D02*
X138600000Y-100725000D01*
X138600000Y-100575000D02*
G75*
G02*
X138600000Y-100725000I0J-75000D01*
G01*
X138600000Y-100575000D02*
X138100000Y-100575000D01*
X138100000Y-100575000D02*
G75*
G03*
X138100000Y-100725000I0J-75000D01*
G01*
X138525000Y-97650000D02*
X138525000Y-98150000D01*
X138675000Y-98150000D02*
G75*
G02*
X138525000Y-98150000I-75000J0D01*
G01*
X138675000Y-98150000D02*
X138675000Y-97650000D01*
X138675000Y-97650000D02*
G75*
G03*
X138525000Y-97650000I-75000J0D01*
G01*
X138600000Y-98075000D02*
X138100000Y-98075000D01*
X138100000Y-98225000D02*
G75*
G02*
X138100000Y-98075000I0J75000D01*
G01*
X138100000Y-98225000D02*
X138600000Y-98225000D01*
X138600000Y-98225000D02*
G75*
G03*
X138600000Y-98075000I0J75000D01*
G01*
X138525000Y-100650000D02*
X138525000Y-101150000D01*
X138675000Y-101150000D02*
G75*
G02*
X138525000Y-101150000I-75000J0D01*
G01*
X138675000Y-101150000D02*
X138675000Y-100650000D01*
X138675000Y-100650000D02*
G75*
G03*
X138525000Y-100650000I-75000J0D01*
G01*
X138675000Y-101300000D02*
X138675000Y-97500000D01*
X138525000Y-97500000D02*
G75*
G02*
X138675000Y-97500000I75000J0D01*
G01*
X138525000Y-97500000D02*
X138525000Y-101300000D01*
X138525000Y-101300000D02*
G75*
G03*
X138675000Y-101300000I75000J0D01*
G01*
X138600000Y-101375000D02*
X139600000Y-101375000D01*
X139600000Y-101225000D02*
G75*
G02*
X139600000Y-101375000I0J-75000D01*
G01*
X139600000Y-101225000D02*
X138600000Y-101225000D01*
X138600000Y-101225000D02*
G75*
G03*
X138600000Y-101375000I0J-75000D01*
G01*
X139600000Y-97425000D02*
X138600000Y-97425000D01*
X138600000Y-97575000D02*
G75*
G02*
X138600000Y-97425000I0J75000D01*
G01*
X138600000Y-97575000D02*
X139600000Y-97575000D01*
X139600000Y-97575000D02*
G75*
G03*
X139600000Y-97425000I0J75000D01*
G01*
X139525000Y-97500000D02*
X139525000Y-101300000D01*
X139675000Y-101300000D02*
G75*
G02*
X139525000Y-101300000I-75000J0D01*
G01*
X139675000Y-101300000D02*
X139675000Y-97500000D01*
X139675000Y-97500000D02*
G75*
G03*
X139525000Y-97500000I-75000J0D01*
G01*
X139675000Y-98150000D02*
X139675000Y-97650000D01*
X139525000Y-97650000D02*
G75*
G02*
X139675000Y-97650000I75000J0D01*
G01*
X139525000Y-97650000D02*
X139525000Y-98150000D01*
X139525000Y-98150000D02*
G75*
G03*
X139675000Y-98150000I75000J0D01*
G01*
X139600000Y-99475000D02*
X140100000Y-99475000D01*
X140100000Y-99325000D02*
G75*
G02*
X140100000Y-99475000I0J-75000D01*
G01*
X140100000Y-99325000D02*
X139600000Y-99325000D01*
X139600000Y-99325000D02*
G75*
G03*
X139600000Y-99475000I0J-75000D01*
G01*
X139600000Y-100725000D02*
X140100000Y-100725000D01*
X140100000Y-100575000D02*
G75*
G02*
X140100000Y-100725000I0J-75000D01*
G01*
X140100000Y-100575000D02*
X139600000Y-100575000D01*
X139600000Y-100575000D02*
G75*
G03*
X139600000Y-100725000I0J-75000D01*
G01*
X139675000Y-101150000D02*
X139675000Y-100650000D01*
X139525000Y-100650000D02*
G75*
G02*
X139675000Y-100650000I75000J0D01*
G01*
X139525000Y-100650000D02*
X139525000Y-101150000D01*
X139525000Y-101150000D02*
G75*
G03*
X139675000Y-101150000I75000J0D01*
G01*
X140100000Y-98075000D02*
X139600000Y-98075000D01*
X139600000Y-98225000D02*
G75*
G02*
X139600000Y-98075000I0J75000D01*
G01*
X139600000Y-98225000D02*
X140100000Y-98225000D01*
X140100000Y-98225000D02*
G75*
G03*
X140100000Y-98075000I0J75000D01*
G01*
X140175000Y-100650000D02*
X140175000Y-98150000D01*
X140025000Y-98150000D02*
G75*
G02*
X140175000Y-98150000I75000J0D01*
G01*
X140025000Y-98150000D02*
X140025000Y-100650000D01*
X140025000Y-100650000D02*
G75*
G03*
X140175000Y-100650000I75000J0D01*
G01*
X141025000Y-98150000D02*
X141025000Y-100650000D01*
X141175000Y-100650000D02*
G75*
G02*
X141025000Y-100650000I-75000J0D01*
G01*
X141175000Y-100650000D02*
X141175000Y-98150000D01*
X141175000Y-98150000D02*
G75*
G03*
X141025000Y-98150000I-75000J0D01*
G01*
X141100000Y-100725000D02*
X141600000Y-100725000D01*
X141600000Y-100575000D02*
G75*
G02*
X141600000Y-100725000I0J-75000D01*
G01*
X141600000Y-100575000D02*
X141100000Y-100575000D01*
X141100000Y-100575000D02*
G75*
G03*
X141100000Y-100725000I0J-75000D01*
G01*
X141525000Y-97650000D02*
X141525000Y-98150000D01*
X141675000Y-98150000D02*
G75*
G02*
X141525000Y-98150000I-75000J0D01*
G01*
X141675000Y-98150000D02*
X141675000Y-97650000D01*
X141675000Y-97650000D02*
G75*
G03*
X141525000Y-97650000I-75000J0D01*
G01*
X141600000Y-98075000D02*
X141100000Y-98075000D01*
X141100000Y-98225000D02*
G75*
G02*
X141100000Y-98075000I0J75000D01*
G01*
X141100000Y-98225000D02*
X141600000Y-98225000D01*
X141600000Y-98225000D02*
G75*
G03*
X141600000Y-98075000I0J75000D01*
G01*
X141600000Y-99325000D02*
X141100000Y-99325000D01*
X141100000Y-99475000D02*
G75*
G02*
X141100000Y-99325000I0J75000D01*
G01*
X141100000Y-99475000D02*
X141600000Y-99475000D01*
X141600000Y-99475000D02*
G75*
G03*
X141600000Y-99325000I0J75000D01*
G01*
X141525000Y-100650000D02*
X141525000Y-101150000D01*
X141675000Y-101150000D02*
G75*
G02*
X141525000Y-101150000I-75000J0D01*
G01*
X141675000Y-101150000D02*
X141675000Y-100650000D01*
X141675000Y-100650000D02*
G75*
G03*
X141525000Y-100650000I-75000J0D01*
G01*
X141675000Y-101300000D02*
X141675000Y-97500000D01*
X141525000Y-97500000D02*
G75*
G02*
X141675000Y-97500000I75000J0D01*
G01*
X141525000Y-97500000D02*
X141525000Y-101300000D01*
X141525000Y-101300000D02*
G75*
G03*
X141675000Y-101300000I75000J0D01*
G01*
X141600000Y-101375000D02*
X142600000Y-101375000D01*
X142600000Y-101225000D02*
G75*
G02*
X142600000Y-101375000I0J-75000D01*
G01*
X142600000Y-101225000D02*
X141600000Y-101225000D01*
X141600000Y-101225000D02*
G75*
G03*
X141600000Y-101375000I0J-75000D01*
G01*
X142600000Y-97425000D02*
X141600000Y-97425000D01*
X141600000Y-97575000D02*
G75*
G02*
X141600000Y-97425000I0J75000D01*
G01*
X141600000Y-97575000D02*
X142600000Y-97575000D01*
X142600000Y-97575000D02*
G75*
G03*
X142600000Y-97425000I0J75000D01*
G01*
X142525000Y-97500000D02*
X142525000Y-101300000D01*
X142675000Y-101300000D02*
G75*
G02*
X142525000Y-101300000I-75000J0D01*
G01*
X142675000Y-101300000D02*
X142675000Y-97500000D01*
X142675000Y-97500000D02*
G75*
G03*
X142525000Y-97500000I-75000J0D01*
G01*
X142675000Y-98150000D02*
X142675000Y-97650000D01*
X142525000Y-97650000D02*
G75*
G02*
X142675000Y-97650000I75000J0D01*
G01*
X142525000Y-97650000D02*
X142525000Y-98150000D01*
X142525000Y-98150000D02*
G75*
G03*
X142675000Y-98150000I75000J0D01*
G01*
X142600000Y-100725000D02*
X143100000Y-100725000D01*
X143100000Y-100575000D02*
G75*
G02*
X143100000Y-100725000I0J-75000D01*
G01*
X143100000Y-100575000D02*
X142600000Y-100575000D01*
X142600000Y-100575000D02*
G75*
G03*
X142600000Y-100725000I0J-75000D01*
G01*
X142675000Y-101150000D02*
X142675000Y-100650000D01*
X142525000Y-100650000D02*
G75*
G02*
X142675000Y-100650000I75000J0D01*
G01*
X142525000Y-100650000D02*
X142525000Y-101150000D01*
X142525000Y-101150000D02*
G75*
G03*
X142675000Y-101150000I75000J0D01*
G01*
X143100000Y-98075000D02*
X142600000Y-98075000D01*
X142600000Y-98225000D02*
G75*
G02*
X142600000Y-98075000I0J75000D01*
G01*
X142600000Y-98225000D02*
X143100000Y-98225000D01*
X143100000Y-98225000D02*
G75*
G03*
X143100000Y-98075000I0J75000D01*
G01*
X143100000Y-99325000D02*
X142600000Y-99325000D01*
X142600000Y-99475000D02*
G75*
G02*
X142600000Y-99325000I0J75000D01*
G01*
X142600000Y-99475000D02*
X143100000Y-99475000D01*
X143100000Y-99475000D02*
G75*
G03*
X143100000Y-99325000I0J75000D01*
G01*
X143175000Y-100650000D02*
X143175000Y-98150000D01*
X143025000Y-98150000D02*
G75*
G02*
X143175000Y-98150000I75000J0D01*
G01*
X143025000Y-98150000D02*
X143025000Y-100650000D01*
X143025000Y-100650000D02*
G75*
G03*
X143175000Y-100650000I75000J0D01*
G01*
%TD*%
X126440000Y-91375000D02*
X137690000Y-95025000D01*
X126440000Y-95025000D02*
X137690000Y-91375000D01*
X126440000Y-109075000D02*
X137690000Y-112725000D01*
X126440000Y-112725000D02*
X137690000Y-109075000D01*
X143525000Y-97025000D02*
X146475000Y-101775000D01*
X143525000Y-101775000D02*
X146475000Y-97025000D01*
X143525000Y-102025000D02*
X146475000Y-106775000D01*
X143525000Y-106775000D02*
X146475000Y-102025000D01*
X140625000Y-102025000D02*
X143575000Y-106775000D01*
X140625000Y-106775000D02*
X143575000Y-102025000D01*
X137625000Y-102025000D02*
X140575000Y-106775000D01*
X137625000Y-106775000D02*
X140575000Y-102025000D01*
X137625000Y-97025000D02*
X140575000Y-101775000D01*
X137625000Y-101775000D02*
X140575000Y-97025000D01*
X140625000Y-97025000D02*
X143575000Y-101775000D01*
X140625000Y-101775000D02*
X143575000Y-97025000D01*
M02*
