%TF.GenerationSoftware,KiCad,Pcbnew,9.0.0*%
%TF.CreationDate,2025-03-14T22:24:00-04:00*%
%TF.ProjectId,teensy,7465656e-7379-42e6-9b69-6361645f7063,rev?*%
%TF.SameCoordinates,Original*%
%TF.FileFunction,Legend,Bot*%
%TF.FilePolarity,Positive*%
%FSLAX46Y46*%
G04 Gerber Fmt 4.6, Leading zero omitted, Abs format (unit mm)*
G04 Created by KiCad (PCBNEW 9.0.0) date 2025-03-14 22:24:00*
%MOMM*%
%LPD*%
G01*
G04 APERTURE LIST*
%ADD10C,0.150000*%
%ADD11C,0.000000*%
%ADD12C,0.250000*%
%ADD13C,0.200000*%
G04 APERTURE END LIST*
D10*
X163240000Y-97470000D02*
X163240000Y-106470000D01*
X140900000Y-97050000D02*
X146200000Y-97050000D01*
X166150000Y-97470000D02*
X166150000Y-106470000D01*
X140550000Y-97300000D02*
X140550000Y-106500000D01*
X140900000Y-106750000D02*
X146200000Y-106750000D01*
X137650000Y-97300000D02*
X137650000Y-106500000D01*
D11*
G36*
X176611996Y-100748421D02*
G01*
X176617675Y-100748936D01*
X176623327Y-100749733D01*
X176628944Y-100750816D01*
X176634515Y-100752188D01*
X176640031Y-100753851D01*
X176645480Y-100755810D01*
X176650853Y-100758067D01*
X176656141Y-100760625D01*
X176670938Y-100769079D01*
X176676892Y-100775088D01*
X176681974Y-100784044D01*
X176686254Y-100797270D01*
X176689799Y-100816084D01*
X176694965Y-100875763D01*
X176698023Y-100973643D01*
X176699524Y-101120290D01*
X176700064Y-101602138D01*
X176699992Y-101839541D01*
X176699694Y-102023624D01*
X176699043Y-102161784D01*
X176698546Y-102215956D01*
X176697913Y-102261421D01*
X176697129Y-102299104D01*
X176696178Y-102329931D01*
X176695044Y-102354825D01*
X176693712Y-102374712D01*
X176692165Y-102390517D01*
X176690388Y-102403164D01*
X176688366Y-102413577D01*
X176686082Y-102422682D01*
X176677618Y-102450190D01*
X176667522Y-102477294D01*
X176655761Y-102504035D01*
X176642301Y-102530452D01*
X176627108Y-102556585D01*
X176610150Y-102582474D01*
X176591392Y-102608158D01*
X176570800Y-102633677D01*
X176548343Y-102659071D01*
X176523985Y-102684379D01*
X176497693Y-102709641D01*
X176469434Y-102734897D01*
X176439174Y-102760186D01*
X176406880Y-102785548D01*
X176372519Y-102811023D01*
X176336055Y-102836649D01*
X176314684Y-102851170D01*
X176294309Y-102864761D01*
X176274939Y-102877414D01*
X176256586Y-102889125D01*
X176239260Y-102899889D01*
X176222971Y-102909699D01*
X176207731Y-102918549D01*
X176193548Y-102926435D01*
X176180435Y-102933350D01*
X176168400Y-102939289D01*
X176157456Y-102944246D01*
X176147611Y-102948215D01*
X176138877Y-102951191D01*
X176131265Y-102953168D01*
X176127882Y-102953780D01*
X176124784Y-102954140D01*
X176121971Y-102954248D01*
X176119445Y-102954102D01*
X176115718Y-102953641D01*
X176112422Y-102953131D01*
X176109531Y-102952530D01*
X176107018Y-102951794D01*
X176105896Y-102951361D01*
X176104858Y-102950879D01*
X176103901Y-102950340D01*
X176103023Y-102949740D01*
X176102220Y-102949074D01*
X176101488Y-102948335D01*
X176100825Y-102947519D01*
X176100227Y-102946620D01*
X176099690Y-102945632D01*
X176099212Y-102944550D01*
X176098789Y-102943369D01*
X176098418Y-102942083D01*
X176097818Y-102939174D01*
X176097386Y-102935779D01*
X176097096Y-102931856D01*
X176096922Y-102927359D01*
X176096814Y-102916473D01*
X176096814Y-102881432D01*
X176171136Y-102828020D01*
X176203250Y-102804193D01*
X176233440Y-102780239D01*
X176261728Y-102756131D01*
X176288133Y-102731840D01*
X176312676Y-102707337D01*
X176335377Y-102682595D01*
X176356257Y-102657585D01*
X176375336Y-102632278D01*
X176392633Y-102606646D01*
X176408171Y-102580660D01*
X176421967Y-102554293D01*
X176434044Y-102527515D01*
X176444421Y-102500298D01*
X176453119Y-102472614D01*
X176460158Y-102444435D01*
X176465557Y-102415732D01*
X176467426Y-102400947D01*
X176469054Y-102382172D01*
X176471585Y-102335379D01*
X176473142Y-102280809D01*
X176473717Y-102223921D01*
X176473302Y-102170174D01*
X176471890Y-102125025D01*
X176470807Y-102107381D01*
X176469472Y-102093933D01*
X176467883Y-102085365D01*
X176466994Y-102083123D01*
X176466040Y-102082357D01*
X176461027Y-102083399D01*
X176449690Y-102086387D01*
X176410942Y-102097363D01*
X176355590Y-102113606D01*
X176289431Y-102133441D01*
X176159175Y-102174250D01*
X176028417Y-102218043D01*
X175896276Y-102265161D01*
X175761871Y-102315946D01*
X175624321Y-102370740D01*
X175482747Y-102429885D01*
X175336267Y-102493722D01*
X175184001Y-102562594D01*
X175115623Y-102594012D01*
X175087918Y-102606658D01*
X175064034Y-102617439D01*
X175043596Y-102626492D01*
X175026229Y-102633950D01*
X175018580Y-102637124D01*
X175011558Y-102639949D01*
X175005116Y-102642443D01*
X174999207Y-102644622D01*
X174993785Y-102646504D01*
X174988801Y-102648105D01*
X174984210Y-102649442D01*
X174979964Y-102650531D01*
X174976017Y-102651391D01*
X174972321Y-102652036D01*
X174968830Y-102652485D01*
X174965497Y-102652754D01*
X174962275Y-102652859D01*
X174959116Y-102652819D01*
X174955975Y-102652649D01*
X174952803Y-102652366D01*
X174946182Y-102651529D01*
X174938879Y-102650444D01*
X174935276Y-102649832D01*
X174931703Y-102649083D01*
X174928161Y-102648200D01*
X174924655Y-102647186D01*
X174917765Y-102644776D01*
X174911058Y-102641878D01*
X174904562Y-102638514D01*
X174898306Y-102634710D01*
X174892315Y-102630487D01*
X174886618Y-102625871D01*
X174881242Y-102620885D01*
X174876214Y-102615553D01*
X174871562Y-102609899D01*
X174867314Y-102603945D01*
X174863496Y-102597717D01*
X174860136Y-102591238D01*
X174858636Y-102587912D01*
X174857261Y-102584532D01*
X174856015Y-102581101D01*
X174854900Y-102577622D01*
X174854899Y-102577623D01*
X174852983Y-102570699D01*
X174851395Y-102563832D01*
X174850134Y-102557023D01*
X174849198Y-102550275D01*
X174848585Y-102543591D01*
X174848296Y-102536973D01*
X174848327Y-102530424D01*
X174848679Y-102523945D01*
X174849350Y-102517540D01*
X174850338Y-102511211D01*
X174851643Y-102504959D01*
X174853262Y-102498789D01*
X174855196Y-102492701D01*
X174857442Y-102486699D01*
X174859999Y-102480785D01*
X174862866Y-102474962D01*
X174866041Y-102469231D01*
X174869524Y-102463596D01*
X174873313Y-102458058D01*
X174877407Y-102452621D01*
X174881804Y-102447286D01*
X174886504Y-102442056D01*
X174891505Y-102436934D01*
X174896805Y-102431922D01*
X174902404Y-102427022D01*
X174908300Y-102422237D01*
X174914491Y-102417569D01*
X174920978Y-102413020D01*
X174927758Y-102408594D01*
X174934830Y-102404293D01*
X174942192Y-102400118D01*
X174949844Y-102396073D01*
X174980865Y-102382884D01*
X175029832Y-102365483D01*
X175094326Y-102344589D01*
X175171926Y-102320923D01*
X175356768Y-102268156D01*
X175565001Y-102212945D01*
X176076969Y-102081675D01*
X176274539Y-102031126D01*
X176398438Y-102000000D01*
X176469875Y-101982705D01*
X176471978Y-101746782D01*
X176472263Y-101699389D01*
X176472262Y-101655176D01*
X176471994Y-101615111D01*
X176471479Y-101580160D01*
X176470735Y-101551291D01*
X176469782Y-101529473D01*
X176469233Y-101521510D01*
X176468639Y-101515672D01*
X176468002Y-101512081D01*
X176467668Y-101511166D01*
X176467325Y-101510857D01*
X176451290Y-101514034D01*
X176412624Y-101522683D01*
X176290597Y-101551117D01*
X176096388Y-101595422D01*
X175923596Y-101631021D01*
X175844292Y-101645666D01*
X175769213Y-101658265D01*
X175697984Y-101668862D01*
X175630229Y-101677501D01*
X175565570Y-101684226D01*
X175503633Y-101689080D01*
X175444040Y-101692107D01*
X175386416Y-101693350D01*
X175330383Y-101692853D01*
X175275567Y-101690661D01*
X175221591Y-101686815D01*
X175168077Y-101681361D01*
X175134097Y-101677087D01*
X175102374Y-101672464D01*
X175072842Y-101667462D01*
X175045431Y-101662055D01*
X175020073Y-101656215D01*
X174996700Y-101649914D01*
X174985736Y-101646582D01*
X174975243Y-101643124D01*
X174965212Y-101639537D01*
X174955634Y-101635818D01*
X174946501Y-101631962D01*
X174937804Y-101627967D01*
X174929535Y-101623829D01*
X174921685Y-101619545D01*
X174914245Y-101615111D01*
X174907208Y-101610523D01*
X174900564Y-101605779D01*
X174894305Y-101600874D01*
X174888423Y-101595806D01*
X174882908Y-101590570D01*
X174877752Y-101585164D01*
X174872948Y-101579584D01*
X174868485Y-101573826D01*
X174864356Y-101567887D01*
X174860552Y-101561764D01*
X174857065Y-101555452D01*
X174854618Y-101550232D01*
X174852588Y-101544803D01*
X174850966Y-101539183D01*
X174849743Y-101533389D01*
X174848913Y-101527441D01*
X174848465Y-101521354D01*
X174848392Y-101515147D01*
X174848685Y-101508837D01*
X174849337Y-101502442D01*
X174850338Y-101495980D01*
X174851680Y-101489468D01*
X174853355Y-101482924D01*
X174855355Y-101476365D01*
X174857671Y-101469810D01*
X174860295Y-101463275D01*
X174863218Y-101456778D01*
X174866432Y-101450338D01*
X174869929Y-101443972D01*
X174873700Y-101437696D01*
X174877737Y-101431530D01*
X174882031Y-101425490D01*
X174886575Y-101419595D01*
X174891360Y-101413861D01*
X174896377Y-101408307D01*
X174901619Y-101402950D01*
X174907076Y-101397808D01*
X174912740Y-101392899D01*
X174918604Y-101388239D01*
X174924658Y-101383847D01*
X174930894Y-101379741D01*
X174937304Y-101375937D01*
X174943880Y-101372454D01*
X174952378Y-101368367D01*
X174960878Y-101364554D01*
X174969152Y-101361098D01*
X174976973Y-101358084D01*
X174980644Y-101356768D01*
X174984116Y-101355594D01*
X174987361Y-101354572D01*
X174990352Y-101353713D01*
X174993060Y-101353026D01*
X174995456Y-101352522D01*
X174997512Y-101352213D01*
X174999199Y-101352107D01*
X175001043Y-101352251D01*
X175003557Y-101352673D01*
X175010423Y-101354295D01*
X175019445Y-101356859D01*
X175030272Y-101360251D01*
X175042556Y-101364358D01*
X175055945Y-101369067D01*
X175070088Y-101374262D01*
X175084636Y-101379831D01*
X175149045Y-101403102D01*
X175216343Y-101423747D01*
X175286354Y-101441760D01*
X175358900Y-101457134D01*
X175433805Y-101469860D01*
X175510890Y-101479932D01*
X175589980Y-101487342D01*
X175670896Y-101492083D01*
X175753461Y-101494147D01*
X175837499Y-101493527D01*
X175922832Y-101490216D01*
X176009283Y-101484206D01*
X176096674Y-101475490D01*
X176184829Y-101464061D01*
X176273570Y-101449911D01*
X176362720Y-101433032D01*
X176469876Y-101411138D01*
X176473845Y-101125638D01*
X176475161Y-101035793D01*
X176475788Y-100998792D01*
X176476428Y-100966561D01*
X176477105Y-100938717D01*
X176477845Y-100914877D01*
X176478672Y-100894657D01*
X176479610Y-100877674D01*
X176480129Y-100870277D01*
X176480685Y-100863546D01*
X176481282Y-100857432D01*
X176481921Y-100851889D01*
X176482608Y-100846867D01*
X176483344Y-100842319D01*
X176484133Y-100838198D01*
X176484978Y-100834455D01*
X176485881Y-100831043D01*
X176486847Y-100827913D01*
X176487878Y-100825017D01*
X176488977Y-100822309D01*
X176490147Y-100819739D01*
X176491392Y-100817260D01*
X176494118Y-100812384D01*
X176497399Y-100807088D01*
X176500897Y-100801998D01*
X176504599Y-100797116D01*
X176508497Y-100792445D01*
X176512580Y-100787990D01*
X176516838Y-100783752D01*
X176521262Y-100779736D01*
X176525840Y-100775944D01*
X176530564Y-100772380D01*
X176535423Y-100769046D01*
X176540406Y-100765947D01*
X176545505Y-100763085D01*
X176550708Y-100760464D01*
X176556007Y-100758086D01*
X176561390Y-100755955D01*
X176566848Y-100754075D01*
X176572371Y-100752448D01*
X176577948Y-100751077D01*
X176583570Y-100749966D01*
X176589226Y-100749118D01*
X176594907Y-100748537D01*
X176600602Y-100748224D01*
X176606302Y-100748185D01*
X176611996Y-100748421D01*
G37*
D12*
G36*
X127605081Y-96737473D02*
G01*
X127654989Y-96733406D01*
X127702549Y-96720022D01*
X127711326Y-96716224D01*
X127753580Y-96691434D01*
X127788019Y-96659560D01*
X127816707Y-96618310D01*
X127832715Y-96582379D01*
X127845157Y-96533512D01*
X127848102Y-96495184D01*
X127843234Y-96446034D01*
X127832715Y-96408234D01*
X127810999Y-96361995D01*
X127788019Y-96329344D01*
X127750978Y-96296856D01*
X127711082Y-96274145D01*
X127661379Y-96258208D01*
X127612078Y-96252979D01*
X127604592Y-96252896D01*
X127554522Y-96252896D01*
X127554522Y-96395778D01*
X127604592Y-96395778D01*
X127654189Y-96405128D01*
X127680796Y-96425331D01*
X127702835Y-96470931D01*
X127705220Y-96494940D01*
X127694702Y-96543421D01*
X127680796Y-96565038D01*
X127636958Y-96591099D01*
X127604592Y-96594591D01*
X127080936Y-96594591D01*
X127031537Y-96585240D01*
X127004976Y-96565038D01*
X126982937Y-96519207D01*
X126980552Y-96494940D01*
X126991070Y-96446890D01*
X127004976Y-96425331D01*
X127048709Y-96399270D01*
X127080936Y-96395778D01*
X127267537Y-96395778D01*
X127267537Y-96512281D01*
X127392589Y-96512281D01*
X127392589Y-96252896D01*
X127080203Y-96252896D01*
X127028738Y-96256963D01*
X126981275Y-96270347D01*
X126972736Y-96274145D01*
X126929779Y-96300306D01*
X126898975Y-96329344D01*
X126870619Y-96369369D01*
X126852813Y-96408234D01*
X126840568Y-96456903D01*
X126837670Y-96495184D01*
X126842461Y-96544412D01*
X126852813Y-96582379D01*
X126874992Y-96627957D01*
X126898975Y-96659560D01*
X126934458Y-96693190D01*
X126972980Y-96716224D01*
X127022195Y-96732161D01*
X127072671Y-96737390D01*
X127080447Y-96737473D01*
X127605081Y-96737473D01*
G37*
G36*
X126845486Y-96141521D02*
G01*
X127845904Y-96141521D01*
X127845904Y-96005478D01*
X127243113Y-95784193D01*
X127845904Y-95784193D01*
X127845904Y-95641311D01*
X126845486Y-95641311D01*
X126845486Y-95774424D01*
X127446811Y-95998639D01*
X126845486Y-95998639D01*
X126845486Y-96141521D01*
G37*
G36*
X127631865Y-95066869D02*
G01*
X127684881Y-95076715D01*
X127736131Y-95097208D01*
X127778493Y-95127669D01*
X127807986Y-95162702D01*
X127831092Y-95210837D01*
X127842678Y-95261376D01*
X127845904Y-95311584D01*
X127845904Y-95520167D01*
X126845486Y-95520167D01*
X126845486Y-95324284D01*
X126846113Y-95314026D01*
X126988368Y-95314026D01*
X126988368Y-95377285D01*
X127703022Y-95377285D01*
X127703022Y-95314026D01*
X127698557Y-95273886D01*
X127671271Y-95230495D01*
X127633230Y-95213276D01*
X127582122Y-95207536D01*
X127110733Y-95207536D01*
X127064898Y-95211527D01*
X127017921Y-95231716D01*
X126995756Y-95264384D01*
X126988368Y-95314026D01*
X126846113Y-95314026D01*
X126848676Y-95272070D01*
X126860136Y-95219294D01*
X126879932Y-95173877D01*
X126912164Y-95131577D01*
X126925316Y-95119617D01*
X126966750Y-95093475D01*
X127017434Y-95075699D01*
X127069371Y-95067007D01*
X127119526Y-95064654D01*
X127587495Y-95064654D01*
X127631865Y-95066869D01*
G37*
G36*
X143648367Y-108384089D02*
G01*
X143651694Y-108333020D01*
X143663510Y-108296161D01*
X143708756Y-108273264D01*
X143733852Y-108271737D01*
X143860858Y-108271737D01*
X143907984Y-108288266D01*
X143910439Y-108290544D01*
X143929659Y-108337155D01*
X143929734Y-108341102D01*
X143914094Y-108387638D01*
X143906043Y-108394347D01*
X143860858Y-108410223D01*
X143780746Y-108410223D01*
X143780746Y-108553105D01*
X143862568Y-108553105D01*
X143912354Y-108547250D01*
X143944633Y-108536496D01*
X143986992Y-108512092D01*
X144011311Y-108490334D01*
X144041727Y-108449882D01*
X144055764Y-108421946D01*
X144069835Y-108373560D01*
X144072616Y-108338171D01*
X144067572Y-108287671D01*
X144049658Y-108241207D01*
X144020768Y-108200411D01*
X144003251Y-108183077D01*
X143969790Y-108158897D01*
X143929734Y-108141311D01*
X143881095Y-108132796D01*
X143831006Y-108129451D01*
X143793691Y-108128855D01*
X143744640Y-108128855D01*
X143710404Y-108128855D01*
X143661881Y-108135876D01*
X143657892Y-108137404D01*
X143620279Y-108165980D01*
X143592812Y-108206391D01*
X143587306Y-108216050D01*
X143558274Y-108175125D01*
X143547739Y-108163782D01*
X143505729Y-108137404D01*
X143456431Y-108129064D01*
X143445889Y-108128855D01*
X143395610Y-108128855D01*
X143358206Y-108128855D01*
X143308232Y-108128855D01*
X143276629Y-108128855D01*
X143227421Y-108132265D01*
X143223384Y-108133007D01*
X143185526Y-108144242D01*
X143153531Y-108162561D01*
X143115350Y-108195242D01*
X143088073Y-108230949D01*
X143068656Y-108279064D01*
X143062411Y-108327870D01*
X143062184Y-108340369D01*
X143067862Y-108391092D01*
X143073175Y-108412177D01*
X143092752Y-108457037D01*
X143109811Y-108481297D01*
X143147573Y-108515969D01*
X143176001Y-108532833D01*
X143224440Y-108548651D01*
X143275652Y-108553105D01*
X143357229Y-108553105D01*
X143357229Y-108410223D01*
X143282491Y-108410223D01*
X143233959Y-108397008D01*
X143226803Y-108391660D01*
X143205257Y-108346983D01*
X143205066Y-108341102D01*
X143222919Y-108294142D01*
X143226803Y-108290544D01*
X143272198Y-108272398D01*
X143285422Y-108271737D01*
X143428792Y-108271737D01*
X143477763Y-108277294D01*
X143506461Y-108293963D01*
X143520383Y-108327913D01*
X143523288Y-108377702D01*
X143523314Y-108384089D01*
X143648367Y-108384089D01*
G37*
G36*
X144070418Y-107527773D02*
G01*
X143070000Y-107731960D01*
X143070000Y-107857990D01*
X144070418Y-108060956D01*
X144070418Y-107909769D01*
X143372128Y-107796441D01*
X143372128Y-107793754D01*
X144070418Y-107678960D01*
X144070418Y-107527773D01*
G37*
G36*
X143648367Y-107293789D02*
G01*
X143651694Y-107242720D01*
X143663510Y-107205861D01*
X143708756Y-107182964D01*
X143733852Y-107181437D01*
X143860858Y-107181437D01*
X143907984Y-107197966D01*
X143910439Y-107200244D01*
X143929659Y-107246855D01*
X143929734Y-107250802D01*
X143914094Y-107297338D01*
X143906043Y-107304047D01*
X143860858Y-107319923D01*
X143780746Y-107319923D01*
X143780746Y-107462805D01*
X143862568Y-107462805D01*
X143912354Y-107456950D01*
X143944633Y-107446196D01*
X143986992Y-107421792D01*
X144011311Y-107400034D01*
X144041727Y-107359582D01*
X144055764Y-107331646D01*
X144069835Y-107283260D01*
X144072616Y-107247871D01*
X144067572Y-107197371D01*
X144049658Y-107150907D01*
X144020768Y-107110110D01*
X144003251Y-107092777D01*
X143969790Y-107068597D01*
X143929734Y-107051011D01*
X143881095Y-107042496D01*
X143831006Y-107039151D01*
X143793691Y-107038555D01*
X143744640Y-107038555D01*
X143710404Y-107038555D01*
X143661881Y-107045576D01*
X143657892Y-107047103D01*
X143620279Y-107075680D01*
X143592812Y-107116091D01*
X143587306Y-107125750D01*
X143558274Y-107084825D01*
X143547739Y-107073482D01*
X143505729Y-107047103D01*
X143456431Y-107038764D01*
X143445889Y-107038555D01*
X143395610Y-107038555D01*
X143358206Y-107038555D01*
X143308232Y-107038555D01*
X143276629Y-107038555D01*
X143227421Y-107041965D01*
X143223384Y-107042707D01*
X143185526Y-107053942D01*
X143153531Y-107072260D01*
X143115350Y-107104942D01*
X143088073Y-107140648D01*
X143068656Y-107188764D01*
X143062411Y-107237570D01*
X143062184Y-107250069D01*
X143067862Y-107300792D01*
X143073175Y-107321877D01*
X143092752Y-107366737D01*
X143109811Y-107390997D01*
X143147573Y-107425668D01*
X143176001Y-107442533D01*
X143224440Y-107458350D01*
X143275652Y-107462805D01*
X143357229Y-107462805D01*
X143357229Y-107319923D01*
X143282491Y-107319923D01*
X143233959Y-107306708D01*
X143226803Y-107301360D01*
X143205257Y-107256683D01*
X143205066Y-107250802D01*
X143222919Y-107203842D01*
X143226803Y-107200244D01*
X143272198Y-107182098D01*
X143285422Y-107181437D01*
X143428792Y-107181437D01*
X143477763Y-107186994D01*
X143506461Y-107203663D01*
X143520383Y-107237613D01*
X143523288Y-107287402D01*
X143523314Y-107293789D01*
X143648367Y-107293789D01*
G37*
G36*
X155660418Y-96645617D02*
G01*
X155660418Y-96764563D01*
X154660000Y-96987313D01*
X154660000Y-96844431D01*
X154878841Y-96802421D01*
X154878841Y-96777264D01*
X155021723Y-96777264D01*
X155377585Y-96707166D01*
X155377585Y-96704480D01*
X155021723Y-96634382D01*
X155021723Y-96777264D01*
X154878841Y-96777264D01*
X154878841Y-96607759D01*
X154660000Y-96565750D01*
X154660000Y-96423112D01*
X155660418Y-96645617D01*
G37*
G36*
X155238367Y-96204515D02*
G01*
X155241694Y-96153445D01*
X155253510Y-96116587D01*
X155298756Y-96093689D01*
X155323852Y-96092163D01*
X155450858Y-96092163D01*
X155497984Y-96108692D01*
X155500439Y-96110969D01*
X155519659Y-96157581D01*
X155519734Y-96161528D01*
X155504094Y-96208064D01*
X155496043Y-96214773D01*
X155450858Y-96230648D01*
X155370746Y-96230648D01*
X155370746Y-96373531D01*
X155452568Y-96373531D01*
X155502354Y-96367675D01*
X155534633Y-96356922D01*
X155576992Y-96332518D01*
X155601311Y-96310760D01*
X155631727Y-96270307D01*
X155645764Y-96242372D01*
X155659835Y-96193986D01*
X155662616Y-96158597D01*
X155657572Y-96108097D01*
X155639658Y-96061632D01*
X155610768Y-96020836D01*
X155593251Y-96003503D01*
X155559790Y-95979323D01*
X155519734Y-95961737D01*
X155471095Y-95953222D01*
X155421006Y-95949877D01*
X155383691Y-95949281D01*
X155334640Y-95949281D01*
X155300404Y-95949281D01*
X155251881Y-95956302D01*
X155247892Y-95957829D01*
X155210279Y-95986406D01*
X155182812Y-96026817D01*
X155177306Y-96036475D01*
X155148274Y-95995550D01*
X155137739Y-95984207D01*
X155095729Y-95957829D01*
X155046431Y-95949489D01*
X155035889Y-95949281D01*
X154985610Y-95949281D01*
X154948206Y-95949281D01*
X154898232Y-95949281D01*
X154866629Y-95949281D01*
X154817421Y-95952691D01*
X154813384Y-95953433D01*
X154775526Y-95964668D01*
X154743531Y-95982986D01*
X154705350Y-96015668D01*
X154678073Y-96051374D01*
X154658656Y-96099490D01*
X154652411Y-96148296D01*
X154652184Y-96160795D01*
X154657862Y-96211518D01*
X154663175Y-96232602D01*
X154682752Y-96277463D01*
X154699811Y-96301723D01*
X154737573Y-96336394D01*
X154766001Y-96353258D01*
X154814440Y-96369076D01*
X154865652Y-96373531D01*
X154947229Y-96373531D01*
X154947229Y-96230648D01*
X154872491Y-96230648D01*
X154823959Y-96217434D01*
X154816803Y-96212086D01*
X154795257Y-96167409D01*
X154795066Y-96161528D01*
X154812919Y-96114568D01*
X154816803Y-96110969D01*
X154862198Y-96092824D01*
X154875422Y-96092163D01*
X155018792Y-96092163D01*
X155067763Y-96097719D01*
X155096461Y-96114389D01*
X155110383Y-96148339D01*
X155113288Y-96198127D01*
X155113314Y-96204515D01*
X155238367Y-96204515D01*
G37*
G36*
X157850000Y-96781158D02*
G01*
X158698743Y-96781158D01*
X158593230Y-96921842D01*
X158745150Y-96921842D01*
X158850418Y-96781158D01*
X158850418Y-96638276D01*
X157850000Y-96638276D01*
X157850000Y-96781158D01*
G37*
G36*
X158637921Y-96008141D02*
G01*
X158687752Y-96011060D01*
X158724145Y-96022295D01*
X158756140Y-96039148D01*
X158796135Y-96072060D01*
X158826727Y-96114131D01*
X158831353Y-96122989D01*
X158847661Y-96170631D01*
X158852616Y-96220132D01*
X158852393Y-96231199D01*
X158845447Y-96280005D01*
X158827215Y-96327110D01*
X158823988Y-96332958D01*
X158794558Y-96372009D01*
X158755896Y-96402581D01*
X158723900Y-96418946D01*
X158687508Y-96427983D01*
X158683216Y-96428768D01*
X158633531Y-96432379D01*
X158602642Y-96432379D01*
X158553175Y-96432379D01*
X158505550Y-96432379D01*
X158455722Y-96432379D01*
X158441723Y-96432225D01*
X158391974Y-96427983D01*
X158350697Y-96419678D01*
X158320655Y-96404047D01*
X158305747Y-96392524D01*
X158274494Y-96353244D01*
X158264834Y-96332369D01*
X158256175Y-96282414D01*
X158259595Y-96243579D01*
X158268632Y-96221842D01*
X158267288Y-96220376D01*
X158381472Y-96220376D01*
X158381548Y-96223800D01*
X158401011Y-96268736D01*
X158406148Y-96273602D01*
X158452791Y-96289497D01*
X158638171Y-96289497D01*
X158644105Y-96289315D01*
X158689951Y-96268736D01*
X158692346Y-96266115D01*
X158709734Y-96220376D01*
X158709657Y-96216924D01*
X158689951Y-96171772D01*
X158684867Y-96166906D01*
X158638171Y-96151011D01*
X158452791Y-96151011D01*
X158446899Y-96151194D01*
X158401011Y-96171772D01*
X158398645Y-96174395D01*
X158381472Y-96220376D01*
X158267288Y-96220376D01*
X158265945Y-96218911D01*
X157850000Y-96381332D01*
X157850000Y-96221598D01*
X158349965Y-96032065D01*
X158386845Y-96020341D01*
X158426657Y-96011060D01*
X158427978Y-96010880D01*
X158477704Y-96008129D01*
X158504733Y-96008129D01*
X158553663Y-96008129D01*
X158582605Y-96008129D01*
X158634019Y-96008129D01*
X158637921Y-96008141D01*
G37*
D13*
G36*
X179284316Y-105837341D02*
G01*
X179326729Y-105845217D01*
X179367729Y-105861611D01*
X179401619Y-105885980D01*
X179425213Y-105914007D01*
X179443698Y-105952515D01*
X179452967Y-105992946D01*
X179455547Y-106033112D01*
X179455547Y-106199979D01*
X178655213Y-106199979D01*
X178655213Y-106043272D01*
X178655714Y-106035066D01*
X178769518Y-106035066D01*
X178769518Y-106085673D01*
X179341242Y-106085673D01*
X179341242Y-106035066D01*
X179337670Y-106002954D01*
X179315841Y-105968241D01*
X179285408Y-105954466D01*
X179244522Y-105949874D01*
X178867411Y-105949874D01*
X178830743Y-105953066D01*
X178793161Y-105969218D01*
X178775429Y-105995352D01*
X178769518Y-106035066D01*
X178655714Y-106035066D01*
X178657765Y-106001501D01*
X178666933Y-105959280D01*
X178682769Y-105922946D01*
X178708555Y-105889106D01*
X178719077Y-105879538D01*
X178752224Y-105858625D01*
X178792771Y-105844404D01*
X178834321Y-105837450D01*
X178874445Y-105835568D01*
X179248820Y-105835568D01*
X179284316Y-105837341D01*
G37*
G36*
X178655213Y-105723217D02*
G01*
X179455547Y-105723217D01*
X179455547Y-105385575D01*
X179341242Y-105385575D01*
X179341242Y-105608911D01*
X179119665Y-105608911D01*
X179119665Y-105410586D01*
X179005359Y-105410586D01*
X179005359Y-105608911D01*
X178769518Y-105608911D01*
X178769518Y-105385575D01*
X178655213Y-105385575D01*
X178655213Y-105723217D01*
G37*
G36*
X179221465Y-104944570D02*
G01*
X179221465Y-105058876D01*
X179247062Y-105058876D01*
X179287625Y-105064440D01*
X179314473Y-105076461D01*
X179338989Y-105107831D01*
X179343000Y-105135666D01*
X179334012Y-105171814D01*
X179311737Y-105194089D01*
X179278716Y-105205812D01*
X179240418Y-105208939D01*
X179201144Y-105207376D01*
X179173203Y-105199169D01*
X179151905Y-105180020D01*
X179134319Y-105146022D01*
X179099734Y-105061025D01*
X179082785Y-105025758D01*
X179065540Y-105001235D01*
X179035811Y-104974418D01*
X179020404Y-104965282D01*
X178982245Y-104952920D01*
X178959637Y-104949064D01*
X178918359Y-104945431D01*
X178882065Y-104944570D01*
X178842584Y-104946215D01*
X178802663Y-104951665D01*
X178789058Y-104954535D01*
X178751548Y-104966583D01*
X178715785Y-104986775D01*
X178686373Y-105015769D01*
X178666741Y-105048129D01*
X178653978Y-105087176D01*
X178649238Y-105126989D01*
X178648960Y-105140355D01*
X178652575Y-105180069D01*
X178663419Y-105217145D01*
X178682078Y-105252117D01*
X178703670Y-105278304D01*
X178735283Y-105303761D01*
X178763461Y-105318946D01*
X178801502Y-105330685D01*
X178837906Y-105333991D01*
X178880307Y-105333991D01*
X178880307Y-105219685D01*
X178844745Y-105219685D01*
X178806321Y-105211860D01*
X178788276Y-105201514D01*
X178766221Y-105166977D01*
X178763266Y-105140355D01*
X178769247Y-105101066D01*
X178771667Y-105095806D01*
X178795506Y-105070990D01*
X178833021Y-105060635D01*
X178873238Y-105058919D01*
X178881479Y-105058876D01*
X178920565Y-105059986D01*
X178932672Y-105061025D01*
X178965108Y-105069623D01*
X178985233Y-105089748D01*
X179002037Y-105122965D01*
X179035450Y-105202491D01*
X179054000Y-105239103D01*
X179078165Y-105271045D01*
X179109066Y-105295559D01*
X179115171Y-105298820D01*
X179152270Y-105312726D01*
X179191165Y-105320358D01*
X179230381Y-105323149D01*
X179239637Y-105323244D01*
X179280458Y-105320626D01*
X179319390Y-105312769D01*
X179324438Y-105311325D01*
X179361905Y-105296182D01*
X179393803Y-105274982D01*
X179421220Y-105246955D01*
X179439916Y-105216364D01*
X179452958Y-105177187D01*
X179457238Y-105137298D01*
X179457306Y-105131172D01*
X179453398Y-105091311D01*
X179441674Y-105054968D01*
X179422198Y-105020869D01*
X179400251Y-104995177D01*
X179368884Y-104970714D01*
X179331095Y-104952922D01*
X179290215Y-104945015D01*
X179277348Y-104944570D01*
X179221465Y-104944570D01*
G37*
G36*
X178655213Y-104842379D02*
G01*
X179455547Y-104842379D01*
X179455547Y-104728073D01*
X178655213Y-104728073D01*
X178655213Y-104842379D01*
G37*
G36*
X179262889Y-104626664D02*
G01*
X179302816Y-104623410D01*
X179340863Y-104612702D01*
X179347885Y-104609665D01*
X179381688Y-104589832D01*
X179409239Y-104564333D01*
X179432189Y-104531333D01*
X179444996Y-104502588D01*
X179454950Y-104463495D01*
X179457306Y-104432833D01*
X179453411Y-104393513D01*
X179444996Y-104363272D01*
X179427624Y-104326281D01*
X179409239Y-104300160D01*
X179379606Y-104274170D01*
X179347690Y-104256001D01*
X179307927Y-104243251D01*
X179268486Y-104239068D01*
X179262498Y-104239002D01*
X179222442Y-104239002D01*
X179222442Y-104353307D01*
X179262498Y-104353307D01*
X179302175Y-104360788D01*
X179323461Y-104376950D01*
X179341092Y-104413430D01*
X179343000Y-104432637D01*
X179334585Y-104471422D01*
X179323461Y-104488715D01*
X179288391Y-104509564D01*
X179262498Y-104512358D01*
X178843573Y-104512358D01*
X178804053Y-104504877D01*
X178782805Y-104488715D01*
X178765174Y-104452051D01*
X178763266Y-104432637D01*
X178771680Y-104394197D01*
X178782805Y-104376950D01*
X178817791Y-104356101D01*
X178843573Y-104353307D01*
X178992854Y-104353307D01*
X178992854Y-104446510D01*
X179092896Y-104446510D01*
X179092896Y-104239002D01*
X178842986Y-104239002D01*
X178801815Y-104242255D01*
X178763844Y-104252963D01*
X178757013Y-104256001D01*
X178722648Y-104276930D01*
X178698004Y-104300160D01*
X178675320Y-104332180D01*
X178661074Y-104363272D01*
X178651279Y-104402208D01*
X178648960Y-104432833D01*
X178652793Y-104472215D01*
X178661074Y-104502588D01*
X178678818Y-104539051D01*
X178698004Y-104564333D01*
X178726391Y-104591238D01*
X178757208Y-104609665D01*
X178796580Y-104622414D01*
X178836961Y-104626597D01*
X178843182Y-104626664D01*
X179262889Y-104626664D01*
G37*
G36*
X178655213Y-104149902D02*
G01*
X179455547Y-104149902D01*
X179455547Y-104041067D01*
X178973314Y-103864040D01*
X179455547Y-103864040D01*
X179455547Y-103749734D01*
X178655213Y-103749734D01*
X178655213Y-103856224D01*
X179136273Y-104035596D01*
X178655213Y-104035596D01*
X178655213Y-104149902D01*
G37*
G36*
X178655213Y-103652819D02*
G01*
X179455547Y-103652819D01*
X179455547Y-103315177D01*
X179341242Y-103315177D01*
X179341242Y-103538513D01*
X179119665Y-103538513D01*
X179119665Y-103340188D01*
X179005359Y-103340188D01*
X179005359Y-103538513D01*
X178769518Y-103538513D01*
X178769518Y-103315177D01*
X178655213Y-103315177D01*
X178655213Y-103652819D01*
G37*
G36*
X179284316Y-102875945D02*
G01*
X179326729Y-102883822D01*
X179367729Y-102900215D01*
X179401619Y-102924584D01*
X179425213Y-102952611D01*
X179443698Y-102991119D01*
X179452967Y-103031550D01*
X179455547Y-103071716D01*
X179455547Y-103238583D01*
X178655213Y-103238583D01*
X178655213Y-103081877D01*
X178655714Y-103073670D01*
X178769518Y-103073670D01*
X178769518Y-103124277D01*
X179341242Y-103124277D01*
X179341242Y-103073670D01*
X179337670Y-103041558D01*
X179315841Y-103006845D01*
X179285408Y-102993070D01*
X179244522Y-102988478D01*
X178867411Y-102988478D01*
X178830743Y-102991671D01*
X178793161Y-103007822D01*
X178775429Y-103033956D01*
X178769518Y-103073670D01*
X178655714Y-103073670D01*
X178657765Y-103040105D01*
X178666933Y-102997885D01*
X178682769Y-102961551D01*
X178708555Y-102927711D01*
X178719077Y-102918143D01*
X178752224Y-102897229D01*
X178792771Y-102883008D01*
X178834321Y-102876055D01*
X178874445Y-102874173D01*
X179248820Y-102874173D01*
X179284316Y-102875945D01*
G37*
G36*
X178943850Y-102179479D02*
G01*
X178984663Y-102185194D01*
X179022554Y-102199085D01*
X179027149Y-102201690D01*
X179057133Y-102226921D01*
X179079218Y-102262198D01*
X179102033Y-102227719D01*
X179132561Y-102200062D01*
X179134683Y-102198764D01*
X179171640Y-102184235D01*
X179186535Y-102181350D01*
X179226155Y-102178764D01*
X179255268Y-102178764D01*
X179291121Y-102181169D01*
X179330300Y-102189706D01*
X179360358Y-102201803D01*
X179394389Y-102225268D01*
X179419351Y-102253845D01*
X179438744Y-102289553D01*
X179444454Y-102304858D01*
X179453184Y-102345057D01*
X179455547Y-102384515D01*
X179455547Y-102553921D01*
X178655213Y-102553921D01*
X178655213Y-102395847D01*
X178655293Y-102390767D01*
X178769518Y-102390767D01*
X178769518Y-102439616D01*
X179030370Y-102439616D01*
X179030370Y-102389595D01*
X179030347Y-102388618D01*
X179130411Y-102388618D01*
X179130411Y-102439616D01*
X179341242Y-102439616D01*
X179341242Y-102392916D01*
X179341216Y-102389409D01*
X179336268Y-102350067D01*
X179315254Y-102314759D01*
X179278139Y-102297221D01*
X179238074Y-102293070D01*
X179234801Y-102293089D01*
X179194153Y-102297320D01*
X179157767Y-102312414D01*
X179156084Y-102313660D01*
X179134926Y-102348611D01*
X179130411Y-102388618D01*
X179030347Y-102388618D01*
X179030108Y-102378377D01*
X179022945Y-102339769D01*
X178999693Y-102309678D01*
X178998673Y-102309062D01*
X178960614Y-102296392D01*
X178947121Y-102294786D01*
X178906880Y-102293070D01*
X178892311Y-102293217D01*
X178851975Y-102295415D01*
X178847309Y-102295885D01*
X178808402Y-102307334D01*
X178807274Y-102307978D01*
X178779874Y-102336838D01*
X178773978Y-102351938D01*
X178769518Y-102390767D01*
X178655293Y-102390767D01*
X178655434Y-102381898D01*
X178658754Y-102342944D01*
X178667663Y-102302985D01*
X178684485Y-102264554D01*
X178711877Y-102230544D01*
X178719155Y-102224274D01*
X178752158Y-102203238D01*
X178791389Y-102188675D01*
X178830826Y-102181242D01*
X178875031Y-102178764D01*
X178920558Y-102178764D01*
X178943850Y-102179479D01*
G37*
G36*
X178655213Y-101964612D02*
G01*
X178993635Y-101964612D01*
X179455547Y-102121514D01*
X179455547Y-102000565D01*
X179137446Y-101908534D01*
X179137446Y-101906189D01*
X179455547Y-101814354D01*
X179455547Y-101693405D01*
X178993635Y-101850307D01*
X178655213Y-101850307D01*
X178655213Y-101964612D01*
G37*
G36*
X179284316Y-101072065D02*
G01*
X179326729Y-101079942D01*
X179367729Y-101096335D01*
X179401619Y-101120704D01*
X179425213Y-101148731D01*
X179443698Y-101187239D01*
X179452967Y-101227670D01*
X179455547Y-101267836D01*
X179455547Y-101434703D01*
X178655213Y-101434703D01*
X178655213Y-101277997D01*
X178655714Y-101269790D01*
X178769518Y-101269790D01*
X178769518Y-101320397D01*
X179341242Y-101320397D01*
X179341242Y-101269790D01*
X179337670Y-101237678D01*
X179315841Y-101202965D01*
X179285408Y-101189190D01*
X179244522Y-101184598D01*
X178867411Y-101184598D01*
X178830743Y-101187791D01*
X178793161Y-101203942D01*
X178775429Y-101230076D01*
X178769518Y-101269790D01*
X178655714Y-101269790D01*
X178657765Y-101236225D01*
X178666933Y-101194005D01*
X178682769Y-101157671D01*
X178708555Y-101123831D01*
X178719077Y-101114263D01*
X178752224Y-101093349D01*
X178792771Y-101079128D01*
X178834321Y-101072175D01*
X178874445Y-101070293D01*
X179248820Y-101070293D01*
X179284316Y-101072065D01*
G37*
G36*
X178655213Y-100945436D02*
G01*
X179455547Y-100945436D01*
X179455547Y-100831130D01*
X178655213Y-100831130D01*
X178655213Y-100945436D01*
G37*
G36*
X179268854Y-100342125D02*
G01*
X179308171Y-100346308D01*
X179347885Y-100359057D01*
X179379759Y-100377227D01*
X179409239Y-100403217D01*
X179427720Y-100429338D01*
X179444996Y-100466329D01*
X179453411Y-100496569D01*
X179457306Y-100535889D01*
X179454950Y-100566552D01*
X179444996Y-100605645D01*
X179432189Y-100634389D01*
X179409239Y-100667390D01*
X179381688Y-100692889D01*
X179347885Y-100712721D01*
X179340863Y-100715759D01*
X179302816Y-100726467D01*
X179262889Y-100729720D01*
X178843182Y-100729720D01*
X178836961Y-100729654D01*
X178796580Y-100725471D01*
X178757208Y-100712721D01*
X178726391Y-100694294D01*
X178698004Y-100667390D01*
X178678818Y-100642107D01*
X178661074Y-100605645D01*
X178652793Y-100575271D01*
X178648960Y-100535889D01*
X178648975Y-100535694D01*
X178763266Y-100535694D01*
X178765174Y-100555107D01*
X178782805Y-100591772D01*
X178804053Y-100607934D01*
X178843573Y-100615415D01*
X179262498Y-100615415D01*
X179288391Y-100612621D01*
X179323461Y-100591772D01*
X179334585Y-100574479D01*
X179343000Y-100535694D01*
X179341092Y-100516486D01*
X179323461Y-100480006D01*
X179302175Y-100463844D01*
X179262498Y-100456364D01*
X178843573Y-100456364D01*
X178817791Y-100459157D01*
X178782805Y-100480006D01*
X178771680Y-100497254D01*
X178763266Y-100535694D01*
X178648975Y-100535694D01*
X178651279Y-100505264D01*
X178661074Y-100466329D01*
X178675320Y-100435237D01*
X178698004Y-100403217D01*
X178722691Y-100379987D01*
X178757208Y-100359057D01*
X178764040Y-100356019D01*
X178802010Y-100345312D01*
X178843182Y-100342058D01*
X179262889Y-100342058D01*
X179268854Y-100342125D01*
G37*
G36*
X179284316Y-99890320D02*
G01*
X179326729Y-99898197D01*
X179367729Y-99914591D01*
X179401619Y-99938960D01*
X179425213Y-99966987D01*
X179443698Y-100005494D01*
X179452967Y-100045926D01*
X179455547Y-100086092D01*
X179455547Y-100252958D01*
X178655213Y-100252958D01*
X178655213Y-100096252D01*
X178655714Y-100088046D01*
X178769518Y-100088046D01*
X178769518Y-100138653D01*
X179341242Y-100138653D01*
X179341242Y-100088046D01*
X179337670Y-100055934D01*
X179315841Y-100021221D01*
X179285408Y-100007445D01*
X179244522Y-100002854D01*
X178867411Y-100002854D01*
X178830743Y-100006046D01*
X178793161Y-100022198D01*
X178775429Y-100048332D01*
X178769518Y-100088046D01*
X178655714Y-100088046D01*
X178657765Y-100054481D01*
X178666933Y-100012260D01*
X178682769Y-99975926D01*
X178708555Y-99942086D01*
X178719077Y-99932518D01*
X178752224Y-99911605D01*
X178792771Y-99897384D01*
X178834321Y-99890430D01*
X178874445Y-99888548D01*
X179248820Y-99888548D01*
X179284316Y-99890320D01*
G37*
G36*
X178655213Y-99776196D02*
G01*
X179455547Y-99776196D01*
X179455547Y-99438555D01*
X179341242Y-99438555D01*
X179341242Y-99661891D01*
X179119665Y-99661891D01*
X179119665Y-99463565D01*
X179005359Y-99463565D01*
X179005359Y-99661891D01*
X178769518Y-99661891D01*
X178769518Y-99438555D01*
X178655213Y-99438555D01*
X178655213Y-99776196D01*
G37*
G36*
X178570411Y-99361960D02*
G01*
X178767760Y-99361960D01*
X178767760Y-99247655D01*
X178653454Y-99247655D01*
X178570411Y-99361960D01*
G37*
G36*
X178655213Y-98933656D02*
G01*
X179455547Y-98933656D01*
X179455547Y-98819351D01*
X178655213Y-98819351D01*
X178655213Y-98933656D01*
G37*
G36*
X178655213Y-98717941D02*
G01*
X179455547Y-98717941D01*
X179455547Y-98609106D01*
X178973314Y-98432079D01*
X179455547Y-98432079D01*
X179455547Y-98317773D01*
X178655213Y-98317773D01*
X178655213Y-98424263D01*
X179136273Y-98603635D01*
X178655213Y-98603635D01*
X178655213Y-98717941D01*
G37*
G36*
X178882651Y-97856448D02*
G01*
X178833412Y-97856448D01*
X178793103Y-97860837D01*
X178763461Y-97870321D01*
X178728599Y-97889046D01*
X178704647Y-97908227D01*
X178679190Y-97938301D01*
X178664005Y-97965282D01*
X178651840Y-98003379D01*
X178648960Y-98035233D01*
X178652395Y-98075839D01*
X178657753Y-98100495D01*
X178673110Y-98137435D01*
X178689016Y-98160090D01*
X178718252Y-98187018D01*
X178746462Y-98203859D01*
X178783771Y-98216060D01*
X178823120Y-98220592D01*
X178836538Y-98220858D01*
X179274222Y-98220858D01*
X179314144Y-98217163D01*
X179346713Y-98207766D01*
X179381616Y-98189357D01*
X179404745Y-98170251D01*
X179430192Y-98137846D01*
X179443238Y-98112023D01*
X179454215Y-98074275D01*
X179457306Y-98037578D01*
X179453148Y-97995194D01*
X179440675Y-97957509D01*
X179417064Y-97921147D01*
X179404745Y-97908227D01*
X179372761Y-97884308D01*
X179343782Y-97870321D01*
X179304745Y-97859496D01*
X179267187Y-97856448D01*
X179222637Y-97856448D01*
X179222637Y-97970753D01*
X179260544Y-97970753D01*
X179300527Y-97978663D01*
X179318381Y-97989120D01*
X179341053Y-98022005D01*
X179343000Y-98038555D01*
X179333770Y-98077569D01*
X179316818Y-98093070D01*
X179278594Y-98104656D01*
X179250383Y-98106552D01*
X178844745Y-98106552D01*
X178805865Y-98100904D01*
X178786713Y-98092093D01*
X178765120Y-98059116D01*
X178763266Y-98039727D01*
X178767173Y-98016671D01*
X178780069Y-97993419D01*
X178804494Y-97977201D01*
X178843573Y-97970753D01*
X178882651Y-97970753D01*
X178882651Y-97856448D01*
G37*
G36*
X178655213Y-97765198D02*
G01*
X178769518Y-97765198D01*
X178769518Y-97650893D01*
X178655213Y-97650893D01*
X178655213Y-97765198D01*
G37*
D12*
G36*
X128201081Y-108937473D02*
G01*
X128250989Y-108933406D01*
X128298549Y-108920022D01*
X128307326Y-108916224D01*
X128349580Y-108891434D01*
X128384019Y-108859560D01*
X128412707Y-108818310D01*
X128428715Y-108782379D01*
X128441157Y-108733512D01*
X128444102Y-108695184D01*
X128439234Y-108646034D01*
X128428715Y-108608234D01*
X128406999Y-108561995D01*
X128384019Y-108529344D01*
X128346978Y-108496856D01*
X128307082Y-108474145D01*
X128257379Y-108458208D01*
X128208078Y-108452979D01*
X128200592Y-108452896D01*
X128150522Y-108452896D01*
X128150522Y-108595778D01*
X128200592Y-108595778D01*
X128250189Y-108605128D01*
X128276796Y-108625331D01*
X128298835Y-108670931D01*
X128301220Y-108694940D01*
X128290702Y-108743421D01*
X128276796Y-108765038D01*
X128232958Y-108791099D01*
X128200592Y-108794591D01*
X127676936Y-108794591D01*
X127627537Y-108785240D01*
X127600976Y-108765038D01*
X127578937Y-108719207D01*
X127576552Y-108694940D01*
X127587070Y-108646890D01*
X127600976Y-108625331D01*
X127644709Y-108599270D01*
X127676936Y-108595778D01*
X127863537Y-108595778D01*
X127863537Y-108712281D01*
X127988589Y-108712281D01*
X127988589Y-108452896D01*
X127676203Y-108452896D01*
X127624738Y-108456963D01*
X127577275Y-108470347D01*
X127568736Y-108474145D01*
X127525779Y-108500306D01*
X127494975Y-108529344D01*
X127466619Y-108569369D01*
X127448813Y-108608234D01*
X127436568Y-108656903D01*
X127433670Y-108695184D01*
X127438461Y-108744412D01*
X127448813Y-108782379D01*
X127470992Y-108827957D01*
X127494975Y-108859560D01*
X127530458Y-108893190D01*
X127568980Y-108916224D01*
X127618195Y-108932161D01*
X127668671Y-108937390D01*
X127676447Y-108937473D01*
X128201081Y-108937473D01*
G37*
G36*
X127441486Y-108341521D02*
G01*
X128441904Y-108341521D01*
X128441904Y-108205478D01*
X127839113Y-107984193D01*
X128441904Y-107984193D01*
X128441904Y-107841311D01*
X127441486Y-107841311D01*
X127441486Y-107974424D01*
X128042811Y-108198639D01*
X127441486Y-108198639D01*
X127441486Y-108341521D01*
G37*
G36*
X128227865Y-107266869D02*
G01*
X128280881Y-107276715D01*
X128332131Y-107297208D01*
X128374493Y-107327669D01*
X128403986Y-107362702D01*
X128427092Y-107410837D01*
X128438678Y-107461376D01*
X128441904Y-107511584D01*
X128441904Y-107720167D01*
X127441486Y-107720167D01*
X127441486Y-107524284D01*
X127442113Y-107514026D01*
X127584368Y-107514026D01*
X127584368Y-107577285D01*
X128299022Y-107577285D01*
X128299022Y-107514026D01*
X128294557Y-107473886D01*
X128267271Y-107430495D01*
X128229230Y-107413276D01*
X128178122Y-107407536D01*
X127706733Y-107407536D01*
X127660898Y-107411527D01*
X127613921Y-107431716D01*
X127591756Y-107464384D01*
X127584368Y-107514026D01*
X127442113Y-107514026D01*
X127444676Y-107472070D01*
X127456136Y-107419294D01*
X127475932Y-107373877D01*
X127508164Y-107331577D01*
X127521316Y-107319617D01*
X127562750Y-107293475D01*
X127613434Y-107275699D01*
X127665371Y-107267007D01*
X127715526Y-107264654D01*
X128183495Y-107264654D01*
X128227865Y-107266869D01*
G37*
G36*
X155610418Y-107655617D02*
G01*
X155610418Y-107774563D01*
X154610000Y-107997313D01*
X154610000Y-107854431D01*
X154828841Y-107812421D01*
X154828841Y-107787264D01*
X154971723Y-107787264D01*
X155327585Y-107717166D01*
X155327585Y-107714480D01*
X154971723Y-107644382D01*
X154971723Y-107787264D01*
X154828841Y-107787264D01*
X154828841Y-107617759D01*
X154610000Y-107575750D01*
X154610000Y-107433112D01*
X155610418Y-107655617D01*
G37*
G36*
X154610000Y-107383531D02*
G01*
X154744577Y-107383531D01*
X155228422Y-107127076D01*
X155273854Y-107108395D01*
X155291681Y-107105094D01*
X155342325Y-107102303D01*
X155359337Y-107102163D01*
X155397683Y-107102163D01*
X155433342Y-107109246D01*
X155458988Y-107130251D01*
X155469734Y-107170795D01*
X155454690Y-107218197D01*
X155451416Y-107221842D01*
X155404816Y-107240483D01*
X155398415Y-107240648D01*
X155317571Y-107240648D01*
X155317571Y-107383531D01*
X155395729Y-107383531D01*
X155444432Y-107378276D01*
X155479748Y-107366922D01*
X155522796Y-107342518D01*
X155548381Y-107320760D01*
X155580227Y-107281567D01*
X155595031Y-107253838D01*
X155609714Y-107205451D01*
X155612616Y-107170062D01*
X155608162Y-107121168D01*
X155592344Y-107074319D01*
X155564901Y-107033704D01*
X155537145Y-107007885D01*
X155492226Y-106982951D01*
X155457522Y-106971249D01*
X155408516Y-106961910D01*
X155362756Y-106959281D01*
X155313430Y-106959281D01*
X155302184Y-106959281D01*
X155255289Y-106963433D01*
X155210593Y-106977599D01*
X155165893Y-106999192D01*
X155156127Y-107004221D01*
X154752882Y-107215491D01*
X154752882Y-106959281D01*
X154610000Y-106959281D01*
X154610000Y-107383531D01*
G37*
G36*
X130670418Y-95255617D02*
G01*
X130670418Y-95374563D01*
X129670000Y-95597313D01*
X129670000Y-95454431D01*
X129888841Y-95412421D01*
X129888841Y-95387264D01*
X130031723Y-95387264D01*
X130387585Y-95317166D01*
X130387585Y-95314480D01*
X130031723Y-95244382D01*
X130031723Y-95387264D01*
X129888841Y-95387264D01*
X129888841Y-95217759D01*
X129670000Y-95175750D01*
X129670000Y-95033112D01*
X130670418Y-95255617D01*
G37*
G36*
X157930000Y-107781158D02*
G01*
X158778743Y-107781158D01*
X158673230Y-107921842D01*
X158825150Y-107921842D01*
X158930418Y-107781158D01*
X158930418Y-107638276D01*
X157930000Y-107638276D01*
X157930000Y-107781158D01*
G37*
G36*
X158319513Y-107008480D02*
G01*
X158368415Y-107015457D01*
X158370057Y-107015907D01*
X158414333Y-107037927D01*
X158420510Y-107042922D01*
X158453656Y-107078960D01*
X158458816Y-107072655D01*
X158493224Y-107037927D01*
X158535722Y-107015457D01*
X158540224Y-107014147D01*
X158589944Y-107008129D01*
X158614834Y-107008129D01*
X158665170Y-107008129D01*
X158684695Y-107008267D01*
X158734291Y-107010327D01*
X158783628Y-107019120D01*
X158821242Y-107035973D01*
X158855924Y-107059665D01*
X158884515Y-107086739D01*
X158912344Y-107129518D01*
X158926895Y-107170230D01*
X158932616Y-107220132D01*
X158928162Y-107264425D01*
X158912344Y-107310990D01*
X158891567Y-107344917D01*
X158855924Y-107380844D01*
X158821242Y-107403803D01*
X158783628Y-107419923D01*
X158782323Y-107420346D01*
X158734291Y-107429692D01*
X158715262Y-107431109D01*
X158665170Y-107432379D01*
X158641149Y-107432379D01*
X158589944Y-107432379D01*
X158584279Y-107432315D01*
X158535722Y-107425052D01*
X158493224Y-107402581D01*
X158487299Y-107397587D01*
X158453656Y-107361549D01*
X158448767Y-107367853D01*
X158414333Y-107402581D01*
X158413105Y-107403520D01*
X158368415Y-107425052D01*
X158352494Y-107428594D01*
X158303203Y-107432379D01*
X158260338Y-107432379D01*
X158208925Y-107432379D01*
X158181519Y-107432379D01*
X158132477Y-107432379D01*
X158130622Y-107432375D01*
X158080209Y-107428227D01*
X158042351Y-107416015D01*
X158010111Y-107396964D01*
X157978476Y-107369773D01*
X157948073Y-107328576D01*
X157942006Y-107317211D01*
X157926457Y-107269018D01*
X157922205Y-107220376D01*
X158065066Y-107220376D01*
X158065144Y-107223800D01*
X158085094Y-107268736D01*
X158087663Y-107271250D01*
X158134675Y-107289497D01*
X158329337Y-107289497D01*
X158332964Y-107289416D01*
X158378674Y-107268736D01*
X158381128Y-107266115D01*
X158398946Y-107220376D01*
X158508367Y-107220376D01*
X158508444Y-107223800D01*
X158528150Y-107268736D01*
X158530689Y-107271250D01*
X158577243Y-107289497D01*
X158720858Y-107289497D01*
X158724426Y-107289416D01*
X158769706Y-107268736D01*
X158772132Y-107266115D01*
X158789734Y-107220376D01*
X158789656Y-107216924D01*
X158769706Y-107171772D01*
X158767169Y-107169258D01*
X158720858Y-107151011D01*
X158577243Y-107151011D01*
X158573645Y-107151092D01*
X158528150Y-107171772D01*
X158525755Y-107174395D01*
X158508367Y-107220376D01*
X158398946Y-107220376D01*
X158398867Y-107216924D01*
X158378674Y-107171772D01*
X158376134Y-107169258D01*
X158329337Y-107151011D01*
X158134675Y-107151011D01*
X158131047Y-107151092D01*
X158085094Y-107171772D01*
X158082668Y-107174395D01*
X158065066Y-107220376D01*
X157922205Y-107220376D01*
X157922184Y-107220132D01*
X157922411Y-107208310D01*
X157929491Y-107157793D01*
X157948073Y-107112177D01*
X157972690Y-107077282D01*
X158010111Y-107043545D01*
X158042351Y-107024494D01*
X158080209Y-107012281D01*
X158083046Y-107011779D01*
X158132477Y-107008129D01*
X158159587Y-107008129D01*
X158208925Y-107008129D01*
X158251349Y-107008129D01*
X158303203Y-107008129D01*
X158319513Y-107008480D01*
G37*
G36*
X152570418Y-96635617D02*
G01*
X152570418Y-96754563D01*
X151570000Y-96977313D01*
X151570000Y-96834431D01*
X151788841Y-96792421D01*
X151788841Y-96767264D01*
X151931723Y-96767264D01*
X152287585Y-96697166D01*
X152287585Y-96694480D01*
X151931723Y-96624382D01*
X151931723Y-96767264D01*
X151788841Y-96767264D01*
X151788841Y-96597759D01*
X151570000Y-96555750D01*
X151570000Y-96413112D01*
X152570418Y-96635617D01*
G37*
G36*
X151570000Y-96191584D02*
G01*
X152418743Y-96191584D01*
X152313230Y-96332267D01*
X152465150Y-96332267D01*
X152570418Y-96191584D01*
X152570418Y-96048702D01*
X151570000Y-96048702D01*
X151570000Y-96191584D01*
G37*
G36*
X134770000Y-96381158D02*
G01*
X135618743Y-96381158D01*
X135513230Y-96521842D01*
X135665150Y-96521842D01*
X135770418Y-96381158D01*
X135770418Y-96238276D01*
X134770000Y-96238276D01*
X134770000Y-96381158D01*
G37*
G36*
X134770000Y-96032379D02*
G01*
X134904577Y-96032379D01*
X135388422Y-95775924D01*
X135433854Y-95757243D01*
X135451681Y-95753942D01*
X135502325Y-95751152D01*
X135519337Y-95751011D01*
X135557683Y-95751011D01*
X135593342Y-95758094D01*
X135618988Y-95779099D01*
X135629734Y-95819644D01*
X135614690Y-95867046D01*
X135611416Y-95870690D01*
X135564816Y-95889332D01*
X135558415Y-95889497D01*
X135477571Y-95889497D01*
X135477571Y-96032379D01*
X135555729Y-96032379D01*
X135604432Y-96027124D01*
X135639748Y-96015771D01*
X135682796Y-95991367D01*
X135708381Y-95969609D01*
X135740227Y-95930415D01*
X135755031Y-95902686D01*
X135769714Y-95854300D01*
X135772616Y-95818911D01*
X135768162Y-95770017D01*
X135752344Y-95723168D01*
X135724901Y-95682553D01*
X135697145Y-95656734D01*
X135652226Y-95631799D01*
X135617522Y-95620097D01*
X135568516Y-95610759D01*
X135522756Y-95608129D01*
X135473430Y-95608129D01*
X135462184Y-95608129D01*
X135415289Y-95612281D01*
X135370593Y-95626448D01*
X135325893Y-95648041D01*
X135316127Y-95653070D01*
X134912882Y-95864340D01*
X134912882Y-95608129D01*
X134770000Y-95608129D01*
X134770000Y-96032379D01*
G37*
G36*
X135770418Y-95007048D02*
G01*
X134770000Y-95211235D01*
X134770000Y-95337264D01*
X135770418Y-95540230D01*
X135770418Y-95389043D01*
X135072128Y-95275715D01*
X135072128Y-95273028D01*
X135770418Y-95158234D01*
X135770418Y-95007048D01*
G37*
G36*
X131041904Y-108655617D02*
G01*
X131041904Y-108774563D01*
X130041486Y-108997313D01*
X130041486Y-108854431D01*
X130260327Y-108812421D01*
X130260327Y-108787264D01*
X130403209Y-108787264D01*
X130759071Y-108717166D01*
X130759071Y-108714480D01*
X130403209Y-108644382D01*
X130403209Y-108787264D01*
X130260327Y-108787264D01*
X130260327Y-108617759D01*
X130041486Y-108575750D01*
X130041486Y-108433112D01*
X131041904Y-108655617D01*
G37*
G36*
X165370418Y-107305617D02*
G01*
X165370418Y-107424563D01*
X164370000Y-107647313D01*
X164370000Y-107504431D01*
X164588841Y-107462421D01*
X164588841Y-107437264D01*
X164731723Y-107437264D01*
X165087585Y-107367166D01*
X165087585Y-107364480D01*
X164731723Y-107294382D01*
X164731723Y-107437264D01*
X164588841Y-107437264D01*
X164588841Y-107267759D01*
X164370000Y-107225750D01*
X164370000Y-107083112D01*
X165370418Y-107305617D01*
G37*
G36*
X133002282Y-108469420D02*
G01*
X133053298Y-108476564D01*
X133100662Y-108493928D01*
X133106406Y-108497185D01*
X133143886Y-108528723D01*
X133171492Y-108572819D01*
X133200011Y-108529721D01*
X133238171Y-108495150D01*
X133240823Y-108493527D01*
X133287019Y-108475366D01*
X133305638Y-108471759D01*
X133355163Y-108468527D01*
X133391555Y-108468527D01*
X133436371Y-108471532D01*
X133485345Y-108482205D01*
X133522918Y-108497325D01*
X133565456Y-108526657D01*
X133596658Y-108562377D01*
X133620899Y-108607013D01*
X133628038Y-108626144D01*
X133638950Y-108676393D01*
X133641904Y-108725715D01*
X133641904Y-108937473D01*
X132641486Y-108937473D01*
X132641486Y-108739881D01*
X132641587Y-108733531D01*
X132784368Y-108733531D01*
X132784368Y-108794591D01*
X133110432Y-108794591D01*
X133110432Y-108732065D01*
X133110404Y-108730844D01*
X133235484Y-108730844D01*
X133235484Y-108794591D01*
X133499022Y-108794591D01*
X133499022Y-108736217D01*
X133498990Y-108731833D01*
X133492804Y-108682656D01*
X133466538Y-108638520D01*
X133420144Y-108616598D01*
X133370062Y-108611409D01*
X133365971Y-108611433D01*
X133315161Y-108616722D01*
X133269678Y-108635589D01*
X133267574Y-108637146D01*
X133241127Y-108680835D01*
X133235484Y-108730844D01*
X133110404Y-108730844D01*
X133110105Y-108718043D01*
X133101151Y-108669783D01*
X133072086Y-108632170D01*
X133070811Y-108631399D01*
X133023237Y-108615561D01*
X133006371Y-108613554D01*
X132956070Y-108611409D01*
X132937859Y-108611592D01*
X132887438Y-108614340D01*
X132881606Y-108614928D01*
X132832972Y-108629239D01*
X132831562Y-108630044D01*
X132797312Y-108666120D01*
X132789942Y-108684994D01*
X132784368Y-108733531D01*
X132641587Y-108733531D01*
X132641762Y-108722444D01*
X132645912Y-108673752D01*
X132657049Y-108623804D01*
X132678077Y-108575764D01*
X132712316Y-108533251D01*
X132721413Y-108525414D01*
X132762667Y-108499119D01*
X132811707Y-108480916D01*
X132861002Y-108471624D01*
X132916259Y-108468527D01*
X132973167Y-108468527D01*
X133002282Y-108469420D01*
G37*
G36*
X160970000Y-107953105D02*
G01*
X161104577Y-107953105D01*
X161588422Y-107696650D01*
X161633854Y-107677969D01*
X161651681Y-107674668D01*
X161702325Y-107671877D01*
X161719337Y-107671737D01*
X161757683Y-107671737D01*
X161793342Y-107678820D01*
X161818988Y-107699825D01*
X161829734Y-107740369D01*
X161814690Y-107787772D01*
X161811416Y-107791416D01*
X161764816Y-107810058D01*
X161758415Y-107810223D01*
X161677571Y-107810223D01*
X161677571Y-107953105D01*
X161755729Y-107953105D01*
X161804432Y-107947850D01*
X161839748Y-107936496D01*
X161882796Y-107912092D01*
X161908381Y-107890334D01*
X161940227Y-107851141D01*
X161955031Y-107823412D01*
X161969714Y-107775025D01*
X161972616Y-107739637D01*
X161968162Y-107690743D01*
X161952344Y-107643893D01*
X161924901Y-107603279D01*
X161897145Y-107577459D01*
X161852226Y-107552525D01*
X161817522Y-107540823D01*
X161768516Y-107531485D01*
X161722756Y-107528855D01*
X161673430Y-107528855D01*
X161662184Y-107528855D01*
X161615289Y-107533007D01*
X161570593Y-107547173D01*
X161525893Y-107568767D01*
X161516127Y-107573796D01*
X161112882Y-107785066D01*
X161112882Y-107528855D01*
X160970000Y-107528855D01*
X160970000Y-107953105D01*
G37*
G36*
X161800855Y-107011495D02*
G01*
X161848297Y-107025715D01*
X161876060Y-107040369D01*
X161915464Y-107072121D01*
X161934492Y-107095522D01*
X161957962Y-107140020D01*
X161966892Y-107169261D01*
X161972616Y-107220132D01*
X161970556Y-107251124D01*
X161957962Y-107300488D01*
X161945116Y-107327977D01*
X161915464Y-107368143D01*
X161890828Y-107390022D01*
X161848297Y-107415038D01*
X161809245Y-107427485D01*
X161759148Y-107432379D01*
X161175408Y-107432379D01*
X161133700Y-107429060D01*
X161086259Y-107415038D01*
X161058644Y-107400200D01*
X161019337Y-107368143D01*
X161000309Y-107344891D01*
X160976838Y-107300488D01*
X160967350Y-107268727D01*
X160962210Y-107220376D01*
X161105066Y-107220376D01*
X161105144Y-107224149D01*
X161125094Y-107270202D01*
X161128985Y-107273650D01*
X161175896Y-107289497D01*
X161758660Y-107289497D01*
X161764294Y-107289327D01*
X161809462Y-107270202D01*
X161813085Y-107266485D01*
X161829734Y-107220376D01*
X161829655Y-107216604D01*
X161809462Y-107170551D01*
X161805571Y-107167059D01*
X161758660Y-107151011D01*
X161175896Y-107151011D01*
X161170262Y-107151183D01*
X161125094Y-107170551D01*
X161121515Y-107174267D01*
X161105066Y-107220376D01*
X160962210Y-107220376D01*
X160962184Y-107220132D01*
X160964245Y-107189289D01*
X160976838Y-107140020D01*
X160989684Y-107112497D01*
X161019337Y-107072121D01*
X161043932Y-107050441D01*
X161086259Y-107025715D01*
X161125311Y-107013092D01*
X161175408Y-107008129D01*
X161759148Y-107008129D01*
X161800855Y-107011495D01*
G37*
G36*
X164530796Y-96419420D02*
G01*
X164581812Y-96426564D01*
X164629176Y-96443928D01*
X164634920Y-96447185D01*
X164672400Y-96478723D01*
X164700006Y-96522819D01*
X164728525Y-96479721D01*
X164766685Y-96445150D01*
X164769337Y-96443527D01*
X164815533Y-96425366D01*
X164834152Y-96421759D01*
X164883677Y-96418527D01*
X164920069Y-96418527D01*
X164964885Y-96421532D01*
X165013859Y-96432205D01*
X165051432Y-96447325D01*
X165093970Y-96476657D01*
X165125172Y-96512377D01*
X165149413Y-96557013D01*
X165156552Y-96576144D01*
X165167464Y-96626393D01*
X165170418Y-96675715D01*
X165170418Y-96887473D01*
X164170000Y-96887473D01*
X164170000Y-96689881D01*
X164170101Y-96683531D01*
X164312882Y-96683531D01*
X164312882Y-96744591D01*
X164638946Y-96744591D01*
X164638946Y-96682065D01*
X164638918Y-96680844D01*
X164763998Y-96680844D01*
X164763998Y-96744591D01*
X165027536Y-96744591D01*
X165027536Y-96686217D01*
X165027504Y-96681833D01*
X165021318Y-96632656D01*
X164995052Y-96588520D01*
X164948658Y-96566598D01*
X164898576Y-96561409D01*
X164894485Y-96561433D01*
X164843675Y-96566722D01*
X164798192Y-96585589D01*
X164796088Y-96587146D01*
X164769641Y-96630835D01*
X164763998Y-96680844D01*
X164638918Y-96680844D01*
X164638619Y-96668043D01*
X164629665Y-96619783D01*
X164600600Y-96582170D01*
X164599325Y-96581399D01*
X164551751Y-96565561D01*
X164534885Y-96563554D01*
X164484584Y-96561409D01*
X164466373Y-96561592D01*
X164415952Y-96564340D01*
X164410120Y-96564928D01*
X164361486Y-96579239D01*
X164360076Y-96580044D01*
X164325826Y-96616120D01*
X164318456Y-96634994D01*
X164312882Y-96683531D01*
X164170101Y-96683531D01*
X164170276Y-96672444D01*
X164174426Y-96623752D01*
X164185563Y-96573804D01*
X164206591Y-96525764D01*
X164240830Y-96483251D01*
X164249927Y-96475414D01*
X164291181Y-96449119D01*
X164340221Y-96430916D01*
X164389516Y-96421624D01*
X164444773Y-96418527D01*
X164501681Y-96418527D01*
X164530796Y-96419420D01*
G37*
G36*
X135041486Y-108781158D02*
G01*
X135890229Y-108781158D01*
X135784716Y-108921842D01*
X135936636Y-108921842D01*
X136041904Y-108781158D01*
X136041904Y-108638276D01*
X135041486Y-108638276D01*
X135041486Y-108781158D01*
G37*
G36*
X135041486Y-108432379D02*
G01*
X135176063Y-108432379D01*
X135659908Y-108175924D01*
X135705340Y-108157243D01*
X135723167Y-108153942D01*
X135773811Y-108151152D01*
X135790823Y-108151011D01*
X135829169Y-108151011D01*
X135864828Y-108158094D01*
X135890474Y-108179099D01*
X135901220Y-108219644D01*
X135886176Y-108267046D01*
X135882902Y-108270690D01*
X135836302Y-108289332D01*
X135829901Y-108289497D01*
X135749057Y-108289497D01*
X135749057Y-108432379D01*
X135827215Y-108432379D01*
X135875918Y-108427124D01*
X135911234Y-108415771D01*
X135954282Y-108391367D01*
X135979867Y-108369609D01*
X136011713Y-108330415D01*
X136026517Y-108302686D01*
X136041200Y-108254300D01*
X136044102Y-108218911D01*
X136039648Y-108170017D01*
X136023830Y-108123168D01*
X135996387Y-108082553D01*
X135968631Y-108056734D01*
X135923712Y-108031799D01*
X135889008Y-108020097D01*
X135840002Y-108010759D01*
X135794242Y-108008129D01*
X135744916Y-108008129D01*
X135733670Y-108008129D01*
X135686775Y-108012281D01*
X135642079Y-108026448D01*
X135597379Y-108048041D01*
X135587613Y-108053070D01*
X135184368Y-108264340D01*
X135184368Y-108008129D01*
X135041486Y-108008129D01*
X135041486Y-108432379D01*
G37*
G36*
X136041904Y-107407048D02*
G01*
X135041486Y-107611235D01*
X135041486Y-107737264D01*
X136041904Y-107940230D01*
X136041904Y-107789043D01*
X135343614Y-107675715D01*
X135343614Y-107673028D01*
X136041904Y-107558234D01*
X136041904Y-107407048D01*
G37*
G36*
X152460418Y-107655617D02*
G01*
X152460418Y-107774563D01*
X151460000Y-107997313D01*
X151460000Y-107854431D01*
X151678841Y-107812421D01*
X151678841Y-107787264D01*
X151821723Y-107787264D01*
X152177585Y-107717166D01*
X152177585Y-107714480D01*
X151821723Y-107644382D01*
X151821723Y-107787264D01*
X151678841Y-107787264D01*
X151678841Y-107617759D01*
X151460000Y-107575750D01*
X151460000Y-107433112D01*
X152460418Y-107655617D01*
G37*
G36*
X152290855Y-106962647D02*
G01*
X152338297Y-106976866D01*
X152366060Y-106991521D01*
X152405464Y-107023272D01*
X152424492Y-107046674D01*
X152447962Y-107091172D01*
X152456892Y-107120412D01*
X152462616Y-107171284D01*
X152460556Y-107202276D01*
X152447962Y-107251639D01*
X152435116Y-107279128D01*
X152405464Y-107319295D01*
X152380828Y-107341174D01*
X152338297Y-107366189D01*
X152299245Y-107378636D01*
X152249148Y-107383531D01*
X151665408Y-107383531D01*
X151623700Y-107380211D01*
X151576259Y-107366189D01*
X151548644Y-107351352D01*
X151509337Y-107319295D01*
X151490309Y-107296042D01*
X151466838Y-107251639D01*
X151457350Y-107219879D01*
X151452210Y-107171528D01*
X151595066Y-107171528D01*
X151595144Y-107175300D01*
X151615094Y-107221353D01*
X151618985Y-107224802D01*
X151665896Y-107240648D01*
X152248660Y-107240648D01*
X152254294Y-107240479D01*
X152299462Y-107221353D01*
X152303085Y-107217637D01*
X152319734Y-107171528D01*
X152319655Y-107167755D01*
X152299462Y-107121702D01*
X152295571Y-107118210D01*
X152248660Y-107102163D01*
X151665896Y-107102163D01*
X151660262Y-107102335D01*
X151615094Y-107121702D01*
X151611515Y-107125419D01*
X151595066Y-107171528D01*
X151452210Y-107171528D01*
X151452184Y-107171284D01*
X151454245Y-107140440D01*
X151466838Y-107091172D01*
X151479684Y-107063649D01*
X151509337Y-107023272D01*
X151533932Y-107001592D01*
X151576259Y-106976866D01*
X151615311Y-106964244D01*
X151665408Y-106959281D01*
X152249148Y-106959281D01*
X152290855Y-106962647D01*
G37*
G36*
X144020418Y-96378855D02*
G01*
X143877536Y-96378855D01*
X143877536Y-96662421D01*
X143614975Y-96662421D01*
X143643427Y-96621450D01*
X143647704Y-96612107D01*
X143659849Y-96563858D01*
X143660893Y-96542986D01*
X143654676Y-96492096D01*
X143633910Y-96445724D01*
X143616685Y-96424528D01*
X143573628Y-96394957D01*
X143525735Y-96381710D01*
X143484305Y-96378855D01*
X143226385Y-96378855D01*
X143176028Y-96383818D01*
X143136748Y-96396441D01*
X143094216Y-96421166D01*
X143069581Y-96442847D01*
X143039718Y-96483223D01*
X143026838Y-96510746D01*
X143014245Y-96560015D01*
X143012184Y-96590858D01*
X143017350Y-96639453D01*
X143026838Y-96671214D01*
X143050404Y-96715616D01*
X143069581Y-96738869D01*
X143109079Y-96770926D01*
X143136992Y-96785764D01*
X143184708Y-96799786D01*
X143226629Y-96803105D01*
X143268883Y-96803105D01*
X143268883Y-96662421D01*
X143232247Y-96662421D01*
X143184990Y-96650048D01*
X143175338Y-96642149D01*
X143155383Y-96597082D01*
X143155066Y-96589148D01*
X143171113Y-96542991D01*
X143174605Y-96539567D01*
X143220954Y-96522016D01*
X143229560Y-96521737D01*
X143464033Y-96521737D01*
X143510820Y-96537383D01*
X143514836Y-96540788D01*
X143535758Y-96585281D01*
X143535840Y-96588904D01*
X143529246Y-96619923D01*
X143514347Y-96640683D01*
X143495296Y-96653384D01*
X143482351Y-96661444D01*
X143482351Y-96787473D01*
X144020418Y-96787473D01*
X144020418Y-96378855D01*
G37*
G36*
X144020418Y-95777773D02*
G01*
X143020000Y-95981960D01*
X143020000Y-96107990D01*
X144020418Y-96310956D01*
X144020418Y-96159769D01*
X143322128Y-96046441D01*
X143322128Y-96043754D01*
X144020418Y-95928960D01*
X144020418Y-95777773D01*
G37*
G36*
X143850855Y-95291921D02*
G01*
X143898297Y-95306140D01*
X143926060Y-95320795D01*
X143965464Y-95352547D01*
X143984492Y-95375948D01*
X144007962Y-95420446D01*
X144016892Y-95449687D01*
X144022616Y-95500558D01*
X144020556Y-95531550D01*
X144007962Y-95580914D01*
X143995116Y-95608402D01*
X143965464Y-95648569D01*
X143940828Y-95670448D01*
X143898297Y-95695464D01*
X143859245Y-95707911D01*
X143809148Y-95712805D01*
X143225408Y-95712805D01*
X143183700Y-95709486D01*
X143136259Y-95695464D01*
X143108644Y-95680626D01*
X143069337Y-95648569D01*
X143050309Y-95625316D01*
X143026838Y-95580914D01*
X143017350Y-95549153D01*
X143012210Y-95500802D01*
X143155066Y-95500802D01*
X143155144Y-95504574D01*
X143175094Y-95550628D01*
X143178985Y-95554076D01*
X143225896Y-95569923D01*
X143808660Y-95569923D01*
X143814294Y-95569753D01*
X143859462Y-95550628D01*
X143863085Y-95546911D01*
X143879734Y-95500802D01*
X143879655Y-95497030D01*
X143859462Y-95450976D01*
X143855571Y-95447485D01*
X143808660Y-95431437D01*
X143225896Y-95431437D01*
X143220262Y-95431609D01*
X143175094Y-95450976D01*
X143171515Y-95454693D01*
X143155066Y-95500802D01*
X143012210Y-95500802D01*
X143012184Y-95500558D01*
X143014245Y-95469714D01*
X143026838Y-95420446D01*
X143039684Y-95392923D01*
X143069337Y-95352547D01*
X143093932Y-95330866D01*
X143136259Y-95306140D01*
X143175311Y-95293518D01*
X143225408Y-95288555D01*
X143809148Y-95288555D01*
X143850855Y-95291921D01*
G37*
G36*
X167306379Y-103784176D02*
G01*
X167359395Y-103794022D01*
X167410645Y-103814514D01*
X167453007Y-103844975D01*
X167482500Y-103880009D01*
X167505606Y-103928143D01*
X167517192Y-103978683D01*
X167520418Y-104028890D01*
X167520418Y-104237473D01*
X166520000Y-104237473D01*
X166520000Y-104041591D01*
X166520627Y-104031332D01*
X166662882Y-104031332D01*
X166662882Y-104094591D01*
X167377536Y-104094591D01*
X167377536Y-104031332D01*
X167373071Y-103991193D01*
X167345785Y-103947801D01*
X167307744Y-103930582D01*
X167256636Y-103924842D01*
X166785247Y-103924842D01*
X166739412Y-103928833D01*
X166692435Y-103949023D01*
X166670270Y-103981690D01*
X166662882Y-104031332D01*
X166520627Y-104031332D01*
X166523190Y-103989376D01*
X166534650Y-103936601D01*
X166554446Y-103891183D01*
X166586678Y-103848883D01*
X166599830Y-103836923D01*
X166641264Y-103810782D01*
X166691948Y-103793005D01*
X166743885Y-103784313D01*
X166794040Y-103781960D01*
X167262009Y-103781960D01*
X167306379Y-103784176D01*
G37*
G36*
X166804298Y-103186008D02*
G01*
X166742749Y-103186008D01*
X166692362Y-103191495D01*
X166655310Y-103203349D01*
X166611733Y-103226756D01*
X166581793Y-103250732D01*
X166549971Y-103288325D01*
X166530990Y-103322051D01*
X166515783Y-103369673D01*
X166512184Y-103409490D01*
X166516477Y-103460247D01*
X166523175Y-103491067D01*
X166542372Y-103537242D01*
X166562254Y-103565561D01*
X166598798Y-103599221D01*
X166634061Y-103620272D01*
X166680697Y-103635524D01*
X166729884Y-103641189D01*
X166746657Y-103641521D01*
X167293761Y-103641521D01*
X167343663Y-103636902D01*
X167384375Y-103625157D01*
X167428004Y-103602144D01*
X167456915Y-103578262D01*
X167488724Y-103537756D01*
X167505031Y-103505478D01*
X167518752Y-103458292D01*
X167522616Y-103412421D01*
X167517419Y-103359441D01*
X167501828Y-103312335D01*
X167472314Y-103266883D01*
X167456915Y-103250732D01*
X167416936Y-103220833D01*
X167380711Y-103203349D01*
X167331916Y-103189818D01*
X167284968Y-103186008D01*
X167229281Y-103186008D01*
X167229281Y-103328890D01*
X167276664Y-103328890D01*
X167326643Y-103338777D01*
X167348960Y-103351849D01*
X167377300Y-103392955D01*
X167379734Y-103413642D01*
X167368196Y-103462409D01*
X167347006Y-103481786D01*
X167299226Y-103496269D01*
X167263963Y-103498639D01*
X166756915Y-103498639D01*
X166708315Y-103491579D01*
X166684375Y-103480565D01*
X166657384Y-103439344D01*
X166655066Y-103415108D01*
X166659951Y-103386287D01*
X166676071Y-103357222D01*
X166706601Y-103336950D01*
X166755450Y-103328890D01*
X166804298Y-103328890D01*
X166804298Y-103186008D01*
G37*
G36*
X166520000Y-102812072D02*
G01*
X167520418Y-102812072D01*
X167520418Y-102676029D01*
X166990655Y-102492602D01*
X166990655Y-102489916D01*
X167520418Y-102307711D01*
X167520418Y-102168981D01*
X166520000Y-102168981D01*
X166520000Y-102311863D01*
X167128408Y-102311863D01*
X167128408Y-102314549D01*
X166698541Y-102456210D01*
X166698541Y-102527773D01*
X167128408Y-102669190D01*
X166520000Y-102669190D01*
X166520000Y-102812072D01*
G37*
G36*
X167287051Y-101549908D02*
G01*
X167336198Y-101555137D01*
X167385840Y-101571074D01*
X167425683Y-101593786D01*
X167462533Y-101626273D01*
X167485634Y-101658924D01*
X167507229Y-101705163D01*
X167517748Y-101742964D01*
X167522616Y-101792114D01*
X167519671Y-101830442D01*
X167507229Y-101879309D01*
X167491221Y-101915239D01*
X167462533Y-101956489D01*
X167428094Y-101988363D01*
X167385840Y-102013154D01*
X167377063Y-102016951D01*
X167329503Y-102030336D01*
X167279595Y-102034403D01*
X166754961Y-102034403D01*
X166747185Y-102034320D01*
X166696709Y-102029091D01*
X166647494Y-102013154D01*
X166608972Y-101990120D01*
X166573489Y-101956489D01*
X166549506Y-101924887D01*
X166527327Y-101879309D01*
X166516975Y-101841341D01*
X166512184Y-101792114D01*
X166512202Y-101791870D01*
X166655066Y-101791870D01*
X166657451Y-101816137D01*
X166679490Y-101861967D01*
X166706051Y-101882170D01*
X166755450Y-101891521D01*
X167279106Y-101891521D01*
X167311472Y-101888029D01*
X167355310Y-101861967D01*
X167369216Y-101840351D01*
X167379734Y-101791870D01*
X167377349Y-101767860D01*
X167355310Y-101722260D01*
X167328703Y-101702058D01*
X167279106Y-101692707D01*
X166755450Y-101692707D01*
X166723223Y-101696199D01*
X166679490Y-101722260D01*
X166665584Y-101743819D01*
X166655066Y-101791870D01*
X166512202Y-101791870D01*
X166515082Y-101753833D01*
X166527327Y-101705163D01*
X166545133Y-101666298D01*
X166573489Y-101626273D01*
X166604347Y-101597236D01*
X166647494Y-101571074D01*
X166656034Y-101567277D01*
X166703496Y-101553892D01*
X166754961Y-101549825D01*
X167279595Y-101549825D01*
X167287051Y-101549908D01*
G37*
G36*
X166520000Y-101347836D02*
G01*
X167377536Y-101347836D01*
X167377536Y-101517585D01*
X167520418Y-101517585D01*
X167520418Y-101048639D01*
X167377536Y-101048639D01*
X167377536Y-101204954D01*
X166520000Y-101204954D01*
X166520000Y-101347836D01*
G37*
G36*
X167287051Y-100523111D02*
G01*
X167336198Y-100528340D01*
X167385840Y-100544277D01*
X167425683Y-100566989D01*
X167462533Y-100599476D01*
X167485634Y-100632127D01*
X167507229Y-100678367D01*
X167517748Y-100716167D01*
X167522616Y-100765317D01*
X167519671Y-100803645D01*
X167507229Y-100852512D01*
X167491221Y-100888442D01*
X167462533Y-100929692D01*
X167428094Y-100961566D01*
X167385840Y-100986357D01*
X167377063Y-100990154D01*
X167329503Y-101003539D01*
X167279595Y-101007606D01*
X166754961Y-101007606D01*
X166747185Y-101007523D01*
X166696709Y-101002294D01*
X166647494Y-100986357D01*
X166608972Y-100963323D01*
X166573489Y-100929692D01*
X166549506Y-100898090D01*
X166527327Y-100852512D01*
X166516975Y-100814544D01*
X166512184Y-100765317D01*
X166512202Y-100765073D01*
X166655066Y-100765073D01*
X166657451Y-100789340D01*
X166679490Y-100835170D01*
X166706051Y-100855373D01*
X166755450Y-100864724D01*
X167279106Y-100864724D01*
X167311472Y-100861232D01*
X167355310Y-100835170D01*
X167369216Y-100813554D01*
X167379734Y-100765073D01*
X167377349Y-100741064D01*
X167355310Y-100695464D01*
X167328703Y-100675261D01*
X167279106Y-100665910D01*
X166755450Y-100665910D01*
X166723223Y-100669402D01*
X166679490Y-100695464D01*
X166665584Y-100717023D01*
X166655066Y-100765073D01*
X166512202Y-100765073D01*
X166515082Y-100727036D01*
X166527327Y-100678367D01*
X166545133Y-100639501D01*
X166573489Y-100599476D01*
X166604347Y-100570439D01*
X166647494Y-100544277D01*
X166656034Y-100540480D01*
X166703496Y-100527095D01*
X166754961Y-100523028D01*
X167279595Y-100523028D01*
X167287051Y-100523111D01*
G37*
G36*
X166971116Y-100050418D02*
G01*
X166991800Y-100018682D01*
X167028494Y-99980752D01*
X167071988Y-99954431D01*
X167118121Y-99938856D01*
X167170545Y-99929747D01*
X167223663Y-99927076D01*
X167276697Y-99929304D01*
X167339293Y-99939207D01*
X167392616Y-99957033D01*
X167436666Y-99982782D01*
X167478687Y-100026108D01*
X167501871Y-100069683D01*
X167515781Y-100121180D01*
X167520418Y-100180600D01*
X167520418Y-100411653D01*
X166520000Y-100411653D01*
X166520000Y-100268771D01*
X166942051Y-100268771D01*
X166942051Y-100186461D01*
X167067103Y-100186461D01*
X167067103Y-100268771D01*
X167377536Y-100268771D01*
X167377536Y-100193300D01*
X167377191Y-100179662D01*
X167367705Y-100130286D01*
X167338213Y-100091207D01*
X167335586Y-100089653D01*
X167288632Y-100074354D01*
X167271843Y-100072229D01*
X167222442Y-100069958D01*
X167206312Y-100070168D01*
X167155764Y-100074354D01*
X167107648Y-100089741D01*
X167077606Y-100125401D01*
X167073011Y-100137735D01*
X167067103Y-100186461D01*
X166942051Y-100186461D01*
X166942051Y-100182065D01*
X166520000Y-100047487D01*
X166520000Y-99896301D01*
X166971116Y-100050418D01*
G37*
G36*
X136929595Y-102637473D02*
G01*
X136979503Y-102633406D01*
X137027063Y-102620022D01*
X137035840Y-102616224D01*
X137078094Y-102591434D01*
X137112533Y-102559560D01*
X137141221Y-102518310D01*
X137157229Y-102482379D01*
X137169671Y-102433512D01*
X137172616Y-102395184D01*
X137167748Y-102346034D01*
X137157229Y-102308234D01*
X137135513Y-102261995D01*
X137112533Y-102229344D01*
X137075492Y-102196856D01*
X137035596Y-102174145D01*
X136985893Y-102158208D01*
X136936592Y-102152979D01*
X136929106Y-102152896D01*
X136879036Y-102152896D01*
X136879036Y-102295778D01*
X136929106Y-102295778D01*
X136978703Y-102305128D01*
X137005310Y-102325331D01*
X137027349Y-102370931D01*
X137029734Y-102394940D01*
X137019216Y-102443421D01*
X137005310Y-102465038D01*
X136961472Y-102491099D01*
X136929106Y-102494591D01*
X136405450Y-102494591D01*
X136356051Y-102485240D01*
X136329490Y-102465038D01*
X136307451Y-102419207D01*
X136305066Y-102394940D01*
X136315584Y-102346890D01*
X136329490Y-102325331D01*
X136373223Y-102299270D01*
X136405450Y-102295778D01*
X136592051Y-102295778D01*
X136592051Y-102412281D01*
X136717103Y-102412281D01*
X136717103Y-102152896D01*
X136404717Y-102152896D01*
X136353252Y-102156963D01*
X136305789Y-102170347D01*
X136297250Y-102174145D01*
X136254293Y-102200306D01*
X136223489Y-102229344D01*
X136195133Y-102269369D01*
X136177327Y-102308234D01*
X136165082Y-102356903D01*
X136162184Y-102395184D01*
X136166975Y-102444412D01*
X136177327Y-102482379D01*
X136199506Y-102527957D01*
X136223489Y-102559560D01*
X136258972Y-102593190D01*
X136297494Y-102616224D01*
X136346709Y-102632161D01*
X136397185Y-102637390D01*
X136404961Y-102637473D01*
X136929595Y-102637473D01*
G37*
G36*
X136170000Y-102041521D02*
G01*
X137170418Y-102041521D01*
X137170418Y-101905478D01*
X136567627Y-101684193D01*
X137170418Y-101684193D01*
X137170418Y-101541311D01*
X136170000Y-101541311D01*
X136170000Y-101674424D01*
X136771325Y-101898639D01*
X136170000Y-101898639D01*
X136170000Y-102041521D01*
G37*
G36*
X136956379Y-100966869D02*
G01*
X137009395Y-100976715D01*
X137060645Y-100997208D01*
X137103007Y-101027669D01*
X137132500Y-101062702D01*
X137155606Y-101110837D01*
X137167192Y-101161376D01*
X137170418Y-101211584D01*
X137170418Y-101420167D01*
X136170000Y-101420167D01*
X136170000Y-101224284D01*
X136170627Y-101214026D01*
X136312882Y-101214026D01*
X136312882Y-101277285D01*
X137027536Y-101277285D01*
X137027536Y-101214026D01*
X137023071Y-101173886D01*
X136995785Y-101130495D01*
X136957744Y-101113276D01*
X136906636Y-101107536D01*
X136435247Y-101107536D01*
X136389412Y-101111527D01*
X136342435Y-101131716D01*
X136320270Y-101164384D01*
X136312882Y-101214026D01*
X136170627Y-101214026D01*
X136173190Y-101172070D01*
X136184650Y-101119294D01*
X136204446Y-101073877D01*
X136236678Y-101031577D01*
X136249830Y-101019617D01*
X136291264Y-100993475D01*
X136341948Y-100975699D01*
X136393885Y-100967007D01*
X136444040Y-100964654D01*
X136912009Y-100964654D01*
X136956379Y-100966869D01*
G37*
G36*
X160950000Y-96953105D02*
G01*
X161084577Y-96953105D01*
X161568422Y-96696650D01*
X161613854Y-96677969D01*
X161631681Y-96674668D01*
X161682325Y-96671877D01*
X161699337Y-96671737D01*
X161737683Y-96671737D01*
X161773342Y-96678820D01*
X161798988Y-96699825D01*
X161809734Y-96740369D01*
X161794690Y-96787772D01*
X161791416Y-96791416D01*
X161744816Y-96810058D01*
X161738415Y-96810223D01*
X161657571Y-96810223D01*
X161657571Y-96953105D01*
X161735729Y-96953105D01*
X161784432Y-96947850D01*
X161819748Y-96936496D01*
X161862796Y-96912092D01*
X161888381Y-96890334D01*
X161920227Y-96851141D01*
X161935031Y-96823412D01*
X161949714Y-96775025D01*
X161952616Y-96739637D01*
X161948162Y-96690743D01*
X161932344Y-96643893D01*
X161904901Y-96603279D01*
X161877145Y-96577459D01*
X161832226Y-96552525D01*
X161797522Y-96540823D01*
X161748516Y-96531485D01*
X161702756Y-96528855D01*
X161653430Y-96528855D01*
X161642184Y-96528855D01*
X161595289Y-96533007D01*
X161550593Y-96547173D01*
X161505893Y-96568767D01*
X161496127Y-96573796D01*
X161092882Y-96785066D01*
X161092882Y-96528855D01*
X160950000Y-96528855D01*
X160950000Y-96953105D01*
G37*
G36*
X160950000Y-96260432D02*
G01*
X161798743Y-96260432D01*
X161693230Y-96401116D01*
X161845150Y-96401116D01*
X161950418Y-96260432D01*
X161950418Y-96117550D01*
X160950000Y-96117550D01*
X160950000Y-96260432D01*
G37*
G36*
X132630796Y-95069420D02*
G01*
X132681812Y-95076564D01*
X132729176Y-95093928D01*
X132734920Y-95097185D01*
X132772400Y-95128723D01*
X132800006Y-95172819D01*
X132828525Y-95129721D01*
X132866685Y-95095150D01*
X132869337Y-95093527D01*
X132915533Y-95075366D01*
X132934152Y-95071759D01*
X132983677Y-95068527D01*
X133020069Y-95068527D01*
X133064885Y-95071532D01*
X133113859Y-95082205D01*
X133151432Y-95097325D01*
X133193970Y-95126657D01*
X133225172Y-95162377D01*
X133249413Y-95207013D01*
X133256552Y-95226144D01*
X133267464Y-95276393D01*
X133270418Y-95325715D01*
X133270418Y-95537473D01*
X132270000Y-95537473D01*
X132270000Y-95339881D01*
X132270101Y-95333531D01*
X132412882Y-95333531D01*
X132412882Y-95394591D01*
X132738946Y-95394591D01*
X132738946Y-95332065D01*
X132738918Y-95330844D01*
X132863998Y-95330844D01*
X132863998Y-95394591D01*
X133127536Y-95394591D01*
X133127536Y-95336217D01*
X133127504Y-95331833D01*
X133121318Y-95282656D01*
X133095052Y-95238520D01*
X133048658Y-95216598D01*
X132998576Y-95211409D01*
X132994485Y-95211433D01*
X132943675Y-95216722D01*
X132898192Y-95235589D01*
X132896088Y-95237146D01*
X132869641Y-95280835D01*
X132863998Y-95330844D01*
X132738918Y-95330844D01*
X132738619Y-95318043D01*
X132729665Y-95269783D01*
X132700600Y-95232170D01*
X132699325Y-95231399D01*
X132651751Y-95215561D01*
X132634885Y-95213554D01*
X132584584Y-95211409D01*
X132566373Y-95211592D01*
X132515952Y-95214340D01*
X132510120Y-95214928D01*
X132461486Y-95229239D01*
X132460076Y-95230044D01*
X132425826Y-95266120D01*
X132418456Y-95284994D01*
X132412882Y-95333531D01*
X132270101Y-95333531D01*
X132270276Y-95322444D01*
X132274426Y-95273752D01*
X132285563Y-95223804D01*
X132306591Y-95175764D01*
X132340830Y-95133251D01*
X132349927Y-95125414D01*
X132391181Y-95099119D01*
X132440221Y-95080916D01*
X132489516Y-95071624D01*
X132544773Y-95068527D01*
X132601681Y-95068527D01*
X132630796Y-95069420D01*
G37*
D10*
%TO.C,U25*%
X143800000Y-97300000D02*
X146200000Y-97300000D01*
X143800000Y-101500000D02*
X143800000Y-97300000D01*
X146200000Y-97300000D02*
X146200000Y-101500000D01*
X146200000Y-101500000D02*
X143800000Y-101500000D01*
%TO.C,U21*%
X160290000Y-97470000D02*
X162690000Y-97470000D01*
X160290000Y-101670000D02*
X160290000Y-97470000D01*
X162690000Y-97470000D02*
X162690000Y-101670000D01*
X162690000Y-101670000D02*
X160290000Y-101670000D01*
%TO.C,U17*%
X153910000Y-97470000D02*
X156310000Y-97470000D01*
X153910000Y-101670000D02*
X153910000Y-97470000D01*
X156310000Y-97470000D02*
X156310000Y-101670000D01*
X156310000Y-101670000D02*
X153910000Y-101670000D01*
%TO.C,U28*%
X143800000Y-102300000D02*
X146200000Y-102300000D01*
X143800000Y-106500000D02*
X143800000Y-102300000D01*
X146200000Y-102300000D02*
X146200000Y-106500000D01*
X146200000Y-106500000D02*
X143800000Y-106500000D01*
%TO.C,U29*%
X140900000Y-102300000D02*
X143300000Y-102300000D01*
X140900000Y-106500000D02*
X140900000Y-102300000D01*
X143300000Y-102300000D02*
X143300000Y-106500000D01*
X143300000Y-106500000D02*
X140900000Y-106500000D01*
%TO.C,U20*%
X160290000Y-102270000D02*
X162690000Y-102270000D01*
X160290000Y-106470000D02*
X160290000Y-102270000D01*
X162690000Y-102270000D02*
X162690000Y-106470000D01*
X162690000Y-106470000D02*
X160290000Y-106470000D01*
%TO.C,U15*%
X150910000Y-97470000D02*
X153310000Y-97470000D01*
X150910000Y-101670000D02*
X150910000Y-97470000D01*
X153310000Y-97470000D02*
X153310000Y-101670000D01*
X153310000Y-101670000D02*
X150910000Y-101670000D01*
%TO.C,U18*%
X157290000Y-102270000D02*
X159690000Y-102270000D01*
X157290000Y-106470000D02*
X157290000Y-102270000D01*
X159690000Y-102270000D02*
X159690000Y-106470000D01*
X159690000Y-106470000D02*
X157290000Y-106470000D01*
%TO.C,U16*%
X153910000Y-102270000D02*
X156310000Y-102270000D01*
X153910000Y-106470000D02*
X153910000Y-102270000D01*
X156310000Y-102270000D02*
X156310000Y-106470000D01*
X156310000Y-106470000D02*
X153910000Y-106470000D01*
%TO.C,U14*%
X150910000Y-102270000D02*
X153310000Y-102270000D01*
X150910000Y-106470000D02*
X150910000Y-102270000D01*
X153310000Y-102270000D02*
X153310000Y-106470000D01*
X153310000Y-106470000D02*
X150910000Y-106470000D01*
%TO.C,U22*%
X163500000Y-102270000D02*
X165900000Y-102270000D01*
X163500000Y-106470000D02*
X163500000Y-102270000D01*
X165900000Y-102270000D02*
X165900000Y-106470000D01*
X165900000Y-106470000D02*
X163500000Y-106470000D01*
%TO.C,U19*%
X157290000Y-97470000D02*
X159690000Y-97470000D01*
X157290000Y-101670000D02*
X157290000Y-97470000D01*
X159690000Y-97470000D02*
X159690000Y-101670000D01*
X159690000Y-101670000D02*
X157290000Y-101670000D01*
%TO.C,U23*%
X163500000Y-97470000D02*
X165900000Y-97470000D01*
X163500000Y-101670000D02*
X163500000Y-97470000D01*
X165900000Y-97470000D02*
X165900000Y-101670000D01*
X165900000Y-101670000D02*
X163500000Y-101670000D01*
%TO.C,U27*%
X137900000Y-102300000D02*
X140300000Y-102300000D01*
X137900000Y-106500000D02*
X137900000Y-102300000D01*
X140300000Y-102300000D02*
X140300000Y-106500000D01*
X140300000Y-106500000D02*
X137900000Y-106500000D01*
%TO.C,U24*%
X137900000Y-97300000D02*
X140300000Y-97300000D01*
X137900000Y-101500000D02*
X137900000Y-97300000D01*
X140300000Y-97300000D02*
X140300000Y-101500000D01*
X140300000Y-101500000D02*
X137900000Y-101500000D01*
%TO.C,U26*%
X140900000Y-97300000D02*
X143300000Y-97300000D01*
X140900000Y-101500000D02*
X140900000Y-97300000D01*
X143300000Y-97300000D02*
X143300000Y-101500000D01*
X143300000Y-101500000D02*
X140900000Y-101500000D01*
%TD*%
M02*
