%TF.GenerationSoftware,KiCad,Pcbnew,9.0.0*%
%TF.CreationDate,2025-03-14T22:24:00-04:00*%
%TF.ProjectId,teensy,7465656e-7379-42e6-9b69-6361645f7063,rev?*%
%TF.SameCoordinates,Original*%
%TF.FileFunction,Other,Comment*%
%FSLAX46Y46*%
G04 Gerber Fmt 4.6, Leading zero omitted, Abs format (unit mm)*
G04 Created by KiCad (PCBNEW 9.0.0) date 2025-03-14 22:24:00*
%MOMM*%
%LPD*%
G01*
G04 APERTURE LIST*
%ADD10C,0.250000*%
%ADD11C,0.300000*%
G04 APERTURE END LIST*
D10*
X126000000Y-98625000D02*
G75*
G02*
X126000000Y-105375000I0J-3375000D01*
G01*
X179000001Y-91500000D02*
G75*
G02*
X180000000Y-92499998I-1J-1000000D01*
G01*
X180000000Y-111500001D02*
X180000000Y-92499998D01*
X180000000Y-111500001D02*
G75*
G02*
X179000001Y-112500000I-1000000J1D01*
G01*
X126000000Y-103599999D02*
X126000000Y-111500000D01*
X180000000Y-93750000D02*
X138000000Y-93750000D01*
X179000001Y-91500000D02*
X127000000Y-91500000D01*
X127000000Y-112500000D02*
X179000001Y-112500000D01*
X126000000Y-92500000D02*
G75*
G02*
X127000000Y-91500000I1000000J0D01*
G01*
X138000000Y-112500000D02*
X138000000Y-110250000D01*
X126000000Y-92500000D02*
X126000000Y-100400001D01*
X138000000Y-93750000D02*
X138000000Y-91500000D01*
X127000000Y-112500000D02*
G75*
G02*
X126000000Y-111500000I0J1000000D01*
G01*
X126000000Y-100400001D02*
G75*
G02*
X126000000Y-103599999I0J-1599999D01*
G01*
X138000000Y-110250000D02*
X180000000Y-110250000D01*
%TO.C,U3*%
X157380000Y-103000000D02*
G75*
G02*
X157120000Y-103000000I-130000J0D01*
G01*
X157120000Y-103000000D02*
G75*
G02*
X157380000Y-103000000I130000J0D01*
G01*
D11*
%TO.C,U7*%
X149181072Y-103399686D02*
G75*
G02*
X148881072Y-103399686I-150000J0D01*
G01*
X148881072Y-103399686D02*
G75*
G02*
X149181072Y-103399686I150000J0D01*
G01*
D10*
%TO.C,U6*%
X169771559Y-101552966D02*
G75*
G02*
X169511559Y-101552966I-130000J0D01*
G01*
X169511559Y-101552966D02*
G75*
G02*
X169771559Y-101552966I130000J0D01*
G01*
%TO.C,U2*%
X173790000Y-99010000D02*
G75*
G02*
X173550000Y-99010000I-120000J0D01*
G01*
X173550000Y-99010000D02*
G75*
G02*
X173790000Y-99010000I120000J0D01*
G01*
X173790000Y-104790000D02*
G75*
G02*
X173550000Y-104790000I-120000J0D01*
G01*
X173550000Y-104790000D02*
G75*
G02*
X173790000Y-104790000I120000J0D01*
G01*
%TD*%
M02*
