%TF.GenerationSoftware,KiCad,Pcbnew,9.0.0*%
%TF.CreationDate,2025-03-14T22:24:00-04:00*%
%TF.ProjectId,teensy,7465656e-7379-42e6-9b69-6361645f7063,rev?*%
%TF.SameCoordinates,Original*%
%TF.FileFunction,Other,User*%
%FSLAX46Y46*%
G04 Gerber Fmt 4.6, Leading zero omitted, Abs format (unit mm)*
G04 Created by KiCad (PCBNEW 9.0.0) date 2025-03-14 22:24:00*
%MOMM*%
%LPD*%
G01*
G04 APERTURE LIST*
%ADD10C,0.050000*%
%ADD11C,0.152400*%
%ADD12C,0.100000*%
G04 APERTURE END LIST*
D10*
%TO.C,C6*%
X157411072Y-93825396D02*
X159231072Y-93825396D01*
X157411072Y-94745396D02*
X157411072Y-93825396D01*
X159231072Y-93825396D02*
X159231072Y-94745396D01*
X159231072Y-94745396D02*
X157411072Y-94745396D01*
%TO.C,U9*%
X130266072Y-95000000D02*
X137716072Y-95000000D01*
X130266072Y-100500000D02*
X130266072Y-95000000D01*
X137716072Y-95000000D02*
X137716072Y-100500000D01*
X137716072Y-100500000D02*
X130266072Y-100500000D01*
%TO.C,C20*%
X147279750Y-108370000D02*
X148199750Y-108370000D01*
X147279750Y-110190000D02*
X147279750Y-108370000D01*
X148199750Y-108370000D02*
X148199750Y-110190000D01*
X148199750Y-110190000D02*
X147279750Y-110190000D01*
%TO.C,R6*%
X153445176Y-94439671D02*
X154385176Y-94439671D01*
X153445176Y-96299671D02*
X153445176Y-94439671D01*
X154385176Y-94439671D02*
X154385176Y-96299671D01*
X154385176Y-96299671D02*
X153445176Y-96299671D01*
%TO.C,R2*%
X171127500Y-95630000D02*
X172987500Y-95630000D01*
X171127500Y-96570000D02*
X171127500Y-95630000D01*
X172987500Y-95630000D02*
X172987500Y-96570000D01*
X172987500Y-96570000D02*
X171127500Y-96570000D01*
D11*
%TO.C,U1*%
X163136600Y-106344300D02*
X163441700Y-106344300D01*
X163136600Y-108655700D02*
X163136600Y-106344300D01*
X163441700Y-105391800D02*
X163441700Y-106344300D01*
X163441700Y-105391800D02*
X166438300Y-105391800D01*
X163441700Y-108655700D02*
X163136600Y-108655700D01*
X163441700Y-109608200D02*
X163441700Y-108655700D01*
X166438300Y-105391800D02*
X166438300Y-106344300D01*
X166438300Y-106344300D02*
X166743400Y-106344300D01*
X166438300Y-109608200D02*
X163441700Y-109608200D01*
X166438300Y-109608200D02*
X166438300Y-108655700D01*
X166743400Y-106344300D02*
X166743400Y-108655700D01*
X166743400Y-108655700D02*
X166438300Y-108655700D01*
D10*
%TO.C,C8*%
X156614749Y-103439810D02*
X157534749Y-103439810D01*
X156614749Y-105259810D02*
X156614749Y-103439810D01*
X157534749Y-103439810D02*
X157534749Y-105259810D01*
X157534749Y-105259810D02*
X156614749Y-105259810D01*
%TO.C,R4*%
X154494211Y-101455396D02*
X155434211Y-101455396D01*
X154494211Y-103315396D02*
X154494211Y-101455396D01*
X155434211Y-101455396D02*
X155434211Y-103315396D01*
X155434211Y-103315396D02*
X154494211Y-103315396D01*
%TO.C,C19*%
X147289750Y-104960000D02*
X148209750Y-104960000D01*
X147289750Y-106780000D02*
X147289750Y-104960000D01*
X148209750Y-104960000D02*
X148209750Y-106780000D01*
X148209750Y-106780000D02*
X147289750Y-106780000D01*
%TO.C,R10*%
X153629750Y-104950000D02*
X154569750Y-104950000D01*
X153629750Y-106810000D02*
X153629750Y-104950000D01*
X154569750Y-104950000D02*
X154569750Y-106810000D01*
X154569750Y-106810000D02*
X153629750Y-106810000D01*
D12*
%TO.C,U5*%
X139700000Y-92750000D02*
X146700000Y-92750000D01*
X139700000Y-97550000D02*
X139700000Y-92750000D01*
X146700000Y-92750000D02*
X146700000Y-97550000D01*
X146700000Y-97550000D02*
X139700000Y-97550000D01*
D10*
%TO.C,C13*%
X165976118Y-96260551D02*
X167796118Y-96260551D01*
X165976118Y-97180551D02*
X165976118Y-96260551D01*
X167796118Y-96260551D02*
X167796118Y-97180551D01*
X167796118Y-97180551D02*
X165976118Y-97180551D01*
%TO.C,U10*%
X130066072Y-100850000D02*
X137916072Y-100850000D01*
X130066072Y-107950000D02*
X130066072Y-100850000D01*
X137916072Y-100850000D02*
X137916072Y-107950000D01*
X137916072Y-107950000D02*
X130066072Y-107950000D01*
%TO.C,C17*%
X138540000Y-100240000D02*
X139460000Y-100240000D01*
X138540000Y-102060000D02*
X138540000Y-100240000D01*
X139460000Y-100240000D02*
X139460000Y-102060000D01*
X139460000Y-102060000D02*
X138540000Y-102060000D01*
%TO.C,R7*%
X154507631Y-94426715D02*
X155447631Y-94426715D01*
X154507631Y-96286715D02*
X154507631Y-94426715D01*
X155447631Y-94426715D02*
X155447631Y-96286715D01*
X155447631Y-96286715D02*
X154507631Y-96286715D01*
%TO.C,R8*%
X167746283Y-105880000D02*
X169606283Y-105880000D01*
X167746283Y-106820000D02*
X167746283Y-105880000D01*
X169606283Y-105880000D02*
X169606283Y-106820000D01*
X169606283Y-106820000D02*
X167746283Y-106820000D01*
%TO.C,C1*%
X162180000Y-107610000D02*
X163100000Y-107610000D01*
X162180000Y-109430000D02*
X162180000Y-107610000D01*
X163100000Y-107610000D02*
X163100000Y-109430000D01*
X163100000Y-109430000D02*
X162180000Y-109430000D01*
%TO.C,C12*%
X155531072Y-93825396D02*
X157351072Y-93825396D01*
X155531072Y-94745396D02*
X155531072Y-93825396D01*
X157351072Y-93825396D02*
X157351072Y-94745396D01*
X157351072Y-94745396D02*
X155531072Y-94745396D01*
%TO.C,C16*%
X130081072Y-108040000D02*
X131901072Y-108040000D01*
X130081072Y-108960000D02*
X130081072Y-108040000D01*
X131901072Y-108040000D02*
X131901072Y-108960000D01*
X131901072Y-108960000D02*
X130081072Y-108960000D01*
%TO.C,C9*%
X160451072Y-93825396D02*
X162271072Y-93825396D01*
X160451072Y-94745396D02*
X160451072Y-93825396D01*
X162271072Y-93825396D02*
X162271072Y-94745396D01*
X162271072Y-94745396D02*
X160451072Y-94745396D01*
%TO.C,R5*%
X165293372Y-98330939D02*
X166233372Y-98330939D01*
X165293372Y-100190939D02*
X165293372Y-98330939D01*
X166233372Y-98330939D02*
X166233372Y-100190939D01*
X166233372Y-100190939D02*
X165293372Y-100190939D01*
%TO.C,U12*%
X126465000Y-91400000D02*
X126465000Y-95000000D01*
X126465000Y-95000000D02*
X137665000Y-95000000D01*
X137665000Y-91400000D02*
X126465000Y-91400000D01*
X137665000Y-95000000D02*
X137665000Y-91400000D01*
%TO.C,R1*%
X171127500Y-107530000D02*
X172987500Y-107530000D01*
X171127500Y-108470000D02*
X171127500Y-107530000D01*
X172987500Y-107530000D02*
X172987500Y-108470000D01*
X172987500Y-108470000D02*
X171127500Y-108470000D01*
D12*
%TO.C,U4*%
X139600000Y-106450000D02*
X146600000Y-106450000D01*
X139600000Y-111250000D02*
X139600000Y-106450000D01*
X146600000Y-106450000D02*
X146600000Y-111250000D01*
X146600000Y-111250000D02*
X139600000Y-111250000D01*
D10*
%TO.C,C5*%
X165976118Y-97307506D02*
X167796118Y-97307506D01*
X165976118Y-98227506D02*
X165976118Y-97307506D01*
X167796118Y-97307506D02*
X167796118Y-98227506D01*
X167796118Y-98227506D02*
X165976118Y-98227506D01*
%TO.C,R9*%
X153609750Y-108350000D02*
X154549750Y-108350000D01*
X153609750Y-110210000D02*
X153609750Y-108350000D01*
X154549750Y-108350000D02*
X154549750Y-110210000D01*
X154549750Y-110210000D02*
X153609750Y-110210000D01*
%TO.C,C15*%
X136081072Y-108040000D02*
X137901072Y-108040000D01*
X136081072Y-108960000D02*
X136081072Y-108040000D01*
X137901072Y-108040000D02*
X137901072Y-108960000D01*
X137901072Y-108960000D02*
X136081072Y-108960000D01*
%TO.C,C18*%
X138540000Y-102140000D02*
X139460000Y-102140000D01*
X138540000Y-103960000D02*
X138540000Y-102140000D01*
X139460000Y-102140000D02*
X139460000Y-103960000D01*
X139460000Y-103960000D02*
X138540000Y-103960000D01*
%TO.C,U8*%
X167495000Y-106850000D02*
X169945000Y-106850000D01*
X167495000Y-109350000D02*
X167495000Y-106850000D01*
X169945000Y-106850000D02*
X169945000Y-109350000D01*
X169945000Y-109350000D02*
X167495000Y-109350000D01*
%TO.C,C3*%
X167138330Y-102684022D02*
X168958330Y-102684022D01*
X167138330Y-103604022D02*
X167138330Y-102684022D01*
X168958330Y-102684022D02*
X168958330Y-103604022D01*
X168958330Y-103604022D02*
X167138330Y-103604022D01*
%TO.C,C4*%
X167908259Y-97359901D02*
X169728259Y-97359901D01*
X167908259Y-98279901D02*
X167908259Y-97359901D01*
X169728259Y-97359901D02*
X169728259Y-98279901D01*
X169728259Y-98279901D02*
X167908259Y-98279901D01*
%TO.C,C11*%
X153730059Y-98651098D02*
X155550059Y-98651098D01*
X153730059Y-99571098D02*
X153730059Y-98651098D01*
X155550059Y-98651098D02*
X155550059Y-99571098D01*
X155550059Y-99571098D02*
X153730059Y-99571098D01*
%TO.C,U11*%
X126465000Y-109100000D02*
X126465000Y-112700000D01*
X126465000Y-112700000D02*
X137665000Y-112700000D01*
X137665000Y-109100000D02*
X126465000Y-109100000D01*
X137665000Y-112700000D02*
X137665000Y-109100000D01*
%TO.C,U30*%
X148275000Y-104950000D02*
X153525000Y-104950000D01*
X148275000Y-110200000D02*
X148275000Y-104950000D01*
X153525000Y-104950000D02*
X153525000Y-110200000D01*
X153525000Y-110200000D02*
X148275000Y-110200000D01*
%TO.C,U13*%
X139500000Y-97875000D02*
X146700000Y-97875000D01*
X139500000Y-106425000D02*
X139500000Y-97875000D01*
X146700000Y-97875000D02*
X146700000Y-106425000D01*
X146700000Y-106425000D02*
X139500000Y-106425000D01*
%TO.C,R3*%
X160399128Y-103477031D02*
X161339128Y-103477031D01*
X160399128Y-105337031D02*
X160399128Y-103477031D01*
X161339128Y-103477031D02*
X161339128Y-105337031D01*
X161339128Y-105337031D02*
X160399128Y-105337031D01*
%TO.C,C2*%
X162180000Y-105490000D02*
X163100000Y-105490000D01*
X162180000Y-107310000D02*
X162180000Y-105490000D01*
X163100000Y-105490000D02*
X163100000Y-107310000D01*
X163100000Y-107310000D02*
X162180000Y-107310000D01*
%TO.C,C7*%
X155576023Y-103467846D02*
X156496023Y-103467846D01*
X155576023Y-105287846D02*
X155576023Y-103467846D01*
X156496023Y-103467846D02*
X156496023Y-105287846D01*
X156496023Y-105287846D02*
X155576023Y-105287846D01*
%TO.C,C10*%
X147359532Y-94487559D02*
X148279532Y-94487559D01*
X147359532Y-96307559D02*
X147359532Y-94487559D01*
X148279532Y-94487559D02*
X148279532Y-96307559D01*
X148279532Y-96307559D02*
X147359532Y-96307559D01*
%TO.C,C14*%
X166004553Y-95246347D02*
X167824553Y-95246347D01*
X166004553Y-96166347D02*
X166004553Y-95246347D01*
X167824553Y-95246347D02*
X167824553Y-96166347D01*
X167824553Y-96166347D02*
X166004553Y-96166347D01*
%TD*%
M02*
