%TF.GenerationSoftware,KiCad,Pcbnew,9.0.0*%
%TF.CreationDate,2025-03-14T22:24:00-04:00*%
%TF.ProjectId,teensy,7465656e-7379-42e6-9b69-6361645f7063,rev?*%
%TF.SameCoordinates,Original*%
%TF.FileFunction,Soldermask,Top*%
%TF.FilePolarity,Negative*%
%FSLAX46Y46*%
G04 Gerber Fmt 4.6, Leading zero omitted, Abs format (unit mm)*
G04 Created by KiCad (PCBNEW 9.0.0) date 2025-03-14 22:24:00*
%MOMM*%
%LPD*%
G01*
G04 APERTURE LIST*
G04 Aperture macros list*
%AMRoundRect*
0 Rectangle with rounded corners*
0 $1 Rounding radius*
0 $2 $3 $4 $5 $6 $7 $8 $9 X,Y pos of 4 corners*
0 Add a 4 corners polygon primitive as box body*
4,1,4,$2,$3,$4,$5,$6,$7,$8,$9,$2,$3,0*
0 Add four circle primitives for the rounded corners*
1,1,$1+$1,$2,$3*
1,1,$1+$1,$4,$5*
1,1,$1+$1,$6,$7*
1,1,$1+$1,$8,$9*
0 Add four rect primitives between the rounded corners*
20,1,$1+$1,$2,$3,$4,$5,0*
20,1,$1+$1,$4,$5,$6,$7,0*
20,1,$1+$1,$6,$7,$8,$9,0*
20,1,$1+$1,$8,$9,$2,$3,0*%
G04 Aperture macros list end*
%ADD10C,3.575000*%
%ADD11RoundRect,0.140000X-0.140000X-0.170000X0.140000X-0.170000X0.140000X0.170000X-0.140000X0.170000X0*%
%ADD12R,1.528000X0.650000*%
%ADD13RoundRect,0.140000X-0.170000X0.140000X-0.170000X-0.140000X0.170000X-0.140000X0.170000X0.140000X0*%
%ADD14RoundRect,0.135000X0.185000X-0.135000X0.185000X0.135000X-0.185000X0.135000X-0.185000X-0.135000X0*%
%ADD15R,0.200000X1.100000*%
%ADD16R,1.100000X0.200000*%
%ADD17R,3.100000X3.100000*%
%ADD18RoundRect,0.135000X0.135000X0.185000X-0.135000X0.185000X-0.135000X-0.185000X0.135000X-0.185000X0*%
%ADD19R,0.609600X1.320800*%
%ADD20R,0.900000X1.000000*%
%ADD21O,0.630000X2.250000*%
%ADD22R,1.475000X0.450000*%
%ADD23RoundRect,0.135000X-0.185000X0.135000X-0.185000X-0.135000X0.185000X-0.135000X0.185000X0.135000X0*%
%ADD24RoundRect,0.140000X0.170000X-0.140000X0.170000X0.140000X-0.170000X0.140000X-0.170000X-0.140000X0*%
%ADD25RoundRect,0.140000X0.140000X0.170000X-0.140000X0.170000X-0.140000X-0.170000X0.140000X-0.170000X0*%
%ADD26R,1.200000X1.400000*%
%ADD27R,1.700000X1.700000*%
%ADD28O,1.700000X1.700000*%
%ADD29R,0.475000X0.300000*%
%ADD30C,0.700000*%
%ADD31O,2.000000X1.200000*%
%ADD32O,1.800000X1.200000*%
%ADD33R,1.300000X0.300000*%
%ADD34R,1.050000X0.350000*%
%ADD35R,0.350000X1.050000*%
%ADD36R,2.200000X2.200000*%
%ADD37R,0.950000X1.750000*%
%ADD38R,3.200000X1.750000*%
G04 APERTURE END LIST*
D10*
X127787500Y-102000000D02*
G75*
G02*
X124212500Y-102000000I-1787500J0D01*
G01*
X124212500Y-102000000D02*
G75*
G02*
X127787500Y-102000000I1787500J0D01*
G01*
X127787500Y-102000000D02*
G75*
G02*
X124212500Y-102000000I-1787500J0D01*
G01*
X124212500Y-102000000D02*
G75*
G02*
X127787500Y-102000000I1787500J0D01*
G01*
D11*
%TO.C,C6*%
X157841072Y-94285396D03*
X158801072Y-94285396D03*
%TD*%
D12*
%TO.C,U9*%
X136702072Y-99655000D03*
X136702072Y-98385000D03*
X136702072Y-97115000D03*
X136702072Y-95845000D03*
X131280072Y-95845000D03*
X131280072Y-97115000D03*
X131280072Y-98385000D03*
X131280072Y-99655000D03*
%TD*%
D13*
%TO.C,C20*%
X147739750Y-108800000D03*
X147739750Y-109760000D03*
%TD*%
D14*
%TO.C,R6*%
X153915176Y-95879671D03*
X153915176Y-94859671D03*
%TD*%
D15*
%TO.C,U3*%
X157250000Y-102650000D03*
X157650000Y-102650000D03*
X158050000Y-102650000D03*
X158450000Y-102650000D03*
X158850000Y-102650000D03*
X159250000Y-102650000D03*
X159650000Y-102650000D03*
X160050000Y-102650000D03*
X160450000Y-102650000D03*
X160850000Y-102650000D03*
X161250000Y-102650000D03*
X161650000Y-102650000D03*
X162050000Y-102650000D03*
X162450000Y-102650000D03*
D16*
X163400000Y-101700000D03*
X163400000Y-101300000D03*
X163400000Y-100900000D03*
X163400000Y-100500000D03*
X163400000Y-100100000D03*
X163400000Y-99700000D03*
X163400000Y-99300000D03*
X163400000Y-98900000D03*
X163400000Y-98500000D03*
X163400000Y-98100000D03*
X163400000Y-97700000D03*
X163400000Y-97300000D03*
X163400000Y-96900000D03*
X163400000Y-96500000D03*
D15*
X162450000Y-95550000D03*
X162050000Y-95550000D03*
X161650000Y-95550000D03*
X161250000Y-95550000D03*
X160850000Y-95550000D03*
X160450000Y-95550000D03*
X160050000Y-95550000D03*
X159650000Y-95550000D03*
X159250000Y-95550000D03*
X158850000Y-95550000D03*
X158450000Y-95550000D03*
X158050000Y-95550000D03*
X157650000Y-95550000D03*
X157250000Y-95550000D03*
D16*
X156300000Y-96500000D03*
X156300000Y-96900000D03*
X156300000Y-97300000D03*
X156300000Y-97700000D03*
X156300000Y-98100000D03*
X156300000Y-98500000D03*
X156300000Y-98900000D03*
X156300000Y-99300000D03*
X156300000Y-99700000D03*
X156300000Y-100100000D03*
X156300000Y-100500000D03*
X156300000Y-100900000D03*
X156300000Y-101300000D03*
X156300000Y-101700000D03*
D17*
X159850000Y-99100000D03*
%TD*%
D18*
%TO.C,R2*%
X172567500Y-96100000D03*
X171547500Y-96100000D03*
%TD*%
D19*
%TO.C,U1*%
X164000500Y-108693800D03*
X164940000Y-108693800D03*
X165879500Y-108693800D03*
X165879500Y-106306200D03*
X164000500Y-106306200D03*
%TD*%
D13*
%TO.C,C8*%
X157074749Y-103869810D03*
X157074749Y-104829810D03*
%TD*%
D14*
%TO.C,R4*%
X154964211Y-102895396D03*
X154964211Y-101875396D03*
%TD*%
D13*
%TO.C,C19*%
X147749750Y-105390000D03*
X147749750Y-106350000D03*
%TD*%
D14*
%TO.C,R10*%
X154099750Y-106390000D03*
X154099750Y-105370000D03*
%TD*%
D20*
%TO.C,U5*%
X145250000Y-94350000D03*
X145250000Y-95950000D03*
X141150000Y-95950000D03*
X141150000Y-94350000D03*
%TD*%
D11*
%TO.C,C13*%
X166406118Y-96720551D03*
X167366118Y-96720551D03*
%TD*%
D21*
%TO.C,U7*%
X149031072Y-102579686D03*
X150311072Y-102579686D03*
X151571072Y-102579686D03*
X152841072Y-102579686D03*
X152841072Y-95519686D03*
X151571072Y-95519686D03*
X150311072Y-95519686D03*
X149031072Y-95519686D03*
%TD*%
D22*
%TO.C,U10*%
X136929072Y-107325000D03*
X136929072Y-106675000D03*
X136929072Y-106025000D03*
X136929072Y-105375000D03*
X136929072Y-104725000D03*
X136929072Y-104075000D03*
X136929072Y-103425000D03*
X136929072Y-102775000D03*
X136929072Y-102125000D03*
X136929072Y-101475000D03*
X131053072Y-101475000D03*
X131053072Y-102125000D03*
X131053072Y-102775000D03*
X131053072Y-103425000D03*
X131053072Y-104075000D03*
X131053072Y-104725000D03*
X131053072Y-105375000D03*
X131053072Y-106025000D03*
X131053072Y-106675000D03*
X131053072Y-107325000D03*
%TD*%
D13*
%TO.C,C17*%
X139000000Y-100670000D03*
X139000000Y-101630000D03*
%TD*%
D23*
%TO.C,R7*%
X154977631Y-94846715D03*
X154977631Y-95866715D03*
%TD*%
D18*
%TO.C,R8*%
X169186283Y-106350000D03*
X168166283Y-106350000D03*
%TD*%
D24*
%TO.C,C1*%
X162640000Y-109000000D03*
X162640000Y-108040000D03*
%TD*%
D25*
%TO.C,C12*%
X156921072Y-94285396D03*
X155961072Y-94285396D03*
%TD*%
D11*
%TO.C,C16*%
X130511072Y-108500000D03*
X131471072Y-108500000D03*
%TD*%
%TO.C,C9*%
X160881072Y-94285396D03*
X161841072Y-94285396D03*
%TD*%
D14*
%TO.C,R5*%
X165763372Y-99770939D03*
X165763372Y-98750939D03*
%TD*%
D26*
%TO.C,U6*%
X168951559Y-101562966D03*
X168951559Y-99362966D03*
X167191559Y-99362966D03*
X167191559Y-101562966D03*
%TD*%
D27*
%TO.C,U12*%
X128265000Y-93200000D03*
D28*
X130805000Y-93200000D03*
X133345000Y-93200000D03*
X135885000Y-93200000D03*
%TD*%
D18*
%TO.C,R1*%
X172567500Y-108000000D03*
X171547500Y-108000000D03*
%TD*%
D20*
%TO.C,U4*%
X141050000Y-109650000D03*
X141050000Y-108050000D03*
X145150000Y-108050000D03*
X145150000Y-109650000D03*
%TD*%
D11*
%TO.C,C5*%
X166406118Y-97767506D03*
X167366118Y-97767506D03*
%TD*%
D23*
%TO.C,R9*%
X154079750Y-108770000D03*
X154079750Y-109790000D03*
%TD*%
D11*
%TO.C,C15*%
X136511072Y-108500000D03*
X137471072Y-108500000D03*
%TD*%
D24*
%TO.C,C18*%
X139000000Y-103530000D03*
X139000000Y-102570000D03*
%TD*%
D29*
%TO.C,U8*%
X167882000Y-107350000D03*
X167882000Y-107850000D03*
X167882000Y-108350000D03*
X167882000Y-108850000D03*
X169558000Y-108850000D03*
X169558000Y-108350000D03*
X169558000Y-107850000D03*
X169558000Y-107350000D03*
%TD*%
D25*
%TO.C,C3*%
X168528330Y-103144022D03*
X167568330Y-103144022D03*
%TD*%
D11*
%TO.C,C4*%
X168338259Y-97819901D03*
X169298259Y-97819901D03*
%TD*%
D30*
%TO.C,U2*%
X173670000Y-104790000D03*
X173670000Y-99010000D03*
D31*
X173130000Y-106220000D03*
X173130000Y-97580000D03*
D32*
X177320000Y-106220000D03*
X177320000Y-97580000D03*
D33*
X172480000Y-105250000D03*
X172480000Y-104450000D03*
X172480000Y-103150000D03*
X172480000Y-102150000D03*
X172480000Y-101650000D03*
X172480000Y-100650000D03*
X172490000Y-99350000D03*
X172480000Y-98550000D03*
X172480000Y-98850000D03*
X172490000Y-99650000D03*
X172480000Y-100150000D03*
X172480000Y-101150000D03*
X172480000Y-102650000D03*
X172480000Y-103650000D03*
X172480000Y-104150000D03*
X172480000Y-104950000D03*
%TD*%
D25*
%TO.C,C11*%
X155120059Y-99111098D03*
X154160059Y-99111098D03*
%TD*%
D27*
%TO.C,U11*%
X128265000Y-110900000D03*
D28*
X130805000Y-110900000D03*
X133345000Y-110900000D03*
X135885000Y-110900000D03*
%TD*%
D34*
%TO.C,U30*%
X152750000Y-108550000D03*
X152750000Y-107900000D03*
X152750000Y-107250000D03*
X152750000Y-106600000D03*
D35*
X151875000Y-105725000D03*
X151225000Y-105725000D03*
X150575000Y-105725000D03*
X149925000Y-105725000D03*
D34*
X149050000Y-106600000D03*
X149050000Y-107250000D03*
X149050000Y-107900000D03*
X149050000Y-108550000D03*
D35*
X149925000Y-109425000D03*
X150575000Y-109425000D03*
X151225000Y-109425000D03*
X151875000Y-109425000D03*
D36*
X150900000Y-107575000D03*
%TD*%
D37*
%TO.C,U13*%
X145400000Y-99000000D03*
X143100000Y-99000000D03*
X140800000Y-99000000D03*
D38*
X143100000Y-105300000D03*
%TD*%
D23*
%TO.C,R3*%
X160869128Y-103897031D03*
X160869128Y-104917031D03*
%TD*%
D13*
%TO.C,C2*%
X162640000Y-105920000D03*
X162640000Y-106880000D03*
%TD*%
%TO.C,C7*%
X156036023Y-103897846D03*
X156036023Y-104857846D03*
%TD*%
%TO.C,C10*%
X147819532Y-94917559D03*
X147819532Y-95877559D03*
%TD*%
D11*
%TO.C,C14*%
X166434553Y-95706347D03*
X167394553Y-95706347D03*
%TD*%
M02*
